<?xml version="1.0" encoding="UTF-8" standalone="no"?>
<!DOCTYPE svg PUBLIC "-//W3C//DTD SVG 1.1//EN"
 "http://www.w3.org/Graphics/SVG/1.1/DTD/svg11.dtd">
<!-- Generated by graphviz version 2.43.0 (0)
 -->
<!-- Title: snakemake_dag Pages: 1 -->
<svg width="2009pt" height="491pt"
 viewBox="0.00 0.00 2009.00 491.00" xmlns="http://www.w3.org/2000/svg" xmlns:xlink="http://www.w3.org/1999/xlink">
<g id="graph0" class="graph" transform="scale(1 1) rotate(0) translate(4 487)">
<title>snakemake_dag</title>
<polygon fill="white" stroke="transparent" points="-4,4 -4,-487 2005,-487 2005,4 -4,4"/>
<!-- 0 -->
<g id="node1" class="node">
<title>0</title>
<path fill="none" stroke="#78d856" stroke-width="2" d="M1458,-36C1458,-36 1372,-36 1372,-36 1366,-36 1360,-30 1360,-24 1360,-24 1360,-12 1360,-12 1360,-6 1366,0 1372,0 1372,0 1458,0 1458,0 1464,0 1470,-6 1470,-12 1470,-12 1470,-24 1470,-24 1470,-30 1464,-36 1458,-36"/>
<text text-anchor="middle" x="1415" y="-15.5" font-family="sans" font-size="10.00">build_Pharmacoset</text>
</g>
<!-- 1 -->
<g id="node2" class="node">
<title>1</title>
<path fill="none" stroke="#56d88a" stroke-width="2" stroke-dasharray="5,2" d="M1178,-108C1178,-108 1004,-108 1004,-108 998,-108 992,-102 992,-96 992,-96 992,-84 992,-84 992,-78 998,-72 1004,-72 1004,-72 1178,-72 1178,-72 1184,-72 1190,-78 1190,-84 1190,-84 1190,-96 1190,-96 1190,-102 1184,-108 1178,-108"/>
<text text-anchor="middle" x="1091" y="-87.5" font-family="sans" font-size="10.00">build_treatmentResponseExperiment</text>
</g>
<!-- 1&#45;&gt;0 -->
<g id="edge1" class="edge">
<title>1&#45;&gt;0</title>
<path fill="none" stroke="grey" stroke-width="2" d="M1169.85,-71.97C1224.99,-60.05 1297.76,-44.33 1349.66,-33.12"/>
<polygon fill="grey" stroke="grey" stroke-width="2" points="1350.72,-36.47 1359.76,-30.94 1349.24,-29.63 1350.72,-36.47"/>
</g>
<!-- 2 -->
<g id="node3" class="node">
<title>2</title>
<path fill="none" stroke="#d8ac56" stroke-width="2" stroke-dasharray="5,2" d="M999.5,-185C999.5,-185 858.5,-185 858.5,-185 852.5,-185 846.5,-179 846.5,-173 846.5,-173 846.5,-156 846.5,-156 846.5,-150 852.5,-144 858.5,-144 858.5,-144 999.5,-144 999.5,-144 1005.5,-144 1011.5,-150 1011.5,-156 1011.5,-156 1011.5,-173 1011.5,-173 1011.5,-179 1005.5,-185 999.5,-185"/>
<text text-anchor="middle" x="929" y="-173" font-family="sans" font-size="10.00">download_treatmentResponse</text>
<text text-anchor="middle" x="929" y="-162" font-family="sans" font-size="10.00">release: 8.4</text>
<text text-anchor="middle" x="929" y="-151" font-family="sans" font-size="10.00">version: GDSC2</text>
</g>
<!-- 2&#45;&gt;1 -->
<g id="edge9" class="edge">
<title>2&#45;&gt;1</title>
<path fill="none" stroke="grey" stroke-width="2" d="M972.84,-143.88C994.73,-134.08 1021.25,-122.22 1043.61,-112.21"/>
<polygon fill="grey" stroke="grey" stroke-width="2" points="1045.21,-115.33 1052.91,-108.05 1042.35,-108.94 1045.21,-115.33"/>
</g>
<!-- 3 -->
<g id="node4" class="node">
<title>3</title>
<path fill="none" stroke="#b6d856" stroke-width="2" stroke-dasharray="5,2" d="M1094,-406C1094,-406 948,-406 948,-406 942,-406 936,-400 936,-394 936,-394 936,-382 936,-382 936,-376 942,-370 948,-370 948,-370 1094,-370 1094,-370 1100,-370 1106,-376 1106,-382 1106,-382 1106,-394 1106,-394 1106,-400 1100,-406 1094,-406"/>
<text text-anchor="middle" x="1021" y="-385.5" font-family="sans" font-size="10.00">preprocess_treatmentMetadata</text>
</g>
<!-- 3&#45;&gt;1 -->
<g id="edge10" class="edge">
<title>3&#45;&gt;1</title>
<path fill="none" stroke="grey" stroke-width="2" d="M1021.42,-369.94C1022.89,-329.49 1029.49,-225.05 1059,-144 1062.4,-134.65 1067.53,-125.14 1072.68,-116.8"/>
<polygon fill="grey" stroke="grey" stroke-width="2" points="1075.71,-118.57 1078.21,-108.28 1069.83,-114.76 1075.71,-118.57"/>
</g>
<!-- 9 -->
<g id="node10" class="node">
<title>9</title>
<path fill="none" stroke="#56d8c9" stroke-width="2" d="M676,-108C676,-108 556,-108 556,-108 550,-108 544,-102 544,-96 544,-96 544,-84 544,-84 544,-78 550,-72 556,-72 556,-72 676,-72 676,-72 682,-72 688,-78 688,-84 688,-84 688,-96 688,-96 688,-102 682,-108 676,-108"/>
<text text-anchor="middle" x="616" y="-87.5" font-family="sans" font-size="10.00">annotated_TreatmentData</text>
</g>
<!-- 3&#45;&gt;9 -->
<g id="edge23" class="edge">
<title>3&#45;&gt;9</title>
<path fill="none" stroke="grey" stroke-width="2" d="M1011.28,-369.8C992.06,-337.05 946.2,-265.09 891,-221 854.4,-191.76 736.46,-140.62 667.5,-111.97"/>
<polygon fill="grey" stroke="grey" stroke-width="2" points="668.68,-108.67 658.1,-108.08 666,-115.14 668.68,-108.67"/>
</g>
<!-- 11 -->
<g id="node12" class="node">
<title>11</title>
<path fill="none" stroke="#d8bc56" stroke-width="2" d="M625,-334C625,-334 467,-334 467,-334 461,-334 455,-328 455,-322 455,-322 455,-310 455,-310 455,-304 461,-298 467,-298 467,-298 625,-298 625,-298 631,-298 637,-304 637,-310 637,-310 637,-322 637,-322 637,-328 631,-334 625,-334"/>
<text text-anchor="middle" x="546" y="-313.5" font-family="sans" font-size="10.00">map_treatments_to_PubChemCID</text>
</g>
<!-- 3&#45;&gt;11 -->
<g id="edge25" class="edge">
<title>3&#45;&gt;11</title>
<path fill="none" stroke="grey" stroke-width="2" d="M935.81,-374.45C854.91,-362.52 733.24,-344.59 647.39,-331.94"/>
<polygon fill="grey" stroke="grey" stroke-width="2" points="647.77,-328.46 637.37,-330.46 646.75,-335.39 647.77,-328.46"/>
</g>
<!-- 4 -->
<g id="node5" class="node">
<title>4</title>
<path fill="none" stroke="#56c1d8" stroke-width="2" stroke-dasharray="5,2" d="M1089,-483C1089,-483 953,-483 953,-483 947,-483 941,-477 941,-471 941,-471 941,-454 941,-454 941,-448 947,-442 953,-442 953,-442 1089,-442 1089,-442 1095,-442 1101,-448 1101,-454 1101,-454 1101,-471 1101,-471 1101,-477 1095,-483 1089,-483"/>
<text text-anchor="middle" x="1021" y="-471" font-family="sans" font-size="10.00">downloadTreatmentMetadata</text>
<text text-anchor="middle" x="1021" y="-460" font-family="sans" font-size="10.00">release: 8.4</text>
<text text-anchor="middle" x="1021" y="-449" font-family="sans" font-size="10.00">version: GDSC2</text>
</g>
<!-- 4&#45;&gt;3 -->
<g id="edge12" class="edge">
<title>4&#45;&gt;3</title>
<path fill="none" stroke="grey" stroke-width="2" d="M1021,-441.69C1021,-433.91 1021,-424.84 1021,-416.45"/>
<polygon fill="grey" stroke="grey" stroke-width="2" points="1024.5,-416.32 1021,-406.32 1017.5,-416.32 1024.5,-416.32"/>
</g>
<!-- 5 -->
<g id="node6" class="node">
<title>5</title>
<path fill="none" stroke="#61d856" stroke-width="2" stroke-dasharray="5,2" d="M1296,-480.5C1296,-480.5 1192,-480.5 1192,-480.5 1186,-480.5 1180,-474.5 1180,-468.5 1180,-468.5 1180,-456.5 1180,-456.5 1180,-450.5 1186,-444.5 1192,-444.5 1192,-444.5 1296,-444.5 1296,-444.5 1302,-444.5 1308,-450.5 1308,-456.5 1308,-456.5 1308,-468.5 1308,-468.5 1308,-474.5 1302,-480.5 1296,-480.5"/>
<text text-anchor="middle" x="1244" y="-460" font-family="sans" font-size="10.00">downloadMappingFiles</text>
</g>
<!-- 5&#45;&gt;3 -->
<g id="edge13" class="edge">
<title>5&#45;&gt;3</title>
<path fill="none" stroke="grey" stroke-width="2" d="M1191.43,-444.41C1159.09,-433.89 1117.45,-420.36 1083.43,-409.3"/>
<polygon fill="grey" stroke="grey" stroke-width="2" points="1084.19,-405.86 1073.6,-406.1 1082.03,-412.52 1084.19,-405.86"/>
</g>
<!-- 6 -->
<g id="node7" class="node">
<title>6</title>
<path fill="none" stroke="#d87d56" stroke-width="2" stroke-dasharray="5,2" d="M1372,-182.5C1372,-182.5 1238,-182.5 1238,-182.5 1232,-182.5 1226,-176.5 1226,-170.5 1226,-170.5 1226,-158.5 1226,-158.5 1226,-152.5 1232,-146.5 1238,-146.5 1238,-146.5 1372,-146.5 1372,-146.5 1378,-146.5 1384,-152.5 1384,-158.5 1384,-158.5 1384,-170.5 1384,-170.5 1384,-176.5 1378,-182.5 1372,-182.5"/>
<text text-anchor="middle" x="1305" y="-162" font-family="sans" font-size="10.00">preprocess_sampleMetadata</text>
</g>
<!-- 5&#45;&gt;6 -->
<g id="edge15" class="edge">
<title>5&#45;&gt;6</title>
<path fill="none" stroke="grey" stroke-width="2" d="M1247.67,-444.44C1255.07,-409.98 1272.22,-329.63 1286,-262 1290.77,-238.57 1296.01,-211.89 1299.78,-192.53"/>
<polygon fill="grey" stroke="grey" stroke-width="2" points="1303.23,-193.08 1301.7,-182.6 1296.36,-191.75 1303.23,-193.08"/>
</g>
<!-- 6&#45;&gt;0 -->
<g id="edge3" class="edge">
<title>6&#45;&gt;0</title>
<path fill="none" stroke="grey" stroke-width="2" d="M1299.39,-146.49C1294.04,-126.91 1288.72,-94.55 1303,-72 1313.88,-54.82 1331.99,-43.1 1350.52,-35.15"/>
<polygon fill="grey" stroke="grey" stroke-width="2" points="1351.9,-38.37 1359.91,-31.44 1349.32,-31.86 1351.9,-38.37"/>
</g>
<!-- 6&#45;&gt;1 -->
<g id="edge11" class="edge">
<title>6&#45;&gt;1</title>
<path fill="none" stroke="grey" stroke-width="2" d="M1254.56,-146.41C1223.65,-135.94 1183.9,-122.47 1151.34,-111.44"/>
<polygon fill="grey" stroke="grey" stroke-width="2" points="1152.07,-107.99 1141.48,-108.1 1149.82,-114.62 1152.07,-107.99"/>
</g>
<!-- 19 -->
<g id="node20" class="node">
<title>19</title>
<path fill="none" stroke="#c6d856" stroke-width="2" stroke-dasharray="5,2" d="M1770.5,-108C1770.5,-108 1687.5,-108 1687.5,-108 1681.5,-108 1675.5,-102 1675.5,-96 1675.5,-96 1675.5,-84 1675.5,-84 1675.5,-78 1681.5,-72 1687.5,-72 1687.5,-72 1770.5,-72 1770.5,-72 1776.5,-72 1782.5,-78 1782.5,-84 1782.5,-84 1782.5,-96 1782.5,-96 1782.5,-102 1776.5,-108 1770.5,-108"/>
<text text-anchor="middle" x="1729" y="-87.5" font-family="sans" font-size="10.00">make_RNASEQ_SE</text>
</g>
<!-- 6&#45;&gt;19 -->
<g id="edge34" class="edge">
<title>6&#45;&gt;19</title>
<path fill="none" stroke="grey" stroke-width="2" d="M1379.8,-146.46C1384.26,-145.59 1388.69,-144.76 1393,-144 1510.35,-123.3 1544.22,-131.53 1665.45,-107.94"/>
<polygon fill="grey" stroke="grey" stroke-width="2" points="1666.37,-111.33 1675.5,-105.95 1665.01,-104.46 1666.37,-111.33"/>
</g>
<!-- 21 -->
<g id="node22" class="node">
<title>21</title>
<path fill="none" stroke="#d8d356" stroke-width="2" stroke-dasharray="5,2" d="M1386.5,-108C1386.5,-108 1323.5,-108 1323.5,-108 1317.5,-108 1311.5,-102 1311.5,-96 1311.5,-96 1311.5,-84 1311.5,-84 1311.5,-78 1317.5,-72 1323.5,-72 1323.5,-72 1386.5,-72 1386.5,-72 1392.5,-72 1398.5,-78 1398.5,-84 1398.5,-84 1398.5,-96 1398.5,-96 1398.5,-102 1392.5,-108 1386.5,-108"/>
<text text-anchor="middle" x="1355" y="-87.5" font-family="sans" font-size="10.00">make_CNV_SE</text>
</g>
<!-- 6&#45;&gt;21 -->
<g id="edge37" class="edge">
<title>6&#45;&gt;21</title>
<path fill="none" stroke="grey" stroke-width="2" d="M1316.85,-146.32C1323.01,-137.38 1330.67,-126.28 1337.5,-116.37"/>
<polygon fill="grey" stroke="grey" stroke-width="2" points="1340.44,-118.28 1343.24,-108.06 1334.68,-114.3 1340.44,-118.28"/>
</g>
<!-- 23 -->
<g id="node24" class="node">
<title>23</title>
<path fill="none" stroke="#5682d8" stroke-width="2" stroke-dasharray="5,2" d="M1523,-108C1523,-108 1429,-108 1429,-108 1423,-108 1417,-102 1417,-96 1417,-96 1417,-84 1417,-84 1417,-78 1423,-72 1429,-72 1429,-72 1523,-72 1523,-72 1529,-72 1535,-78 1535,-84 1535,-84 1535,-96 1535,-96 1535,-102 1529,-108 1523,-108"/>
<text text-anchor="middle" x="1476" y="-87.5" font-family="sans" font-size="10.00">make_MUTATION_SE</text>
</g>
<!-- 6&#45;&gt;23 -->
<g id="edge40" class="edge">
<title>6&#45;&gt;23</title>
<path fill="none" stroke="grey" stroke-width="2" d="M1345.52,-146.32C1369.8,-136.03 1400.84,-122.87 1426.56,-111.96"/>
<polygon fill="grey" stroke="grey" stroke-width="2" points="1427.93,-115.18 1435.77,-108.06 1425.19,-108.74 1427.93,-115.18"/>
</g>
<!-- 25 -->
<g id="node26" class="node">
<title>25</title>
<path fill="none" stroke="#56d873" stroke-width="2" stroke-dasharray="5,2" d="M1645,-108C1645,-108 1565,-108 1565,-108 1559,-108 1553,-102 1553,-96 1553,-96 1553,-84 1553,-84 1553,-78 1559,-72 1565,-72 1565,-72 1645,-72 1645,-72 1651,-72 1657,-78 1657,-84 1657,-84 1657,-96 1657,-96 1657,-102 1651,-108 1645,-108"/>
<text text-anchor="middle" x="1605" y="-87.5" font-family="sans" font-size="10.00">make_FUSION_SE</text>
</g>
<!-- 6&#45;&gt;25 -->
<g id="edge43" class="edge">
<title>6&#45;&gt;25</title>
<path fill="none" stroke="grey" stroke-width="2" d="M1379.83,-146.5C1433.31,-134.28 1501.66,-118.52 1542.92,-108.21"/>
<polygon fill="grey" stroke="grey" stroke-width="2" points="1543.96,-111.56 1552.8,-105.71 1542.24,-104.77 1543.96,-111.56"/>
</g>
<!-- 7 -->
<g id="node8" class="node">
<title>7</title>
<path fill="none" stroke="#5692d8" stroke-width="2" stroke-dasharray="5,2" d="M1264.5,-262C1264.5,-262 1141.5,-262 1141.5,-262 1135.5,-262 1129.5,-256 1129.5,-250 1129.5,-250 1129.5,-233 1129.5,-233 1129.5,-227 1135.5,-221 1141.5,-221 1141.5,-221 1264.5,-221 1264.5,-221 1270.5,-221 1276.5,-227 1276.5,-233 1276.5,-233 1276.5,-250 1276.5,-250 1276.5,-256 1270.5,-262 1264.5,-262"/>
<text text-anchor="middle" x="1203" y="-250" font-family="sans" font-size="10.00">downloadSampleMetadata</text>
<text text-anchor="middle" x="1203" y="-239" font-family="sans" font-size="10.00">release: 8.4</text>
<text text-anchor="middle" x="1203" y="-228" font-family="sans" font-size="10.00">version: GDSC2</text>
</g>
<!-- 7&#45;&gt;6 -->
<g id="edge14" class="edge">
<title>7&#45;&gt;6</title>
<path fill="none" stroke="grey" stroke-width="2" d="M1229.53,-220.99C1242.93,-211.14 1259.27,-199.12 1273.32,-188.79"/>
<polygon fill="grey" stroke="grey" stroke-width="2" points="1275.74,-191.36 1281.72,-182.61 1271.59,-185.72 1275.74,-191.36"/>
</g>
<!-- 8 -->
<g id="node9" class="node">
<title>8</title>
<path fill="none" stroke="#9fd856" stroke-width="2" stroke-dasharray="5,2" d="M1606,-259.5C1606,-259.5 1424,-259.5 1424,-259.5 1418,-259.5 1412,-253.5 1412,-247.5 1412,-247.5 1412,-235.5 1412,-235.5 1412,-229.5 1418,-223.5 1424,-223.5 1424,-223.5 1606,-223.5 1606,-223.5 1612,-223.5 1618,-229.5 1618,-235.5 1618,-235.5 1618,-247.5 1618,-247.5 1618,-253.5 1612,-259.5 1606,-259.5"/>
<text text-anchor="middle" x="1515" y="-239" font-family="sans" font-size="10.00">downloadCellModelPassportsMetadata</text>
</g>
<!-- 8&#45;&gt;6 -->
<g id="edge16" class="edge">
<title>8&#45;&gt;6</title>
<path fill="none" stroke="grey" stroke-width="2" d="M1467.35,-223.48C1436.18,-212.35 1395.28,-197.74 1362.33,-185.98"/>
<polygon fill="grey" stroke="grey" stroke-width="2" points="1363.42,-182.65 1352.83,-182.58 1361.07,-189.24 1363.42,-182.65"/>
</g>
<!-- 17 -->
<g id="node18" class="node">
<title>17</title>
<path fill="none" stroke="#d86e56" stroke-width="2" stroke-dasharray="5,2" d="M1861,-182.5C1861,-182.5 1733,-182.5 1733,-182.5 1727,-182.5 1721,-176.5 1721,-170.5 1721,-170.5 1721,-158.5 1721,-158.5 1721,-152.5 1727,-146.5 1733,-146.5 1733,-146.5 1861,-146.5 1861,-146.5 1867,-146.5 1873,-152.5 1873,-158.5 1873,-158.5 1873,-170.5 1873,-170.5 1873,-176.5 1867,-182.5 1861,-182.5"/>
<text text-anchor="middle" x="1797" y="-162" font-family="sans" font-size="10.00">preprocess_geneAnnotation</text>
</g>
<!-- 8&#45;&gt;17 -->
<g id="edge31" class="edge">
<title>8&#45;&gt;17</title>
<path fill="none" stroke="grey" stroke-width="2" d="M1578.99,-223.48C1621.75,-212.11 1678.13,-197.12 1722.84,-185.22"/>
<polygon fill="grey" stroke="grey" stroke-width="2" points="1724.01,-188.53 1732.78,-182.58 1722.21,-181.77 1724.01,-188.53"/>
</g>
<!-- 9&#45;&gt;0 -->
<g id="edge2" class="edge">
<title>9&#45;&gt;0</title>
<path fill="none" stroke="grey" stroke-width="2" d="M688.32,-82.66C842.5,-69.16 1201.52,-37.7 1349.47,-24.74"/>
<polygon fill="grey" stroke="grey" stroke-width="2" points="1350.1,-28.2 1359.75,-23.84 1349.49,-21.23 1350.1,-28.2"/>
</g>
<!-- 10 -->
<g id="node11" class="node">
<title>10</title>
<path fill="none" stroke="#88d856" stroke-width="2" d="M691.5,-259.5C691.5,-259.5 564.5,-259.5 564.5,-259.5 558.5,-259.5 552.5,-253.5 552.5,-247.5 552.5,-247.5 552.5,-235.5 552.5,-235.5 552.5,-229.5 558.5,-223.5 564.5,-223.5 564.5,-223.5 691.5,-223.5 691.5,-223.5 697.5,-223.5 703.5,-229.5 703.5,-235.5 703.5,-235.5 703.5,-247.5 703.5,-247.5 703.5,-253.5 697.5,-259.5 691.5,-259.5"/>
<text text-anchor="middle" x="628" y="-244.5" font-family="sans" font-size="10.00">annotate_PubChemCIDS</text>
<text text-anchor="middle" x="628" y="-233.5" font-family="sans" font-size="10.00">annotationType: ChEMBL ID</text>
</g>
<!-- 10&#45;&gt;9 -->
<g id="edge17" class="edge">
<title>10&#45;&gt;9</title>
<path fill="none" stroke="grey" stroke-width="2" d="M632.13,-223.28C636.16,-203.88 641.01,-171.45 636,-144 634.39,-135.2 631.4,-125.95 628.21,-117.7"/>
<polygon fill="grey" stroke="grey" stroke-width="2" points="631.35,-116.12 624.31,-108.21 624.88,-118.79 631.35,-116.12"/>
</g>
<!-- 16 -->
<g id="node17" class="node">
<title>16</title>
<path fill="none" stroke="#d89556" stroke-width="2" d="M615.5,-182.5C615.5,-182.5 534.5,-182.5 534.5,-182.5 528.5,-182.5 522.5,-176.5 522.5,-170.5 522.5,-170.5 522.5,-158.5 522.5,-158.5 522.5,-152.5 528.5,-146.5 534.5,-146.5 534.5,-146.5 615.5,-146.5 615.5,-146.5 621.5,-146.5 627.5,-152.5 627.5,-158.5 627.5,-158.5 627.5,-170.5 627.5,-170.5 627.5,-176.5 621.5,-182.5 615.5,-182.5"/>
<text text-anchor="middle" x="575" y="-162" font-family="sans" font-size="10.00">annotate_ChEMBL</text>
</g>
<!-- 10&#45;&gt;16 -->
<g id="edge30" class="edge">
<title>10&#45;&gt;16</title>
<path fill="none" stroke="grey" stroke-width="2" d="M615.97,-223.48C609.18,-213.86 600.55,-201.66 592.97,-190.92"/>
<polygon fill="grey" stroke="grey" stroke-width="2" points="595.79,-188.86 587.16,-182.71 590.08,-192.9 595.79,-188.86"/>
</g>
<!-- 11&#45;&gt;10 -->
<g id="edge24" class="edge">
<title>11&#45;&gt;10</title>
<path fill="none" stroke="grey" stroke-width="2" d="M565.43,-297.82C576.05,-288.43 589.37,-276.65 600.99,-266.38"/>
<polygon fill="grey" stroke="grey" stroke-width="2" points="603.53,-268.8 608.71,-259.56 598.9,-263.56 603.53,-268.8"/>
</g>
<!-- 12 -->
<g id="node13" class="node">
<title>12</title>
<path fill="none" stroke="#88d856" stroke-width="2" d="M870,-259.5C870,-259.5 734,-259.5 734,-259.5 728,-259.5 722,-253.5 722,-247.5 722,-247.5 722,-235.5 722,-235.5 722,-229.5 728,-223.5 734,-223.5 734,-223.5 870,-223.5 870,-223.5 876,-223.5 882,-229.5 882,-235.5 882,-235.5 882,-247.5 882,-247.5 882,-253.5 876,-259.5 870,-259.5"/>
<text text-anchor="middle" x="802" y="-244.5" font-family="sans" font-size="10.00">annotate_PubChemCIDS</text>
<text text-anchor="middle" x="802" y="-233.5" font-family="sans" font-size="10.00">annotationType: NSC Number</text>
</g>
<!-- 11&#45;&gt;12 -->
<g id="edge26" class="edge">
<title>11&#45;&gt;12</title>
<path fill="none" stroke="grey" stroke-width="2" d="M606.34,-297.91C643.96,-287.26 692.5,-273.51 731.83,-262.37"/>
<polygon fill="grey" stroke="grey" stroke-width="2" points="732.95,-265.69 741.62,-259.6 731.04,-258.96 732.95,-265.69"/>
</g>
<!-- 13 -->
<g id="node14" class="node">
<title>13</title>
<path fill="none" stroke="#88d856" stroke-width="2" d="M208,-259.5C208,-259.5 12,-259.5 12,-259.5 6,-259.5 0,-253.5 0,-247.5 0,-247.5 0,-235.5 0,-235.5 0,-229.5 6,-223.5 12,-223.5 12,-223.5 208,-223.5 208,-223.5 214,-223.5 220,-229.5 220,-235.5 220,-235.5 220,-247.5 220,-247.5 220,-253.5 214,-259.5 208,-259.5"/>
<text text-anchor="middle" x="110" y="-244.5" font-family="sans" font-size="10.00">annotate_PubChemCIDS</text>
<text text-anchor="middle" x="110" y="-233.5" font-family="sans" font-size="10.00">annotationType: Drug Induced Liver Injury</text>
</g>
<!-- 11&#45;&gt;13 -->
<g id="edge27" class="edge">
<title>11&#45;&gt;13</title>
<path fill="none" stroke="grey" stroke-width="2" d="M454.87,-299.85C387.27,-288.61 294.72,-273.22 222.52,-261.21"/>
<polygon fill="grey" stroke="grey" stroke-width="2" points="222.91,-257.73 212.47,-259.54 221.76,-264.63 222.91,-257.73"/>
</g>
<!-- 14 -->
<g id="node15" class="node">
<title>14</title>
<path fill="none" stroke="#88d856" stroke-width="2" d="M361.5,-259.5C361.5,-259.5 250.5,-259.5 250.5,-259.5 244.5,-259.5 238.5,-253.5 238.5,-247.5 238.5,-247.5 238.5,-235.5 238.5,-235.5 238.5,-229.5 244.5,-223.5 250.5,-223.5 250.5,-223.5 361.5,-223.5 361.5,-223.5 367.5,-223.5 373.5,-229.5 373.5,-235.5 373.5,-235.5 373.5,-247.5 373.5,-247.5 373.5,-253.5 367.5,-259.5 361.5,-259.5"/>
<text text-anchor="middle" x="306" y="-244.5" font-family="sans" font-size="10.00">annotate_PubChemCIDS</text>
<text text-anchor="middle" x="306" y="-233.5" font-family="sans" font-size="10.00">annotationType: CAS</text>
</g>
<!-- 11&#45;&gt;14 -->
<g id="edge28" class="edge">
<title>11&#45;&gt;14</title>
<path fill="none" stroke="grey" stroke-width="2" d="M489.43,-297.91C454.32,-287.3 409.04,-273.63 372.25,-262.51"/>
<polygon fill="grey" stroke="grey" stroke-width="2" points="373.19,-259.14 362.61,-259.6 371.17,-265.84 373.19,-259.14"/>
</g>
<!-- 15 -->
<g id="node16" class="node">
<title>15</title>
<path fill="none" stroke="#88d856" stroke-width="2" d="M522.5,-259.5C522.5,-259.5 403.5,-259.5 403.5,-259.5 397.5,-259.5 391.5,-253.5 391.5,-247.5 391.5,-247.5 391.5,-235.5 391.5,-235.5 391.5,-229.5 397.5,-223.5 403.5,-223.5 403.5,-223.5 522.5,-223.5 522.5,-223.5 528.5,-223.5 534.5,-229.5 534.5,-235.5 534.5,-235.5 534.5,-247.5 534.5,-247.5 534.5,-253.5 528.5,-259.5 522.5,-259.5"/>
<text text-anchor="middle" x="463" y="-244.5" font-family="sans" font-size="10.00">annotate_PubChemCIDS</text>
<text text-anchor="middle" x="463" y="-233.5" font-family="sans" font-size="10.00">annotationType: ATC Code</text>
</g>
<!-- 11&#45;&gt;15 -->
<g id="edge29" class="edge">
<title>11&#45;&gt;15</title>
<path fill="none" stroke="grey" stroke-width="2" d="M526.33,-297.82C515.58,-288.43 502.1,-276.65 490.34,-266.38"/>
<polygon fill="grey" stroke="grey" stroke-width="2" points="492.36,-263.5 482.53,-259.56 487.76,-268.77 492.36,-263.5"/>
</g>
<!-- 12&#45;&gt;9 -->
<g id="edge18" class="edge">
<title>12&#45;&gt;9</title>
<path fill="none" stroke="grey" stroke-width="2" d="M780.66,-223.35C747.4,-196.61 683.09,-144.92 645.43,-114.66"/>
<polygon fill="grey" stroke="grey" stroke-width="2" points="647.36,-111.72 637.37,-108.18 642.98,-117.17 647.36,-111.72"/>
</g>
<!-- 13&#45;&gt;9 -->
<g id="edge19" class="edge">
<title>13&#45;&gt;9</title>
<path fill="none" stroke="grey" stroke-width="2" d="M157.36,-223.43C214.47,-203.16 313.59,-168.94 400,-144 443.87,-131.34 493.3,-119.07 533.79,-109.53"/>
<polygon fill="grey" stroke="grey" stroke-width="2" points="534.68,-112.91 543.61,-107.22 533.08,-106.1 534.68,-112.91"/>
</g>
<!-- 14&#45;&gt;9 -->
<g id="edge20" class="edge">
<title>14&#45;&gt;9</title>
<path fill="none" stroke="grey" stroke-width="2" d="M334.39,-223.49C368.71,-203.27 428.54,-169.11 482,-144 506.89,-132.31 535.11,-120.89 559.21,-111.66"/>
<polygon fill="grey" stroke="grey" stroke-width="2" points="560.46,-114.93 568.57,-108.11 557.98,-108.38 560.46,-114.93"/>
</g>
<!-- 15&#45;&gt;9 -->
<g id="edge21" class="edge">
<title>15&#45;&gt;9</title>
<path fill="none" stroke="grey" stroke-width="2" d="M468.32,-223.18C475.52,-202.19 490.15,-166.78 513,-144 525.98,-131.06 542.76,-120.62 559,-112.53"/>
<polygon fill="grey" stroke="grey" stroke-width="2" points="560.93,-115.49 568.47,-108.05 557.94,-109.17 560.93,-115.49"/>
</g>
<!-- 16&#45;&gt;9 -->
<g id="edge22" class="edge">
<title>16&#45;&gt;9</title>
<path fill="none" stroke="grey" stroke-width="2" d="M584.72,-146.32C589.67,-137.56 595.8,-126.73 601.31,-116.97"/>
<polygon fill="grey" stroke="grey" stroke-width="2" points="604.48,-118.49 606.35,-108.06 598.38,-115.04 604.48,-118.49"/>
</g>
<!-- 17&#45;&gt;0 -->
<g id="edge4" class="edge">
<title>17&#45;&gt;0</title>
<path fill="none" stroke="grey" stroke-width="2" d="M1801.88,-146.2C1806.5,-125.73 1810.29,-91.92 1792,-72 1751.24,-27.61 1577.25,-19.57 1480.53,-18.61"/>
<polygon fill="grey" stroke="grey" stroke-width="2" points="1480.3,-15.11 1470.27,-18.54 1480.24,-22.11 1480.3,-15.11"/>
</g>
<!-- 17&#45;&gt;19 -->
<g id="edge35" class="edge">
<title>17&#45;&gt;19</title>
<path fill="none" stroke="grey" stroke-width="2" d="M1780.88,-146.32C1772.25,-137.11 1761.46,-125.6 1751.96,-115.47"/>
<polygon fill="grey" stroke="grey" stroke-width="2" points="1754.39,-112.96 1745,-108.06 1749.29,-117.75 1754.39,-112.96"/>
</g>
<!-- 17&#45;&gt;21 -->
<g id="edge38" class="edge">
<title>17&#45;&gt;21</title>
<path fill="none" stroke="grey" stroke-width="2" d="M1725.23,-146.46C1720.76,-145.58 1716.33,-144.75 1712,-144 1581.09,-121.3 1542.74,-136.18 1408.61,-107.87"/>
<polygon fill="grey" stroke="grey" stroke-width="2" points="1409.29,-104.44 1398.78,-105.76 1407.82,-111.29 1409.29,-104.44"/>
</g>
<!-- 17&#45;&gt;23 -->
<g id="edge41" class="edge">
<title>17&#45;&gt;23</title>
<path fill="none" stroke="grey" stroke-width="2" d="M1722.84,-146.42C1719.18,-145.6 1715.55,-144.79 1712,-144 1640.51,-128.14 1620.04,-125.47 1545.22,-108.24"/>
<polygon fill="grey" stroke="grey" stroke-width="2" points="1545.84,-104.8 1535.31,-105.95 1544.26,-111.62 1545.84,-104.8"/>
</g>
<!-- 17&#45;&gt;25 -->
<g id="edge44" class="edge">
<title>17&#45;&gt;25</title>
<path fill="none" stroke="grey" stroke-width="2" d="M1751.5,-146.32C1724,-135.94 1688.78,-122.63 1659.76,-111.68"/>
<polygon fill="grey" stroke="grey" stroke-width="2" points="1660.77,-108.32 1650.17,-108.06 1658.29,-114.87 1660.77,-108.32"/>
</g>
<!-- 18 -->
<g id="node19" class="node">
<title>18</title>
<path fill="none" stroke="#56d0d8" stroke-width="2" stroke-dasharray="5,2" d="M1867,-259.5C1867,-259.5 1727,-259.5 1727,-259.5 1721,-259.5 1715,-253.5 1715,-247.5 1715,-247.5 1715,-235.5 1715,-235.5 1715,-229.5 1721,-223.5 1727,-223.5 1727,-223.5 1867,-223.5 1867,-223.5 1873,-223.5 1879,-229.5 1879,-235.5 1879,-235.5 1879,-247.5 1879,-247.5 1879,-253.5 1873,-259.5 1867,-259.5"/>
<text text-anchor="middle" x="1797" y="-239" font-family="sans" font-size="10.00">download_EnsemblAnnotation</text>
</g>
<!-- 18&#45;&gt;17 -->
<g id="edge32" class="edge">
<title>18&#45;&gt;17</title>
<path fill="none" stroke="grey" stroke-width="2" d="M1797,-223.48C1797,-214.44 1797,-203.1 1797,-192.85"/>
<polygon fill="grey" stroke="grey" stroke-width="2" points="1800.5,-192.71 1797,-182.71 1793.5,-192.71 1800.5,-192.71"/>
</g>
<!-- 19&#45;&gt;0 -->
<g id="edge5" class="edge">
<title>19&#45;&gt;0</title>
<path fill="none" stroke="grey" stroke-width="2" d="M1675.44,-74.33C1672.25,-73.52 1669.08,-72.74 1666,-72 1603.07,-56.88 1530.71,-41.85 1479.9,-31.68"/>
<polygon fill="grey" stroke="grey" stroke-width="2" points="1480.53,-28.23 1470.04,-29.71 1479.16,-35.1 1480.53,-28.23"/>
</g>
<!-- 20 -->
<g id="node21" class="node">
<title>20</title>
<path fill="none" stroke="#56a9d8" stroke-width="2" stroke-dasharray="5,2" d="M1989,-182.5C1989,-182.5 1903,-182.5 1903,-182.5 1897,-182.5 1891,-176.5 1891,-170.5 1891,-170.5 1891,-158.5 1891,-158.5 1891,-152.5 1897,-146.5 1903,-146.5 1903,-146.5 1989,-146.5 1989,-146.5 1995,-146.5 2001,-152.5 2001,-158.5 2001,-158.5 2001,-170.5 2001,-170.5 2001,-176.5 1995,-182.5 1989,-182.5"/>
<text text-anchor="middle" x="1946" y="-162" font-family="sans" font-size="10.00">download_RNASEQ</text>
</g>
<!-- 20&#45;&gt;19 -->
<g id="edge33" class="edge">
<title>20&#45;&gt;19</title>
<path fill="none" stroke="grey" stroke-width="2" d="M1894.85,-146.41C1863.37,-135.89 1822.86,-122.36 1789.75,-111.3"/>
<polygon fill="grey" stroke="grey" stroke-width="2" points="1790.78,-107.95 1780.18,-108.1 1788.56,-114.59 1790.78,-107.95"/>
</g>
<!-- 21&#45;&gt;0 -->
<g id="edge6" class="edge">
<title>21&#45;&gt;0</title>
<path fill="none" stroke="grey" stroke-width="2" d="M1369.83,-71.7C1377.02,-63.3 1385.8,-53.07 1393.69,-43.86"/>
<polygon fill="grey" stroke="grey" stroke-width="2" points="1396.49,-45.97 1400.34,-36.1 1391.17,-41.42 1396.49,-45.97"/>
</g>
<!-- 22 -->
<g id="node23" class="node">
<title>22</title>
<path fill="none" stroke="#56d8a2" stroke-width="2" stroke-dasharray="5,2" d="M1196,-182.5C1196,-182.5 1080,-182.5 1080,-182.5 1074,-182.5 1068,-176.5 1068,-170.5 1068,-170.5 1068,-158.5 1068,-158.5 1068,-152.5 1074,-146.5 1080,-146.5 1080,-146.5 1196,-146.5 1196,-146.5 1202,-146.5 1208,-152.5 1208,-158.5 1208,-158.5 1208,-170.5 1208,-170.5 1208,-176.5 1202,-182.5 1196,-182.5"/>
<text text-anchor="middle" x="1138" y="-162" font-family="sans" font-size="10.00">download_CNV_WESData</text>
</g>
<!-- 22&#45;&gt;21 -->
<g id="edge36" class="edge">
<title>22&#45;&gt;21</title>
<path fill="none" stroke="grey" stroke-width="2" d="M1189.15,-146.41C1222.91,-135.13 1267.06,-120.38 1301.32,-108.93"/>
<polygon fill="grey" stroke="grey" stroke-width="2" points="1302.78,-112.14 1311.16,-105.65 1300.56,-105.5 1302.78,-112.14"/>
</g>
<!-- 23&#45;&gt;0 -->
<g id="edge7" class="edge">
<title>23&#45;&gt;0</title>
<path fill="none" stroke="grey" stroke-width="2" d="M1460.92,-71.7C1453.61,-63.3 1444.69,-53.07 1436.66,-43.86"/>
<polygon fill="grey" stroke="grey" stroke-width="2" points="1439.11,-41.34 1429.91,-36.1 1433.84,-45.94 1439.11,-41.34"/>
</g>
<!-- 24 -->
<g id="node25" class="node">
<title>24</title>
<path fill="none" stroke="#d85656" stroke-width="2" stroke-dasharray="5,2" d="M1566,-182.5C1566,-182.5 1414,-182.5 1414,-182.5 1408,-182.5 1402,-176.5 1402,-170.5 1402,-170.5 1402,-158.5 1402,-158.5 1402,-152.5 1408,-146.5 1414,-146.5 1414,-146.5 1566,-146.5 1566,-146.5 1572,-146.5 1578,-152.5 1578,-158.5 1578,-158.5 1578,-170.5 1578,-170.5 1578,-176.5 1572,-182.5 1566,-182.5"/>
<text text-anchor="middle" x="1490" y="-162" font-family="sans" font-size="10.00">download_MUTATION_processed</text>
</g>
<!-- 24&#45;&gt;23 -->
<g id="edge39" class="edge">
<title>24&#45;&gt;23</title>
<path fill="none" stroke="grey" stroke-width="2" d="M1486.68,-146.32C1485.04,-137.83 1483.03,-127.39 1481.19,-117.88"/>
<polygon fill="grey" stroke="grey" stroke-width="2" points="1484.63,-117.21 1479.29,-108.06 1477.75,-118.54 1484.63,-117.21"/>
</g>
<!-- 25&#45;&gt;0 -->
<g id="edge8" class="edge">
<title>25&#45;&gt;0</title>
<path fill="none" stroke="grey" stroke-width="2" d="M1558.52,-71.88C1532.08,-62.14 1498.8,-49.87 1470.94,-39.61"/>
<polygon fill="grey" stroke="grey" stroke-width="2" points="1471.92,-36.24 1461.33,-36.07 1469.5,-42.81 1471.92,-36.24"/>
</g>
<!-- 26 -->
<g id="node27" class="node">
<title>26</title>
<path fill="none" stroke="#56d863" stroke-width="2" stroke-dasharray="5,2" d="M1690.5,-182.5C1690.5,-182.5 1607.5,-182.5 1607.5,-182.5 1601.5,-182.5 1595.5,-176.5 1595.5,-170.5 1595.5,-170.5 1595.5,-158.5 1595.5,-158.5 1595.5,-152.5 1601.5,-146.5 1607.5,-146.5 1607.5,-146.5 1690.5,-146.5 1690.5,-146.5 1696.5,-146.5 1702.5,-152.5 1702.5,-158.5 1702.5,-158.5 1702.5,-170.5 1702.5,-170.5 1702.5,-176.5 1696.5,-182.5 1690.5,-182.5"/>
<text text-anchor="middle" x="1649" y="-162" font-family="sans" font-size="10.00">download_FUSION</text>
</g>
<!-- 26&#45;&gt;25 -->
<g id="edge42" class="edge">
<title>26&#45;&gt;25</title>
<path fill="none" stroke="grey" stroke-width="2" d="M1638.57,-146.32C1633.2,-137.47 1626.55,-126.5 1620.58,-116.67"/>
<polygon fill="grey" stroke="grey" stroke-width="2" points="1623.53,-114.79 1615.35,-108.06 1617.55,-118.42 1623.53,-114.79"/>
</g>
</g>
</svg>
