<?xml version="1.0" encoding="UTF-8" standalone="no"?>
<!DOCTYPE svg PUBLIC "-//W3C//DTD SVG 1.1//EN"
 "http://www.w3.org/Graphics/SVG/1.1/DTD/svg11.dtd">
<!-- Generated by graphviz version 2.43.0 (0)
 -->
<!-- Title: snakemake_dag Pages: 1 -->
<svg width="928pt" height="270pt"
 viewBox="0.00 0.00 927.50 270.00" xmlns="http://www.w3.org/2000/svg" xmlns:xlink="http://www.w3.org/1999/xlink">
<g id="graph0" class="graph" transform="scale(1 1) rotate(0) translate(4 266)">
<title>snakemake_dag</title>
<polygon fill="white" stroke="transparent" points="-4,4 -4,-266 923.5,-266 923.5,4 -4,4"/>
<!-- 0 -->
<g id="node1" class="node">
<title>0</title>
<path fill="none" stroke="#56d8a9" stroke-width="2" d="M247.5,-36C247.5,-36 103.5,-36 103.5,-36 97.5,-36 91.5,-30 91.5,-24 91.5,-24 91.5,-12 91.5,-12 91.5,-6 97.5,0 103.5,0 103.5,0 247.5,0 247.5,0 253.5,0 259.5,-6 259.5,-12 259.5,-12 259.5,-24 259.5,-24 259.5,-30 253.5,-36 247.5,-36"/>
<text text-anchor="middle" x="175.5" y="-15.5" font-family="sans" font-size="10.00">process_allTreatmentResponse</text>
</g>
<!-- 1 -->
<g id="node2" class="node">
<title>1</title>
<path fill="none" stroke="#d8ac56" stroke-width="2" d="M249,-108C249,-108 102,-108 102,-108 96,-108 90,-102 90,-96 90,-96 90,-84 90,-84 90,-78 96,-72 102,-72 102,-72 249,-72 249,-72 255,-72 261,-78 261,-84 261,-84 261,-96 261,-96 261,-102 255,-108 249,-108"/>
<text text-anchor="middle" x="175.5" y="-87.5" font-family="sans" font-size="10.00">preprocess_treatmentResponse</text>
</g>
<!-- 1&#45;&gt;0 -->
<g id="edge1" class="edge">
<title>1&#45;&gt;0</title>
<path fill="none" stroke="grey" stroke-width="2" d="M175.5,-71.7C175.5,-63.98 175.5,-54.71 175.5,-46.11"/>
<polygon fill="grey" stroke="grey" stroke-width="2" points="179,-46.1 175.5,-36.1 172,-46.1 179,-46.1"/>
</g>
<!-- 2 -->
<g id="node3" class="node">
<title>2</title>
<path fill="none" stroke="#59d856" stroke-width="2" stroke-dasharray="5,2" d="M153,-185C153,-185 12,-185 12,-185 6,-185 0,-179 0,-173 0,-173 0,-156 0,-156 0,-150 6,-144 12,-144 12,-144 153,-144 153,-144 159,-144 165,-150 165,-156 165,-156 165,-173 165,-173 165,-179 159,-185 153,-185"/>
<text text-anchor="middle" x="82.5" y="-173" font-family="sans" font-size="10.00">download_treatmentResponse</text>
<text text-anchor="middle" x="82.5" y="-162" font-family="sans" font-size="10.00">release: 8.4</text>
<text text-anchor="middle" x="82.5" y="-151" font-family="sans" font-size="10.00">version: GDSC2</text>
</g>
<!-- 2&#45;&gt;1 -->
<g id="edge2" class="edge">
<title>2&#45;&gt;1</title>
<path fill="none" stroke="grey" stroke-width="2" d="M107.91,-143.69C119.54,-134.63 133.39,-123.83 145.52,-114.37"/>
<polygon fill="grey" stroke="grey" stroke-width="2" points="147.86,-116.99 153.59,-108.08 143.55,-111.47 147.86,-116.99"/>
</g>
<!-- 3 -->
<g id="node4" class="node">
<title>3</title>
<path fill="none" stroke="#d6d856" stroke-width="2" stroke-dasharray="5,2" d="M341.5,-182.5C341.5,-182.5 195.5,-182.5 195.5,-182.5 189.5,-182.5 183.5,-176.5 183.5,-170.5 183.5,-170.5 183.5,-158.5 183.5,-158.5 183.5,-152.5 189.5,-146.5 195.5,-146.5 195.5,-146.5 341.5,-146.5 341.5,-146.5 347.5,-146.5 353.5,-152.5 353.5,-158.5 353.5,-158.5 353.5,-170.5 353.5,-170.5 353.5,-176.5 347.5,-182.5 341.5,-182.5"/>
<text text-anchor="middle" x="268.5" y="-162" font-family="sans" font-size="10.00">preprocess_treatmentMetadata</text>
</g>
<!-- 3&#45;&gt;1 -->
<g id="edge3" class="edge">
<title>3&#45;&gt;1</title>
<path fill="none" stroke="grey" stroke-width="2" d="M246.46,-146.32C234.18,-136.75 218.73,-124.7 205.38,-114.29"/>
<polygon fill="grey" stroke="grey" stroke-width="2" points="207.42,-111.45 197.38,-108.06 203.12,-116.97 207.42,-111.45"/>
</g>
<!-- 6 -->
<g id="node7" class="node">
<title>6</title>
<path fill="none" stroke="#56d8d8" stroke-width="2" stroke-dasharray="5,2" d="M499.5,-108C499.5,-108 401.5,-108 401.5,-108 395.5,-108 389.5,-102 389.5,-96 389.5,-96 389.5,-84 389.5,-84 389.5,-78 395.5,-72 401.5,-72 401.5,-72 499.5,-72 499.5,-72 505.5,-72 511.5,-78 511.5,-84 511.5,-84 511.5,-96 511.5,-96 511.5,-102 505.5,-108 499.5,-108"/>
<text text-anchor="middle" x="450.5" y="-87.5" font-family="sans" font-size="10.00">preprocess_metadata</text>
</g>
<!-- 3&#45;&gt;6 -->
<g id="edge6" class="edge">
<title>3&#45;&gt;6</title>
<path fill="none" stroke="grey" stroke-width="2" d="M311.63,-146.32C337.58,-135.98 370.8,-122.75 398.24,-111.82"/>
<polygon fill="grey" stroke="grey" stroke-width="2" points="399.68,-115.01 407.68,-108.06 397.09,-108.51 399.68,-115.01"/>
</g>
<!-- 4 -->
<g id="node5" class="node">
<title>4</title>
<path fill="none" stroke="#d85656" stroke-width="2" stroke-dasharray="5,2" d="M189.5,-262C189.5,-262 53.5,-262 53.5,-262 47.5,-262 41.5,-256 41.5,-250 41.5,-250 41.5,-233 41.5,-233 41.5,-227 47.5,-221 53.5,-221 53.5,-221 189.5,-221 189.5,-221 195.5,-221 201.5,-227 201.5,-233 201.5,-233 201.5,-250 201.5,-250 201.5,-256 195.5,-262 189.5,-262"/>
<text text-anchor="middle" x="121.5" y="-250" font-family="sans" font-size="10.00">downloadTreatmentMetadata</text>
<text text-anchor="middle" x="121.5" y="-239" font-family="sans" font-size="10.00">release: 8.4</text>
<text text-anchor="middle" x="121.5" y="-228" font-family="sans" font-size="10.00">version: GDSC2</text>
</g>
<!-- 4&#45;&gt;3 -->
<g id="edge4" class="edge">
<title>4&#45;&gt;3</title>
<path fill="none" stroke="grey" stroke-width="2" d="M159.74,-220.99C180.04,-210.63 205.05,-197.87 225.97,-187.2"/>
<polygon fill="grey" stroke="grey" stroke-width="2" points="227.64,-190.28 234.96,-182.61 224.46,-184.04 227.64,-190.28"/>
</g>
<!-- 5 -->
<g id="node6" class="node">
<title>5</title>
<path fill="none" stroke="#5682d8" stroke-width="2" stroke-dasharray="5,2" d="M335.5,-259.5C335.5,-259.5 231.5,-259.5 231.5,-259.5 225.5,-259.5 219.5,-253.5 219.5,-247.5 219.5,-247.5 219.5,-235.5 219.5,-235.5 219.5,-229.5 225.5,-223.5 231.5,-223.5 231.5,-223.5 335.5,-223.5 335.5,-223.5 341.5,-223.5 347.5,-229.5 347.5,-235.5 347.5,-235.5 347.5,-247.5 347.5,-247.5 347.5,-253.5 341.5,-259.5 335.5,-259.5"/>
<text text-anchor="middle" x="283.5" y="-239" font-family="sans" font-size="10.00">downloadMappingFiles</text>
</g>
<!-- 5&#45;&gt;3 -->
<g id="edge5" class="edge">
<title>5&#45;&gt;3</title>
<path fill="none" stroke="grey" stroke-width="2" d="M280.1,-223.48C278.27,-214.34 275.97,-202.86 273.91,-192.53"/>
<polygon fill="grey" stroke="grey" stroke-width="2" points="277.34,-191.83 271.94,-182.71 270.47,-193.2 277.34,-191.83"/>
</g>
<!-- 7 -->
<g id="node8" class="node">
<title>7</title>
<path fill="none" stroke="#56a9d8" stroke-width="2" stroke-dasharray="5,2" d="M517.5,-182.5C517.5,-182.5 383.5,-182.5 383.5,-182.5 377.5,-182.5 371.5,-176.5 371.5,-170.5 371.5,-170.5 371.5,-158.5 371.5,-158.5 371.5,-152.5 377.5,-146.5 383.5,-146.5 383.5,-146.5 517.5,-146.5 517.5,-146.5 523.5,-146.5 529.5,-152.5 529.5,-158.5 529.5,-158.5 529.5,-170.5 529.5,-170.5 529.5,-176.5 523.5,-182.5 517.5,-182.5"/>
<text text-anchor="middle" x="450.5" y="-162" font-family="sans" font-size="10.00">preprocess_sampleMetadata</text>
</g>
<!-- 5&#45;&gt;7 -->
<g id="edge10" class="edge">
<title>5&#45;&gt;7</title>
<path fill="none" stroke="grey" stroke-width="2" d="M321.39,-223.48C345.65,-212.59 377.31,-198.37 403.21,-186.74"/>
<polygon fill="grey" stroke="grey" stroke-width="2" points="404.78,-189.87 412.47,-182.58 401.91,-183.49 404.78,-189.87"/>
</g>
<!-- 7&#45;&gt;6 -->
<g id="edge7" class="edge">
<title>7&#45;&gt;6</title>
<path fill="none" stroke="grey" stroke-width="2" d="M450.5,-146.32C450.5,-137.92 450.5,-127.62 450.5,-118.19"/>
<polygon fill="grey" stroke="grey" stroke-width="2" points="454,-118.06 450.5,-108.06 447,-118.06 454,-118.06"/>
</g>
<!-- 8 -->
<g id="node9" class="node">
<title>8</title>
<path fill="none" stroke="#d88556" stroke-width="2" stroke-dasharray="5,2" d="M501,-262C501,-262 378,-262 378,-262 372,-262 366,-256 366,-250 366,-250 366,-233 366,-233 366,-227 372,-221 378,-221 378,-221 501,-221 501,-221 507,-221 513,-227 513,-233 513,-233 513,-250 513,-250 513,-256 507,-262 501,-262"/>
<text text-anchor="middle" x="439.5" y="-250" font-family="sans" font-size="10.00">downloadSampleMetadata</text>
<text text-anchor="middle" x="439.5" y="-239" font-family="sans" font-size="10.00">release: 8.4</text>
<text text-anchor="middle" x="439.5" y="-228" font-family="sans" font-size="10.00">version: GDSC2</text>
</g>
<!-- 8&#45;&gt;7 -->
<g id="edge9" class="edge">
<title>8&#45;&gt;7</title>
<path fill="none" stroke="grey" stroke-width="2" d="M442.39,-220.79C443.65,-212.22 445.14,-202.02 446.5,-192.74"/>
<polygon fill="grey" stroke="grey" stroke-width="2" points="449.98,-193.18 447.97,-182.78 443.05,-192.16 449.98,-193.18"/>
</g>
<!-- 9 -->
<g id="node10" class="node">
<title>9</title>
<path fill="none" stroke="#56d882" stroke-width="2" stroke-dasharray="5,2" d="M725.5,-259.5C725.5,-259.5 543.5,-259.5 543.5,-259.5 537.5,-259.5 531.5,-253.5 531.5,-247.5 531.5,-247.5 531.5,-235.5 531.5,-235.5 531.5,-229.5 537.5,-223.5 543.5,-223.5 543.5,-223.5 725.5,-223.5 725.5,-223.5 731.5,-223.5 737.5,-229.5 737.5,-235.5 737.5,-235.5 737.5,-247.5 737.5,-247.5 737.5,-253.5 731.5,-259.5 725.5,-259.5"/>
<text text-anchor="middle" x="634.5" y="-239" font-family="sans" font-size="10.00">downloadCellModelPassportsMetadata</text>
</g>
<!-- 9&#45;&gt;7 -->
<g id="edge11" class="edge">
<title>9&#45;&gt;7</title>
<path fill="none" stroke="grey" stroke-width="2" d="M592.75,-223.48C565.79,-212.49 530.53,-198.12 501.85,-186.43"/>
<polygon fill="grey" stroke="grey" stroke-width="2" points="502.99,-183.11 492.41,-182.58 500.34,-189.6 502.99,-183.11"/>
</g>
<!-- 10 -->
<g id="node11" class="node">
<title>10</title>
<path fill="none" stroke="#80d856" stroke-width="2" stroke-dasharray="5,2" d="M698.5,-182.5C698.5,-182.5 570.5,-182.5 570.5,-182.5 564.5,-182.5 558.5,-176.5 558.5,-170.5 558.5,-170.5 558.5,-158.5 558.5,-158.5 558.5,-152.5 564.5,-146.5 570.5,-146.5 570.5,-146.5 698.5,-146.5 698.5,-146.5 704.5,-146.5 710.5,-152.5 710.5,-158.5 710.5,-158.5 710.5,-170.5 710.5,-170.5 710.5,-176.5 704.5,-182.5 698.5,-182.5"/>
<text text-anchor="middle" x="634.5" y="-162" font-family="sans" font-size="10.00">preprocess_geneAnnotation</text>
</g>
<!-- 9&#45;&gt;10 -->
<g id="edge12" class="edge">
<title>9&#45;&gt;10</title>
<path fill="none" stroke="grey" stroke-width="2" d="M634.5,-223.48C634.5,-214.44 634.5,-203.1 634.5,-192.85"/>
<polygon fill="grey" stroke="grey" stroke-width="2" points="638,-192.71 634.5,-182.71 631,-192.71 638,-192.71"/>
</g>
<!-- 10&#45;&gt;6 -->
<g id="edge8" class="edge">
<title>10&#45;&gt;6</title>
<path fill="none" stroke="grey" stroke-width="2" d="M590.89,-146.32C564.66,-135.98 531.08,-122.75 503.34,-111.82"/>
<polygon fill="grey" stroke="grey" stroke-width="2" points="504.38,-108.47 493.79,-108.06 501.81,-114.98 504.38,-108.47"/>
</g>
<!-- 11 -->
<g id="node12" class="node">
<title>11</title>
<path fill="none" stroke="#afd856" stroke-width="2" stroke-dasharray="5,2" d="M907.5,-259.5C907.5,-259.5 767.5,-259.5 767.5,-259.5 761.5,-259.5 755.5,-253.5 755.5,-247.5 755.5,-247.5 755.5,-235.5 755.5,-235.5 755.5,-229.5 761.5,-223.5 767.5,-223.5 767.5,-223.5 907.5,-223.5 907.5,-223.5 913.5,-223.5 919.5,-229.5 919.5,-235.5 919.5,-235.5 919.5,-247.5 919.5,-247.5 919.5,-253.5 913.5,-259.5 907.5,-259.5"/>
<text text-anchor="middle" x="837.5" y="-239" font-family="sans" font-size="10.00">download_EnsemblAnnotation</text>
</g>
<!-- 11&#45;&gt;10 -->
<g id="edge13" class="edge">
<title>11&#45;&gt;10</title>
<path fill="none" stroke="grey" stroke-width="2" d="M791.44,-223.48C761.43,-212.4 722.11,-197.87 690.33,-186.13"/>
<polygon fill="grey" stroke="grey" stroke-width="2" points="691.33,-182.76 680.73,-182.58 688.9,-189.33 691.33,-182.76"/>
</g>
</g>
</svg>
