<?xml version="1.0" encoding="UTF-8" standalone="no"?>
<!DOCTYPE svg PUBLIC "-//W3C//DTD SVG 1.1//EN"
 "http://www.w3.org/Graphics/SVG/1.1/DTD/svg11.dtd">
<!-- Generated by graphviz version 2.43.0 (0)
 -->
<!-- Title: snakemake_dag Pages: 1 -->
<svg width="1363pt" height="481pt"
 viewBox="0.00 0.00 1362.50 481.00" xmlns="http://www.w3.org/2000/svg" xmlns:xlink="http://www.w3.org/1999/xlink">
<g id="graph0" class="graph" transform="scale(1 1) rotate(0) translate(4 477)">
<title>snakemake_dag</title>
<polygon fill="white" stroke="transparent" points="-4,4 -4,-477 1358.5,-477 1358.5,4 -4,4"/>
<!-- 0 -->
<g id="node1" class="node">
<title>0</title>
<path fill="none" stroke="#56d882" stroke-width="2" stroke-dasharray="5,2" d="M752.5,-36C752.5,-36 675.5,-36 675.5,-36 669.5,-36 663.5,-30 663.5,-24 663.5,-24 663.5,-12 663.5,-12 663.5,-6 669.5,0 675.5,0 675.5,0 752.5,0 752.5,0 758.5,0 764.5,-6 764.5,-12 764.5,-12 764.5,-24 764.5,-24 764.5,-30 758.5,-36 752.5,-36"/>
<text text-anchor="middle" x="714" y="-15.5" font-family="sans" font-size="10.00">get_Pharmacoset</text>
</g>
<!-- 1 -->
<g id="node2" class="node">
<title>1</title>
<path fill="none" stroke="#d85656" stroke-width="2" stroke-dasharray="5,2" d="M757,-108C757,-108 671,-108 671,-108 665,-108 659,-102 659,-96 659,-96 659,-84 659,-84 659,-78 665,-72 671,-72 671,-72 757,-72 757,-72 763,-72 769,-78 769,-84 769,-84 769,-96 769,-96 769,-102 763,-108 757,-108"/>
<text text-anchor="middle" x="714" y="-87.5" font-family="sans" font-size="10.00">build_Pharmacoset</text>
</g>
<!-- 1&#45;&gt;0 -->
<g id="edge1" class="edge">
<title>1&#45;&gt;0</title>
<path fill="none" stroke="grey" stroke-width="2" d="M714,-71.7C714,-63.98 714,-54.71 714,-46.11"/>
<polygon fill="grey" stroke="grey" stroke-width="2" points="717.5,-46.1 714,-36.1 710.5,-46.1 717.5,-46.1"/>
</g>
<!-- 2 -->
<g id="node3" class="node">
<title>2</title>
<path fill="none" stroke="#d86656" stroke-width="2" stroke-dasharray="5,2" d="M475,-180C475,-180 319,-180 319,-180 313,-180 307,-174 307,-168 307,-168 307,-156 307,-156 307,-150 313,-144 319,-144 319,-144 475,-144 475,-144 481,-144 487,-150 487,-156 487,-156 487,-168 487,-168 487,-174 481,-180 475,-180"/>
<text text-anchor="middle" x="397" y="-159.5" font-family="sans" font-size="10.00">fit_reatmentResponseExperiment</text>
</g>
<!-- 2&#45;&gt;1 -->
<g id="edge2" class="edge">
<title>2&#45;&gt;1</title>
<path fill="none" stroke="grey" stroke-width="2" d="M474.14,-143.97C527.75,-132.13 598.39,-116.53 649.1,-105.33"/>
<polygon fill="grey" stroke="grey" stroke-width="2" points="649.96,-108.73 658.97,-103.15 648.45,-101.89 649.96,-108.73"/>
</g>
<!-- 3 -->
<g id="node4" class="node">
<title>3</title>
<path fill="none" stroke="#d8ac56" stroke-width="2" stroke-dasharray="5,2" d="M482,-252C482,-252 308,-252 308,-252 302,-252 296,-246 296,-240 296,-240 296,-228 296,-228 296,-222 302,-216 308,-216 308,-216 482,-216 482,-216 488,-216 494,-222 494,-228 494,-228 494,-240 494,-240 494,-246 488,-252 482,-252"/>
<text text-anchor="middle" x="395" y="-231.5" font-family="sans" font-size="10.00">build_treatmentResponseExperiment</text>
</g>
<!-- 3&#45;&gt;2 -->
<g id="edge10" class="edge">
<title>3&#45;&gt;2</title>
<path fill="none" stroke="grey" stroke-width="2" d="M395.49,-215.7C395.71,-207.98 395.98,-198.71 396.23,-190.11"/>
<polygon fill="grey" stroke="grey" stroke-width="2" points="399.72,-190.2 396.51,-180.1 392.73,-190 399.72,-190.2"/>
</g>
<!-- 4 -->
<g id="node5" class="node">
<title>4</title>
<path fill="none" stroke="#567bd8" stroke-width="2" stroke-dasharray="5,2" d="M353.5,-329C353.5,-329 212.5,-329 212.5,-329 206.5,-329 200.5,-323 200.5,-317 200.5,-317 200.5,-300 200.5,-300 200.5,-294 206.5,-288 212.5,-288 212.5,-288 353.5,-288 353.5,-288 359.5,-288 365.5,-294 365.5,-300 365.5,-300 365.5,-317 365.5,-317 365.5,-323 359.5,-329 353.5,-329"/>
<text text-anchor="middle" x="283" y="-317" font-family="sans" font-size="10.00">download_treatmentResponse</text>
<text text-anchor="middle" x="283" y="-306" font-family="sans" font-size="10.00">release: 8.4</text>
<text text-anchor="middle" x="283" y="-295" font-family="sans" font-size="10.00">version: GDSC2</text>
</g>
<!-- 4&#45;&gt;3 -->
<g id="edge11" class="edge">
<title>4&#45;&gt;3</title>
<path fill="none" stroke="grey" stroke-width="2" d="M313.31,-287.88C327.71,-278.56 345.02,-267.36 359.98,-257.67"/>
<polygon fill="grey" stroke="grey" stroke-width="2" points="361.99,-260.54 368.48,-252.17 358.18,-254.66 361.99,-260.54"/>
</g>
<!-- 5 -->
<g id="node6" class="node">
<title>5</title>
<path fill="none" stroke="#56c9d8" stroke-width="2" stroke-dasharray="5,2" d="M344,-401C344,-401 198,-401 198,-401 192,-401 186,-395 186,-389 186,-389 186,-377 186,-377 186,-371 192,-365 198,-365 198,-365 344,-365 344,-365 350,-365 356,-371 356,-377 356,-377 356,-389 356,-389 356,-395 350,-401 344,-401"/>
<text text-anchor="middle" x="271" y="-380.5" font-family="sans" font-size="10.00">preprocess_treatmentMetadata</text>
</g>
<!-- 5&#45;&gt;3 -->
<g id="edge12" class="edge">
<title>5&#45;&gt;3</title>
<path fill="none" stroke="grey" stroke-width="2" d="M324.9,-364.92C342.93,-356.72 361.58,-345.07 374,-329 388.73,-309.93 393.53,-282.54 394.91,-262.25"/>
<polygon fill="grey" stroke="grey" stroke-width="2" points="398.42,-262.23 395.37,-252.08 391.42,-261.92 398.42,-262.23"/>
</g>
<!-- 12 -->
<g id="node13" class="node">
<title>12</title>
<path fill="none" stroke="#56d8d0" stroke-width="2" stroke-dasharray="5,2" d="M170,-326.5C170,-326.5 12,-326.5 12,-326.5 6,-326.5 0,-320.5 0,-314.5 0,-314.5 0,-302.5 0,-302.5 0,-296.5 6,-290.5 12,-290.5 12,-290.5 170,-290.5 170,-290.5 176,-290.5 182,-296.5 182,-302.5 182,-302.5 182,-314.5 182,-314.5 182,-320.5 176,-326.5 170,-326.5"/>
<text text-anchor="middle" x="91" y="-306" font-family="sans" font-size="10.00">map_treatments_to_PubChemCID</text>
</g>
<!-- 5&#45;&gt;12 -->
<g id="edge20" class="edge">
<title>5&#45;&gt;12</title>
<path fill="none" stroke="grey" stroke-width="2" d="M228.34,-364.82C202.68,-354.48 169.83,-341.25 142.69,-330.32"/>
<polygon fill="grey" stroke="grey" stroke-width="2" points="143.93,-327.05 133.35,-326.56 141.32,-333.54 143.93,-327.05"/>
</g>
<!-- 6 -->
<g id="node7" class="node">
<title>6</title>
<path fill="none" stroke="#56a9d8" stroke-width="2" stroke-dasharray="5,2" d="M339,-473C339,-473 203,-473 203,-473 197,-473 191,-467 191,-461 191,-461 191,-449 191,-449 191,-443 197,-437 203,-437 203,-437 339,-437 339,-437 345,-437 351,-443 351,-449 351,-449 351,-461 351,-461 351,-467 345,-473 339,-473"/>
<text text-anchor="middle" x="271" y="-458" font-family="sans" font-size="10.00">downloadTreatmentMetadata</text>
<text text-anchor="middle" x="271" y="-447" font-family="sans" font-size="10.00">release: 8.4</text>
</g>
<!-- 6&#45;&gt;5 -->
<g id="edge14" class="edge">
<title>6&#45;&gt;5</title>
<path fill="none" stroke="grey" stroke-width="2" d="M271,-436.7C271,-428.98 271,-419.71 271,-411.11"/>
<polygon fill="grey" stroke="grey" stroke-width="2" points="274.5,-411.1 271,-401.1 267.5,-411.1 274.5,-411.1"/>
</g>
<!-- 7 -->
<g id="node8" class="node">
<title>7</title>
<path fill="none" stroke="#56d892" stroke-width="2" stroke-dasharray="5,2" d="M696,-326.5C696,-326.5 562,-326.5 562,-326.5 556,-326.5 550,-320.5 550,-314.5 550,-314.5 550,-302.5 550,-302.5 550,-296.5 556,-290.5 562,-290.5 562,-290.5 696,-290.5 696,-290.5 702,-290.5 708,-296.5 708,-302.5 708,-302.5 708,-314.5 708,-314.5 708,-320.5 702,-326.5 696,-326.5"/>
<text text-anchor="middle" x="629" y="-306" font-family="sans" font-size="10.00">preprocess_sampleMetadata</text>
</g>
<!-- 7&#45;&gt;3 -->
<g id="edge13" class="edge">
<title>7&#45;&gt;3</title>
<path fill="none" stroke="grey" stroke-width="2" d="M573.84,-290.41C539.75,-279.85 495.84,-266.24 460.06,-255.16"/>
<polygon fill="grey" stroke="grey" stroke-width="2" points="460.78,-251.72 450.19,-252.1 458.71,-258.4 460.78,-251.72"/>
</g>
<!-- 13 -->
<g id="node14" class="node">
<title>13</title>
<path fill="none" stroke="#568ad8" stroke-width="2" stroke-dasharray="5,2" d="M647.5,-180C647.5,-180 522.5,-180 522.5,-180 516.5,-180 510.5,-174 510.5,-168 510.5,-168 510.5,-156 510.5,-156 510.5,-150 516.5,-144 522.5,-144 522.5,-144 647.5,-144 647.5,-144 653.5,-144 659.5,-150 659.5,-156 659.5,-156 659.5,-168 659.5,-168 659.5,-174 653.5,-180 647.5,-180"/>
<text text-anchor="middle" x="585" y="-159.5" font-family="sans" font-size="10.00">annotate_SampleMetadata</text>
</g>
<!-- 7&#45;&gt;13 -->
<g id="edge21" class="edge">
<title>7&#45;&gt;13</title>
<path fill="none" stroke="grey" stroke-width="2" d="M602.41,-290.27C590.08,-280.65 576.7,-267.49 570,-252 561.4,-232.1 566.48,-207.71 572.96,-189.5"/>
<polygon fill="grey" stroke="grey" stroke-width="2" points="576.26,-190.67 576.63,-180.08 569.74,-188.13 576.26,-190.67"/>
</g>
<!-- 16 -->
<g id="node17" class="node">
<title>16</title>
<path fill="none" stroke="#5663d8" stroke-width="2" stroke-dasharray="5,2" d="M674.5,-252C674.5,-252 591.5,-252 591.5,-252 585.5,-252 579.5,-246 579.5,-240 579.5,-240 579.5,-228 579.5,-228 579.5,-222 585.5,-216 591.5,-216 591.5,-216 674.5,-216 674.5,-216 680.5,-216 686.5,-222 686.5,-228 686.5,-228 686.5,-240 686.5,-240 686.5,-246 680.5,-252 674.5,-252"/>
<text text-anchor="middle" x="633" y="-231.5" font-family="sans" font-size="10.00">make_RNASEQ_SE</text>
</g>
<!-- 7&#45;&gt;16 -->
<g id="edge25" class="edge">
<title>7&#45;&gt;16</title>
<path fill="none" stroke="grey" stroke-width="2" d="M629.95,-290.32C630.41,-281.92 630.98,-271.62 631.5,-262.19"/>
<polygon fill="grey" stroke="grey" stroke-width="2" points="635,-262.24 632.06,-252.06 628.01,-261.85 635,-262.24"/>
</g>
<!-- 18 -->
<g id="node19" class="node">
<title>18</title>
<path fill="none" stroke="#56d8c1" stroke-width="2" stroke-dasharray="5,2" d="M779.5,-252C779.5,-252 716.5,-252 716.5,-252 710.5,-252 704.5,-246 704.5,-240 704.5,-240 704.5,-228 704.5,-228 704.5,-222 710.5,-216 716.5,-216 716.5,-216 779.5,-216 779.5,-216 785.5,-216 791.5,-222 791.5,-228 791.5,-228 791.5,-240 791.5,-240 791.5,-246 785.5,-252 779.5,-252"/>
<text text-anchor="middle" x="748" y="-231.5" font-family="sans" font-size="10.00">make_CNV_SE</text>
</g>
<!-- 7&#45;&gt;18 -->
<g id="edge28" class="edge">
<title>7&#45;&gt;18</title>
<path fill="none" stroke="grey" stroke-width="2" d="M657.2,-290.32C673.36,-280.48 693.81,-268.01 711.22,-257.41"/>
<polygon fill="grey" stroke="grey" stroke-width="2" points="713.28,-260.25 720,-252.06 709.64,-254.27 713.28,-260.25"/>
</g>
<!-- 20 -->
<g id="node21" class="node">
<title>20</title>
<path fill="none" stroke="#d6d856" stroke-width="2" stroke-dasharray="5,2" d="M916,-252C916,-252 822,-252 822,-252 816,-252 810,-246 810,-240 810,-240 810,-228 810,-228 810,-222 816,-216 822,-216 822,-216 916,-216 916,-216 922,-216 928,-222 928,-228 928,-228 928,-240 928,-240 928,-246 922,-252 916,-252"/>
<text text-anchor="middle" x="869" y="-231.5" font-family="sans" font-size="10.00">make_MUTATION_SE</text>
</g>
<!-- 7&#45;&gt;20 -->
<g id="edge31" class="edge">
<title>7&#45;&gt;20</title>
<path fill="none" stroke="grey" stroke-width="2" d="M685.57,-290.41C720.68,-279.8 765.96,-266.13 802.75,-255.01"/>
<polygon fill="grey" stroke="grey" stroke-width="2" points="803.83,-258.34 812.39,-252.1 801.81,-251.64 803.83,-258.34"/>
</g>
<!-- 22 -->
<g id="node23" class="node">
<title>22</title>
<path fill="none" stroke="#56d873" stroke-width="2" stroke-dasharray="5,2" d="M1076,-252C1076,-252 996,-252 996,-252 990,-252 984,-246 984,-240 984,-240 984,-228 984,-228 984,-222 990,-216 996,-216 996,-216 1076,-216 1076,-216 1082,-216 1088,-222 1088,-228 1088,-228 1088,-240 1088,-240 1088,-246 1082,-252 1076,-252"/>
<text text-anchor="middle" x="1036" y="-231.5" font-family="sans" font-size="10.00">make_FUSION_SE</text>
</g>
<!-- 7&#45;&gt;22 -->
<g id="edge34" class="edge">
<title>7&#45;&gt;22</title>
<path fill="none" stroke="grey" stroke-width="2" d="M704.79,-290.42C708.91,-289.58 713,-288.77 717,-288 814.29,-269.28 839.29,-268.38 937,-252 948.89,-250.01 961.58,-247.85 973.77,-245.76"/>
<polygon fill="grey" stroke="grey" stroke-width="2" points="974.6,-249.17 983.86,-244.03 973.42,-242.27 974.6,-249.17"/>
</g>
<!-- 8 -->
<g id="node9" class="node">
<title>8</title>
<path fill="none" stroke="#d89c56" stroke-width="2" stroke-dasharray="5,2" d="M656.5,-401C656.5,-401 533.5,-401 533.5,-401 527.5,-401 521.5,-395 521.5,-389 521.5,-389 521.5,-377 521.5,-377 521.5,-371 527.5,-365 533.5,-365 533.5,-365 656.5,-365 656.5,-365 662.5,-365 668.5,-371 668.5,-377 668.5,-377 668.5,-389 668.5,-389 668.5,-395 662.5,-401 656.5,-401"/>
<text text-anchor="middle" x="595" y="-386" font-family="sans" font-size="10.00">downloadSampleMetadata</text>
<text text-anchor="middle" x="595" y="-375" font-family="sans" font-size="10.00">release: 8.4</text>
</g>
<!-- 8&#45;&gt;7 -->
<g id="edge15" class="edge">
<title>8&#45;&gt;7</title>
<path fill="none" stroke="grey" stroke-width="2" d="M603.06,-364.82C607.12,-356.15 612.14,-345.45 616.68,-335.78"/>
<polygon fill="grey" stroke="grey" stroke-width="2" points="619.92,-337.1 621,-326.56 613.59,-334.13 619.92,-337.1"/>
</g>
<!-- 9 -->
<g id="node10" class="node">
<title>9</title>
<path fill="none" stroke="#9fd856" stroke-width="2" stroke-dasharray="5,2" d="M881,-401C881,-401 699,-401 699,-401 693,-401 687,-395 687,-389 687,-389 687,-377 687,-377 687,-371 693,-365 699,-365 699,-365 881,-365 881,-365 887,-365 893,-371 893,-377 893,-377 893,-389 893,-389 893,-395 887,-401 881,-401"/>
<text text-anchor="middle" x="790" y="-380.5" font-family="sans" font-size="10.00">downloadCellModelPassportsMetadata</text>
</g>
<!-- 9&#45;&gt;7 -->
<g id="edge16" class="edge">
<title>9&#45;&gt;7</title>
<path fill="none" stroke="grey" stroke-width="2" d="M751.85,-364.82C729.19,-354.62 700.27,-341.6 676.19,-330.75"/>
<polygon fill="grey" stroke="grey" stroke-width="2" points="677.44,-327.47 666.88,-326.56 674.56,-333.86 677.44,-327.47"/>
</g>
<!-- 14 -->
<g id="node15" class="node">
<title>14</title>
<path fill="none" stroke="#61d856" stroke-width="2" stroke-dasharray="5,2" d="M1024,-326.5C1024,-326.5 896,-326.5 896,-326.5 890,-326.5 884,-320.5 884,-314.5 884,-314.5 884,-302.5 884,-302.5 884,-296.5 890,-290.5 896,-290.5 896,-290.5 1024,-290.5 1024,-290.5 1030,-290.5 1036,-296.5 1036,-302.5 1036,-302.5 1036,-314.5 1036,-314.5 1036,-320.5 1030,-326.5 1024,-326.5"/>
<text text-anchor="middle" x="960" y="-306" font-family="sans" font-size="10.00">preprocess_geneAnnotation</text>
</g>
<!-- 9&#45;&gt;14 -->
<g id="edge22" class="edge">
<title>9&#45;&gt;14</title>
<path fill="none" stroke="grey" stroke-width="2" d="M830.29,-364.82C854.32,-354.57 885.01,-341.48 910.51,-330.61"/>
<polygon fill="grey" stroke="grey" stroke-width="2" points="912.18,-333.7 920,-326.56 909.43,-327.26 912.18,-333.7"/>
</g>
<!-- 10 -->
<g id="node11" class="node">
<title>10</title>
<path fill="none" stroke="#d8bc56" stroke-width="2" stroke-dasharray="5,2" d="M255.5,-180C255.5,-180 88.5,-180 88.5,-180 82.5,-180 76.5,-174 76.5,-168 76.5,-168 76.5,-156 76.5,-156 76.5,-150 82.5,-144 88.5,-144 88.5,-144 255.5,-144 255.5,-144 261.5,-144 267.5,-150 267.5,-156 267.5,-156 267.5,-168 267.5,-168 267.5,-174 261.5,-180 255.5,-180"/>
<text text-anchor="middle" x="172" y="-159.5" font-family="sans" font-size="10.00">combine_annotated_treatmentData</text>
</g>
<!-- 10&#45;&gt;1 -->
<g id="edge3" class="edge">
<title>10&#45;&gt;1</title>
<path fill="none" stroke="grey" stroke-width="2" d="M267.62,-148.02C277.87,-146.65 288.15,-145.29 298,-144 421.92,-127.75 566.69,-109.46 648.64,-99.18"/>
<polygon fill="grey" stroke="grey" stroke-width="2" points="649.32,-102.62 658.8,-97.9 648.45,-95.67 649.32,-102.62"/>
</g>
<!-- 11 -->
<g id="node12" class="node">
<title>11</title>
<path fill="none" stroke="#8fd856" stroke-width="2" stroke-dasharray="5,2" d="M212.5,-252C212.5,-252 131.5,-252 131.5,-252 125.5,-252 119.5,-246 119.5,-240 119.5,-240 119.5,-228 119.5,-228 119.5,-222 125.5,-216 131.5,-216 131.5,-216 212.5,-216 212.5,-216 218.5,-216 224.5,-222 224.5,-228 224.5,-228 224.5,-240 224.5,-240 224.5,-246 218.5,-252 212.5,-252"/>
<text text-anchor="middle" x="172" y="-231.5" font-family="sans" font-size="10.00">annotate_ChEMBL</text>
</g>
<!-- 11&#45;&gt;10 -->
<g id="edge17" class="edge">
<title>11&#45;&gt;10</title>
<path fill="none" stroke="grey" stroke-width="2" d="M172,-215.7C172,-207.98 172,-198.71 172,-190.11"/>
<polygon fill="grey" stroke="grey" stroke-width="2" points="175.5,-190.1 172,-180.1 168.5,-190.1 175.5,-190.1"/>
</g>
<!-- 12&#45;&gt;10 -->
<g id="edge18" class="edge">
<title>12&#45;&gt;10</title>
<path fill="none" stroke="grey" stroke-width="2" d="M91.29,-290.47C92.32,-271.15 96.21,-239.32 110,-216 116.71,-204.65 126.74,-194.55 136.79,-186.28"/>
<polygon fill="grey" stroke="grey" stroke-width="2" points="139.05,-188.96 144.79,-180.06 134.75,-183.44 139.05,-188.96"/>
</g>
<!-- 12&#45;&gt;11 -->
<g id="edge19" class="edge">
<title>12&#45;&gt;11</title>
<path fill="none" stroke="grey" stroke-width="2" d="M110.2,-290.32C120.69,-280.93 133.84,-269.15 145.32,-258.88"/>
<polygon fill="grey" stroke="grey" stroke-width="2" points="147.82,-261.34 152.94,-252.06 143.16,-256.12 147.82,-261.34"/>
</g>
<!-- 13&#45;&gt;1 -->
<g id="edge4" class="edge">
<title>13&#45;&gt;1</title>
<path fill="none" stroke="grey" stroke-width="2" d="M616.56,-143.88C633.66,-134.6 654.98,-123.03 673.32,-113.08"/>
<polygon fill="grey" stroke="grey" stroke-width="2" points="675.2,-116.04 682.32,-108.19 671.86,-109.88 675.2,-116.04"/>
</g>
<!-- 14&#45;&gt;1 -->
<g id="edge5" class="edge">
<title>14&#45;&gt;1</title>
<path fill="none" stroke="grey" stroke-width="2" d="M959.64,-290.24C958.4,-270.43 953.72,-237.85 937,-216 897.22,-164.01 829.26,-130.43 778.79,-111.31"/>
<polygon fill="grey" stroke="grey" stroke-width="2" points="779.85,-107.97 769.26,-107.79 777.43,-114.54 779.85,-107.97"/>
</g>
<!-- 14&#45;&gt;16 -->
<g id="edge26" class="edge">
<title>14&#45;&gt;16</title>
<path fill="none" stroke="grey" stroke-width="2" d="M886.31,-290.46C882.49,-289.62 878.7,-288.79 875,-288 798.35,-271.55 776.11,-270.83 696.69,-252.32"/>
<polygon fill="grey" stroke="grey" stroke-width="2" points="697.25,-248.86 686.71,-249.97 695.64,-255.67 697.25,-248.86"/>
</g>
<!-- 14&#45;&gt;18 -->
<g id="edge29" class="edge">
<title>14&#45;&gt;18</title>
<path fill="none" stroke="grey" stroke-width="2" d="M910.03,-290.41C877.27,-279.21 834.5,-264.58 801.12,-253.17"/>
<polygon fill="grey" stroke="grey" stroke-width="2" points="802.13,-249.81 791.53,-249.89 799.86,-256.44 802.13,-249.81"/>
</g>
<!-- 14&#45;&gt;20 -->
<g id="edge32" class="edge">
<title>14&#45;&gt;20</title>
<path fill="none" stroke="grey" stroke-width="2" d="M938.43,-290.32C926.42,-280.75 911.3,-268.7 898.23,-258.29"/>
<polygon fill="grey" stroke="grey" stroke-width="2" points="900.41,-255.55 890.41,-252.06 896.05,-261.03 900.41,-255.55"/>
</g>
<!-- 14&#45;&gt;22 -->
<g id="edge35" class="edge">
<title>14&#45;&gt;22</title>
<path fill="none" stroke="grey" stroke-width="2" d="M978.01,-290.32C987.76,-281.02 999.96,-269.38 1010.66,-259.18"/>
<polygon fill="grey" stroke="grey" stroke-width="2" points="1013.3,-261.49 1018.12,-252.06 1008.47,-256.43 1013.3,-261.49"/>
</g>
<!-- 15 -->
<g id="node16" class="node">
<title>15</title>
<path fill="none" stroke="#569ad8" stroke-width="2" stroke-dasharray="5,2" d="M1063,-401C1063,-401 923,-401 923,-401 917,-401 911,-395 911,-389 911,-389 911,-377 911,-377 911,-371 917,-365 923,-365 923,-365 1063,-365 1063,-365 1069,-365 1075,-371 1075,-377 1075,-377 1075,-389 1075,-389 1075,-395 1069,-401 1063,-401"/>
<text text-anchor="middle" x="993" y="-380.5" font-family="sans" font-size="10.00">download_EnsemblAnnotation</text>
</g>
<!-- 15&#45;&gt;14 -->
<g id="edge23" class="edge">
<title>15&#45;&gt;14</title>
<path fill="none" stroke="grey" stroke-width="2" d="M985.18,-364.82C981.23,-356.15 976.36,-345.45 971.96,-335.78"/>
<polygon fill="grey" stroke="grey" stroke-width="2" points="975.09,-334.21 967.76,-326.56 968.72,-337.11 975.09,-334.21"/>
</g>
<!-- 16&#45;&gt;1 -->
<g id="edge6" class="edge">
<title>16&#45;&gt;1</title>
<path fill="none" stroke="grey" stroke-width="2" d="M645.15,-215.63C652.11,-205.43 660.86,-192.18 668,-180 680.1,-159.36 692.48,-135.21 701.34,-117.28"/>
<polygon fill="grey" stroke="grey" stroke-width="2" points="704.62,-118.54 705.88,-108.02 698.33,-115.46 704.62,-118.54"/>
</g>
<!-- 17 -->
<g id="node18" class="node">
<title>17</title>
<path fill="none" stroke="#d88556" stroke-width="2" stroke-dasharray="5,2" d="M520,-326.5C520,-326.5 434,-326.5 434,-326.5 428,-326.5 422,-320.5 422,-314.5 422,-314.5 422,-302.5 422,-302.5 422,-296.5 428,-290.5 434,-290.5 434,-290.5 520,-290.5 520,-290.5 526,-290.5 532,-296.5 532,-302.5 532,-302.5 532,-314.5 532,-314.5 532,-320.5 526,-326.5 520,-326.5"/>
<text text-anchor="middle" x="477" y="-306" font-family="sans" font-size="10.00">download_RNASEQ</text>
</g>
<!-- 17&#45;&gt;16 -->
<g id="edge24" class="edge">
<title>17&#45;&gt;16</title>
<path fill="none" stroke="grey" stroke-width="2" d="M513.97,-290.32C535.83,-280.16 563.69,-267.21 586.96,-256.39"/>
<polygon fill="grey" stroke="grey" stroke-width="2" points="588.7,-259.45 596.3,-252.06 585.75,-253.1 588.7,-259.45"/>
</g>
<!-- 18&#45;&gt;1 -->
<g id="edge7" class="edge">
<title>18&#45;&gt;1</title>
<path fill="none" stroke="grey" stroke-width="2" d="M743.9,-215.87C738.08,-191.56 727.37,-146.82 720.47,-118.01"/>
<polygon fill="grey" stroke="grey" stroke-width="2" points="723.85,-117.1 718.12,-108.19 717.04,-118.73 723.85,-117.1"/>
</g>
<!-- 19 -->
<g id="node20" class="node">
<title>19</title>
<path fill="none" stroke="#d87556" stroke-width="2" stroke-dasharray="5,2" d="M854,-326.5C854,-326.5 738,-326.5 738,-326.5 732,-326.5 726,-320.5 726,-314.5 726,-314.5 726,-302.5 726,-302.5 726,-296.5 732,-290.5 738,-290.5 738,-290.5 854,-290.5 854,-290.5 860,-290.5 866,-296.5 866,-302.5 866,-302.5 866,-314.5 866,-314.5 866,-320.5 860,-326.5 854,-326.5"/>
<text text-anchor="middle" x="796" y="-306" font-family="sans" font-size="10.00">download_CNV_WESData</text>
</g>
<!-- 19&#45;&gt;18 -->
<g id="edge27" class="edge">
<title>19&#45;&gt;18</title>
<path fill="none" stroke="grey" stroke-width="2" d="M784.62,-290.32C778.77,-281.47 771.51,-270.5 765,-260.67"/>
<polygon fill="grey" stroke="grey" stroke-width="2" points="767.73,-258.46 759.29,-252.06 761.9,-262.33 767.73,-258.46"/>
</g>
<!-- 20&#45;&gt;1 -->
<g id="edge8" class="edge">
<title>20&#45;&gt;1</title>
<path fill="none" stroke="grey" stroke-width="2" d="M850.3,-215.87C822.84,-190.71 771.47,-143.65 740.24,-115.04"/>
<polygon fill="grey" stroke="grey" stroke-width="2" points="742.5,-112.36 732.76,-108.19 737.77,-117.53 742.5,-112.36"/>
</g>
<!-- 21 -->
<g id="node22" class="node">
<title>21</title>
<path fill="none" stroke="#80d856" stroke-width="2" stroke-dasharray="5,2" d="M1218,-326.5C1218,-326.5 1066,-326.5 1066,-326.5 1060,-326.5 1054,-320.5 1054,-314.5 1054,-314.5 1054,-302.5 1054,-302.5 1054,-296.5 1060,-290.5 1066,-290.5 1066,-290.5 1218,-290.5 1218,-290.5 1224,-290.5 1230,-296.5 1230,-302.5 1230,-302.5 1230,-314.5 1230,-314.5 1230,-320.5 1224,-326.5 1218,-326.5"/>
<text text-anchor="middle" x="1142" y="-306" font-family="sans" font-size="10.00">download_MUTATION_processed</text>
</g>
<!-- 21&#45;&gt;20 -->
<g id="edge30" class="edge">
<title>21&#45;&gt;20</title>
<path fill="none" stroke="grey" stroke-width="2" d="M1077.65,-290.41C1035.68,-279.26 980.93,-264.73 938.05,-253.34"/>
<polygon fill="grey" stroke="grey" stroke-width="2" points="938.82,-249.92 928.26,-250.74 937.02,-256.69 938.82,-249.92"/>
</g>
<!-- 22&#45;&gt;1 -->
<g id="edge9" class="edge">
<title>22&#45;&gt;1</title>
<path fill="none" stroke="grey" stroke-width="2" d="M1028.17,-215.94C1017.86,-195.47 997.72,-161.71 970,-144 912.51,-107.28 834.27,-95.41 779.47,-91.86"/>
<polygon fill="grey" stroke="grey" stroke-width="2" points="779.36,-88.35 769.18,-91.28 778.97,-95.34 779.36,-88.35"/>
</g>
<!-- 23 -->
<g id="node24" class="node">
<title>23</title>
<path fill="none" stroke="#c6d856" stroke-width="2" stroke-dasharray="5,2" d="M1342.5,-326.5C1342.5,-326.5 1259.5,-326.5 1259.5,-326.5 1253.5,-326.5 1247.5,-320.5 1247.5,-314.5 1247.5,-314.5 1247.5,-302.5 1247.5,-302.5 1247.5,-296.5 1253.5,-290.5 1259.5,-290.5 1259.5,-290.5 1342.5,-290.5 1342.5,-290.5 1348.5,-290.5 1354.5,-296.5 1354.5,-302.5 1354.5,-302.5 1354.5,-314.5 1354.5,-314.5 1354.5,-320.5 1348.5,-326.5 1342.5,-326.5"/>
<text text-anchor="middle" x="1301" y="-306" font-family="sans" font-size="10.00">download_FUSION</text>
</g>
<!-- 23&#45;&gt;22 -->
<g id="edge33" class="edge">
<title>23&#45;&gt;22</title>
<path fill="none" stroke="grey" stroke-width="2" d="M1247.28,-290.43C1244.48,-289.59 1241.71,-288.78 1239,-288 1192.05,-274.5 1138.57,-260.59 1098.29,-250.42"/>
<polygon fill="grey" stroke="grey" stroke-width="2" points="1098.9,-246.96 1088.35,-247.91 1097.19,-253.75 1098.9,-246.96"/>
</g>
</g>
</svg>
