<?xml version="1.0" encoding="UTF-8" standalone="no"?>
<!DOCTYPE svg PUBLIC "-//W3C//DTD SVG 1.1//EN"
 "http://www.w3.org/Graphics/SVG/1.1/DTD/svg11.dtd">
<!-- Generated by graphviz version 2.43.0 (0)
 -->
<!-- Title: snakemake_dag Pages: 1 -->
<svg width="2240pt" height="491pt"
 viewBox="0.00 0.00 2240.00 491.00" xmlns="http://www.w3.org/2000/svg" xmlns:xlink="http://www.w3.org/1999/xlink">
<g id="graph0" class="graph" transform="scale(1 1) rotate(0) translate(4 487)">
<title>snakemake_dag</title>
<polygon fill="white" stroke="transparent" points="-4,4 -4,-487 2236,-487 2236,4 -4,4"/>
<!-- 0 -->
<g id="node1" class="node">
<title>0</title>
<path fill="none" stroke="#566bd8" stroke-width="2" d="M1702.5,-36C1702.5,-36 1616.5,-36 1616.5,-36 1610.5,-36 1604.5,-30 1604.5,-24 1604.5,-24 1604.5,-12 1604.5,-12 1604.5,-6 1610.5,0 1616.5,0 1616.5,0 1702.5,0 1702.5,0 1708.5,0 1714.5,-6 1714.5,-12 1714.5,-12 1714.5,-24 1714.5,-24 1714.5,-30 1708.5,-36 1702.5,-36"/>
<text text-anchor="middle" x="1659.5" y="-15.5" font-family="sans" font-size="10.00">build_Pharmacoset</text>
</g>
<!-- 1 -->
<g id="node2" class="node">
<title>1</title>
<path fill="none" stroke="#70d856" stroke-width="2" stroke-dasharray="5,2" d="M1208.5,-108C1208.5,-108 1034.5,-108 1034.5,-108 1028.5,-108 1022.5,-102 1022.5,-96 1022.5,-96 1022.5,-84 1022.5,-84 1022.5,-78 1028.5,-72 1034.5,-72 1034.5,-72 1208.5,-72 1208.5,-72 1214.5,-72 1220.5,-78 1220.5,-84 1220.5,-84 1220.5,-96 1220.5,-96 1220.5,-102 1214.5,-108 1208.5,-108"/>
<text text-anchor="middle" x="1121.5" y="-87.5" font-family="sans" font-size="10.00">build_treatmentResponseExperiment</text>
</g>
<!-- 1&#45;&gt;0 -->
<g id="edge1" class="edge">
<title>1&#45;&gt;0</title>
<path fill="none" stroke="grey" stroke-width="2" d="M1220.8,-76.08C1329.67,-61.91 1501.21,-39.6 1594.25,-27.49"/>
<polygon fill="grey" stroke="grey" stroke-width="2" points="1594.91,-30.93 1604.37,-26.17 1594,-23.99 1594.91,-30.93"/>
</g>
<!-- 2 -->
<g id="node3" class="node">
<title>2</title>
<path fill="none" stroke="#56d863" stroke-width="2" stroke-dasharray="5,2" d="M1129,-185C1129,-185 988,-185 988,-185 982,-185 976,-179 976,-173 976,-173 976,-156 976,-156 976,-150 982,-144 988,-144 988,-144 1129,-144 1129,-144 1135,-144 1141,-150 1141,-156 1141,-156 1141,-173 1141,-173 1141,-179 1135,-185 1129,-185"/>
<text text-anchor="middle" x="1058.5" y="-173" font-family="sans" font-size="10.00">download_treatmentResponse</text>
<text text-anchor="middle" x="1058.5" y="-162" font-family="sans" font-size="10.00">release: 8.4</text>
<text text-anchor="middle" x="1058.5" y="-151" font-family="sans" font-size="10.00">version: GDSC2</text>
</g>
<!-- 2&#45;&gt;1 -->
<g id="edge9" class="edge">
<title>2&#45;&gt;1</title>
<path fill="none" stroke="grey" stroke-width="2" d="M1075.72,-143.69C1083.15,-135.13 1091.94,-125.02 1099.82,-115.95"/>
<polygon fill="grey" stroke="grey" stroke-width="2" points="1102.53,-118.16 1106.45,-108.32 1097.25,-113.57 1102.53,-118.16"/>
</g>
<!-- 3 -->
<g id="node4" class="node">
<title>3</title>
<path fill="none" stroke="#d86656" stroke-width="2" stroke-dasharray="5,2" d="M1001.5,-406C1001.5,-406 855.5,-406 855.5,-406 849.5,-406 843.5,-400 843.5,-394 843.5,-394 843.5,-382 843.5,-382 843.5,-376 849.5,-370 855.5,-370 855.5,-370 1001.5,-370 1001.5,-370 1007.5,-370 1013.5,-376 1013.5,-382 1013.5,-382 1013.5,-394 1013.5,-394 1013.5,-400 1007.5,-406 1001.5,-406"/>
<text text-anchor="middle" x="928.5" y="-385.5" font-family="sans" font-size="10.00">preprocess_treatmentMetadata</text>
</g>
<!-- 3&#45;&gt;1 -->
<g id="edge10" class="edge">
<title>3&#45;&gt;1</title>
<path fill="none" stroke="grey" stroke-width="2" d="M928.94,-369.96C930.54,-320.53 937.61,-178.42 966.5,-144 978.8,-129.35 995.34,-118.73 1013.04,-111.05"/>
<polygon fill="grey" stroke="grey" stroke-width="2" points="1014.41,-114.27 1022.39,-107.29 1011.8,-107.77 1014.41,-114.27"/>
</g>
<!-- 9 -->
<g id="node10" class="node">
<title>9</title>
<path fill="none" stroke="#5692d8" stroke-width="2" stroke-dasharray="5,2" d="M522.5,-108C522.5,-108 402.5,-108 402.5,-108 396.5,-108 390.5,-102 390.5,-96 390.5,-96 390.5,-84 390.5,-84 390.5,-78 396.5,-72 402.5,-72 402.5,-72 522.5,-72 522.5,-72 528.5,-72 534.5,-78 534.5,-84 534.5,-84 534.5,-96 534.5,-96 534.5,-102 528.5,-108 522.5,-108"/>
<text text-anchor="middle" x="462.5" y="-87.5" font-family="sans" font-size="10.00">annotated_TreatmentData</text>
</g>
<!-- 3&#45;&gt;9 -->
<g id="edge23" class="edge">
<title>3&#45;&gt;9</title>
<path fill="none" stroke="grey" stroke-width="2" d="M926.73,-369.75C922.51,-331.78 910.66,-242.62 890.5,-221 800.6,-124.59 641.75,-98.88 544.91,-92.5"/>
<polygon fill="grey" stroke="grey" stroke-width="2" points="545.06,-89 534.87,-91.89 544.64,-95.99 545.06,-89"/>
</g>
<!-- 11 -->
<g id="node12" class="node">
<title>11</title>
<path fill="none" stroke="#d85656" stroke-width="2" stroke-dasharray="5,2" d="M557.5,-334C557.5,-334 399.5,-334 399.5,-334 393.5,-334 387.5,-328 387.5,-322 387.5,-322 387.5,-310 387.5,-310 387.5,-304 393.5,-298 399.5,-298 399.5,-298 557.5,-298 557.5,-298 563.5,-298 569.5,-304 569.5,-310 569.5,-310 569.5,-322 569.5,-322 569.5,-328 563.5,-334 557.5,-334"/>
<text text-anchor="middle" x="478.5" y="-313.5" font-family="sans" font-size="10.00">map_treatments_to_PubChemCID</text>
</g>
<!-- 3&#45;&gt;11 -->
<g id="edge25" class="edge">
<title>3&#45;&gt;11</title>
<path fill="none" stroke="grey" stroke-width="2" d="M843.33,-373.75C768.31,-362.08 658.94,-345.07 579.52,-332.71"/>
<polygon fill="grey" stroke="grey" stroke-width="2" points="579.92,-329.23 569.5,-331.16 578.85,-336.15 579.92,-329.23"/>
</g>
<!-- 4 -->
<g id="node5" class="node">
<title>4</title>
<path fill="none" stroke="#61d856" stroke-width="2" stroke-dasharray="5,2" d="M996.5,-483C996.5,-483 860.5,-483 860.5,-483 854.5,-483 848.5,-477 848.5,-471 848.5,-471 848.5,-454 848.5,-454 848.5,-448 854.5,-442 860.5,-442 860.5,-442 996.5,-442 996.5,-442 1002.5,-442 1008.5,-448 1008.5,-454 1008.5,-454 1008.5,-471 1008.5,-471 1008.5,-477 1002.5,-483 996.5,-483"/>
<text text-anchor="middle" x="928.5" y="-471" font-family="sans" font-size="10.00">downloadTreatmentMetadata</text>
<text text-anchor="middle" x="928.5" y="-460" font-family="sans" font-size="10.00">release: 8.4</text>
<text text-anchor="middle" x="928.5" y="-449" font-family="sans" font-size="10.00">version: GDSC2</text>
</g>
<!-- 4&#45;&gt;3 -->
<g id="edge12" class="edge">
<title>4&#45;&gt;3</title>
<path fill="none" stroke="grey" stroke-width="2" d="M928.5,-441.69C928.5,-433.91 928.5,-424.84 928.5,-416.45"/>
<polygon fill="grey" stroke="grey" stroke-width="2" points="932,-416.32 928.5,-406.32 925,-416.32 932,-416.32"/>
</g>
<!-- 5 -->
<g id="node6" class="node">
<title>5</title>
<path fill="none" stroke="#d8cb56" stroke-width="2" stroke-dasharray="5,2" d="M1365.5,-480.5C1365.5,-480.5 1261.5,-480.5 1261.5,-480.5 1255.5,-480.5 1249.5,-474.5 1249.5,-468.5 1249.5,-468.5 1249.5,-456.5 1249.5,-456.5 1249.5,-450.5 1255.5,-444.5 1261.5,-444.5 1261.5,-444.5 1365.5,-444.5 1365.5,-444.5 1371.5,-444.5 1377.5,-450.5 1377.5,-456.5 1377.5,-456.5 1377.5,-468.5 1377.5,-468.5 1377.5,-474.5 1371.5,-480.5 1365.5,-480.5"/>
<text text-anchor="middle" x="1313.5" y="-460" font-family="sans" font-size="10.00">downloadMappingFiles</text>
</g>
<!-- 5&#45;&gt;3 -->
<g id="edge13" class="edge">
<title>5&#45;&gt;3</title>
<path fill="none" stroke="grey" stroke-width="2" d="M1249.49,-449.45C1187.95,-437.86 1094.15,-420.19 1023.81,-406.95"/>
<polygon fill="grey" stroke="grey" stroke-width="2" points="1024.09,-403.44 1013.61,-405.03 1022.79,-410.32 1024.09,-403.44"/>
</g>
<!-- 6 -->
<g id="node7" class="node">
<title>6</title>
<path fill="none" stroke="#d8b456" stroke-width="2" stroke-dasharray="5,2" d="M1602.5,-182.5C1602.5,-182.5 1468.5,-182.5 1468.5,-182.5 1462.5,-182.5 1456.5,-176.5 1456.5,-170.5 1456.5,-170.5 1456.5,-158.5 1456.5,-158.5 1456.5,-152.5 1462.5,-146.5 1468.5,-146.5 1468.5,-146.5 1602.5,-146.5 1602.5,-146.5 1608.5,-146.5 1614.5,-152.5 1614.5,-158.5 1614.5,-158.5 1614.5,-170.5 1614.5,-170.5 1614.5,-176.5 1608.5,-182.5 1602.5,-182.5"/>
<text text-anchor="middle" x="1535.5" y="-162" font-family="sans" font-size="10.00">preprocess_sampleMetadata</text>
</g>
<!-- 5&#45;&gt;6 -->
<g id="edge15" class="edge">
<title>5&#45;&gt;6</title>
<path fill="none" stroke="grey" stroke-width="2" d="M1339.18,-444.31C1383.14,-413.41 1472.32,-344 1516.5,-262 1528.1,-240.47 1532.67,-212.82 1534.44,-192.64"/>
<polygon fill="grey" stroke="grey" stroke-width="2" points="1537.94,-192.78 1535.15,-182.56 1530.96,-192.29 1537.94,-192.78"/>
</g>
<!-- 6&#45;&gt;1 -->
<g id="edge11" class="edge">
<title>6&#45;&gt;1</title>
<path fill="none" stroke="grey" stroke-width="2" d="M1459.71,-146.42C1455.59,-145.58 1451.5,-144.77 1447.5,-144 1375.47,-130.18 1294.04,-116.94 1230.58,-107.15"/>
<polygon fill="grey" stroke="grey" stroke-width="2" points="1230.97,-103.66 1220.55,-105.6 1229.9,-110.58 1230.97,-103.66"/>
</g>
<!-- 17 -->
<g id="node18" class="node">
<title>17</title>
<path fill="none" stroke="#56d8d0" stroke-width="2" stroke-dasharray="5,2" d="M1525.5,-108C1525.5,-108 1313.5,-108 1313.5,-108 1307.5,-108 1301.5,-102 1301.5,-96 1301.5,-96 1301.5,-84 1301.5,-84 1301.5,-78 1307.5,-72 1313.5,-72 1313.5,-72 1525.5,-72 1525.5,-72 1531.5,-72 1537.5,-78 1537.5,-84 1537.5,-84 1537.5,-96 1537.5,-96 1537.5,-102 1531.5,-108 1525.5,-108"/>
<text text-anchor="middle" x="1419.5" y="-87.5" font-family="sans" font-size="10.00">mapSampleNamesToCellosaurusAccessionID</text>
</g>
<!-- 6&#45;&gt;17 -->
<g id="edge31" class="edge">
<title>6&#45;&gt;17</title>
<path fill="none" stroke="grey" stroke-width="2" d="M1508.01,-146.32C1492.26,-136.48 1472.32,-124.01 1455.36,-113.41"/>
<polygon fill="grey" stroke="grey" stroke-width="2" points="1457.13,-110.39 1446.79,-108.06 1453.42,-116.33 1457.13,-110.39"/>
</g>
<!-- 21 -->
<g id="node22" class="node">
<title>21</title>
<path fill="none" stroke="#88d856" stroke-width="2" stroke-dasharray="5,2" d="M1901,-108C1901,-108 1818,-108 1818,-108 1812,-108 1806,-102 1806,-96 1806,-96 1806,-84 1806,-84 1806,-78 1812,-72 1818,-72 1818,-72 1901,-72 1901,-72 1907,-72 1913,-78 1913,-84 1913,-84 1913,-96 1913,-96 1913,-102 1907,-108 1901,-108"/>
<text text-anchor="middle" x="1859.5" y="-87.5" font-family="sans" font-size="10.00">make_RNASEQ_SE</text>
</g>
<!-- 6&#45;&gt;21 -->
<g id="edge36" class="edge">
<title>6&#45;&gt;21</title>
<path fill="none" stroke="grey" stroke-width="2" d="M1612.29,-146.47C1616.08,-145.63 1619.83,-144.81 1623.5,-144 1696.81,-127.88 1715.33,-124.74 1788.5,-108 1790.85,-107.46 1793.23,-106.91 1795.65,-106.35"/>
<polygon fill="grey" stroke="grey" stroke-width="2" points="1796.7,-109.7 1805.64,-104.02 1795.11,-102.88 1796.7,-109.7"/>
</g>
<!-- 23 -->
<g id="node24" class="node">
<title>23</title>
<path fill="none" stroke="#56a2d8" stroke-width="2" stroke-dasharray="5,2" d="M1631,-108C1631,-108 1568,-108 1568,-108 1562,-108 1556,-102 1556,-96 1556,-96 1556,-84 1556,-84 1556,-78 1562,-72 1568,-72 1568,-72 1631,-72 1631,-72 1637,-72 1643,-78 1643,-84 1643,-84 1643,-96 1643,-96 1643,-102 1637,-108 1631,-108"/>
<text text-anchor="middle" x="1599.5" y="-87.5" font-family="sans" font-size="10.00">make_CNV_SE</text>
</g>
<!-- 6&#45;&gt;23 -->
<g id="edge39" class="edge">
<title>6&#45;&gt;23</title>
<path fill="none" stroke="grey" stroke-width="2" d="M1550.67,-146.32C1558.72,-137.2 1568.75,-125.83 1577.63,-115.77"/>
<polygon fill="grey" stroke="grey" stroke-width="2" points="1580.45,-117.87 1584.44,-108.06 1575.2,-113.24 1580.45,-117.87"/>
</g>
<!-- 25 -->
<g id="node26" class="node">
<title>25</title>
<path fill="none" stroke="#d6d856" stroke-width="2" stroke-dasharray="5,2" d="M1767.5,-108C1767.5,-108 1673.5,-108 1673.5,-108 1667.5,-108 1661.5,-102 1661.5,-96 1661.5,-96 1661.5,-84 1661.5,-84 1661.5,-78 1667.5,-72 1673.5,-72 1673.5,-72 1767.5,-72 1767.5,-72 1773.5,-72 1779.5,-78 1779.5,-84 1779.5,-84 1779.5,-96 1779.5,-96 1779.5,-102 1773.5,-108 1767.5,-108"/>
<text text-anchor="middle" x="1720.5" y="-87.5" font-family="sans" font-size="10.00">make_MUTATION_SE</text>
</g>
<!-- 6&#45;&gt;25 -->
<g id="edge42" class="edge">
<title>6&#45;&gt;25</title>
<path fill="none" stroke="grey" stroke-width="2" d="M1579.34,-146.32C1605.72,-135.98 1639.48,-122.75 1667.37,-111.82"/>
<polygon fill="grey" stroke="grey" stroke-width="2" points="1668.94,-114.97 1676.97,-108.06 1666.38,-108.45 1668.94,-114.97"/>
</g>
<!-- 27 -->
<g id="node28" class="node">
<title>27</title>
<path fill="none" stroke="#d88d56" stroke-width="2" stroke-dasharray="5,2" d="M2067.5,-108C2067.5,-108 1987.5,-108 1987.5,-108 1981.5,-108 1975.5,-102 1975.5,-96 1975.5,-96 1975.5,-84 1975.5,-84 1975.5,-78 1981.5,-72 1987.5,-72 1987.5,-72 2067.5,-72 2067.5,-72 2073.5,-72 2079.5,-78 2079.5,-84 2079.5,-84 2079.5,-96 2079.5,-96 2079.5,-102 2073.5,-108 2067.5,-108"/>
<text text-anchor="middle" x="2027.5" y="-87.5" font-family="sans" font-size="10.00">make_FUSION_SE</text>
</g>
<!-- 6&#45;&gt;27 -->
<g id="edge45" class="edge">
<title>6&#45;&gt;27</title>
<path fill="none" stroke="grey" stroke-width="2" d="M1609.82,-146.49C1614.44,-145.6 1619.03,-144.76 1623.5,-144 1755.44,-121.49 1789.96,-126.7 1922.5,-108 1936.4,-106.04 1951.31,-103.74 1965.4,-101.48"/>
<polygon fill="grey" stroke="grey" stroke-width="2" points="1966.18,-104.9 1975.49,-99.85 1965.06,-97.99 1966.18,-104.9"/>
</g>
<!-- 7 -->
<g id="node8" class="node">
<title>7</title>
<path fill="none" stroke="#56c9d8" stroke-width="2" stroke-dasharray="5,2" d="M1495,-262C1495,-262 1372,-262 1372,-262 1366,-262 1360,-256 1360,-250 1360,-250 1360,-233 1360,-233 1360,-227 1366,-221 1372,-221 1372,-221 1495,-221 1495,-221 1501,-221 1507,-227 1507,-233 1507,-233 1507,-250 1507,-250 1507,-256 1501,-262 1495,-262"/>
<text text-anchor="middle" x="1433.5" y="-250" font-family="sans" font-size="10.00">downloadSampleMetadata</text>
<text text-anchor="middle" x="1433.5" y="-239" font-family="sans" font-size="10.00">release: 8.4</text>
<text text-anchor="middle" x="1433.5" y="-228" font-family="sans" font-size="10.00">version: GDSC2</text>
</g>
<!-- 7&#45;&gt;6 -->
<g id="edge14" class="edge">
<title>7&#45;&gt;6</title>
<path fill="none" stroke="grey" stroke-width="2" d="M1460.03,-220.99C1473.43,-211.14 1489.77,-199.12 1503.82,-188.79"/>
<polygon fill="grey" stroke="grey" stroke-width="2" points="1506.24,-191.36 1512.22,-182.61 1502.09,-185.72 1506.24,-191.36"/>
</g>
<!-- 8 -->
<g id="node9" class="node">
<title>8</title>
<path fill="none" stroke="#567bd8" stroke-width="2" stroke-dasharray="5,2" d="M1838.5,-259.5C1838.5,-259.5 1656.5,-259.5 1656.5,-259.5 1650.5,-259.5 1644.5,-253.5 1644.5,-247.5 1644.5,-247.5 1644.5,-235.5 1644.5,-235.5 1644.5,-229.5 1650.5,-223.5 1656.5,-223.5 1656.5,-223.5 1838.5,-223.5 1838.5,-223.5 1844.5,-223.5 1850.5,-229.5 1850.5,-235.5 1850.5,-235.5 1850.5,-247.5 1850.5,-247.5 1850.5,-253.5 1844.5,-259.5 1838.5,-259.5"/>
<text text-anchor="middle" x="1747.5" y="-239" font-family="sans" font-size="10.00">downloadCellModelPassportsMetadata</text>
</g>
<!-- 8&#45;&gt;6 -->
<g id="edge16" class="edge">
<title>8&#45;&gt;6</title>
<path fill="none" stroke="grey" stroke-width="2" d="M1699.39,-223.48C1667.93,-212.35 1626.64,-197.74 1593.38,-185.98"/>
<polygon fill="grey" stroke="grey" stroke-width="2" points="1594.38,-182.62 1583.78,-182.58 1592.04,-189.22 1594.38,-182.62"/>
</g>
<!-- 19 -->
<g id="node20" class="node">
<title>19</title>
<path fill="none" stroke="#d8a456" stroke-width="2" stroke-dasharray="5,2" d="M2094.5,-182.5C2094.5,-182.5 1966.5,-182.5 1966.5,-182.5 1960.5,-182.5 1954.5,-176.5 1954.5,-170.5 1954.5,-170.5 1954.5,-158.5 1954.5,-158.5 1954.5,-152.5 1960.5,-146.5 1966.5,-146.5 1966.5,-146.5 2094.5,-146.5 2094.5,-146.5 2100.5,-146.5 2106.5,-152.5 2106.5,-158.5 2106.5,-158.5 2106.5,-170.5 2106.5,-170.5 2106.5,-176.5 2100.5,-182.5 2094.5,-182.5"/>
<text text-anchor="middle" x="2030.5" y="-162" font-family="sans" font-size="10.00">preprocess_geneAnnotation</text>
</g>
<!-- 8&#45;&gt;19 -->
<g id="edge33" class="edge">
<title>8&#45;&gt;19</title>
<path fill="none" stroke="grey" stroke-width="2" d="M1811.72,-223.48C1854.71,-212.09 1911.44,-197.05 1956.36,-185.15"/>
<polygon fill="grey" stroke="grey" stroke-width="2" points="1957.28,-188.53 1966.05,-182.58 1955.48,-181.76 1957.28,-188.53"/>
</g>
<!-- 9&#45;&gt;0 -->
<g id="edge2" class="edge">
<title>9&#45;&gt;0</title>
<path fill="none" stroke="grey" stroke-width="2" d="M534.68,-84.78C750.41,-72.16 1388.08,-34.87 1594.34,-22.81"/>
<polygon fill="grey" stroke="grey" stroke-width="2" points="1594.63,-26.3 1604.41,-22.22 1594.22,-19.31 1594.63,-26.3"/>
</g>
<!-- 10 -->
<g id="node11" class="node">
<title>10</title>
<path fill="none" stroke="#56d89a" stroke-width="2" stroke-dasharray="5,2" d="M139,-259.5C139,-259.5 12,-259.5 12,-259.5 6,-259.5 0,-253.5 0,-247.5 0,-247.5 0,-235.5 0,-235.5 0,-229.5 6,-223.5 12,-223.5 12,-223.5 139,-223.5 139,-223.5 145,-223.5 151,-229.5 151,-235.5 151,-235.5 151,-247.5 151,-247.5 151,-253.5 145,-259.5 139,-259.5"/>
<text text-anchor="middle" x="75.5" y="-244.5" font-family="sans" font-size="10.00">annotate_PubChemCIDS</text>
<text text-anchor="middle" x="75.5" y="-233.5" font-family="sans" font-size="10.00">annotationType: ChEMBL ID</text>
</g>
<!-- 10&#45;&gt;9 -->
<g id="edge17" class="edge">
<title>10&#45;&gt;9</title>
<path fill="none" stroke="grey" stroke-width="2" d="M92.57,-223.25C115.33,-201.3 157.86,-163.85 201.5,-144 258.14,-118.23 327.36,-104.91 380.27,-98.07"/>
<polygon fill="grey" stroke="grey" stroke-width="2" points="380.8,-101.53 390.3,-96.83 379.94,-94.58 380.8,-101.53"/>
</g>
<!-- 16 -->
<g id="node17" class="node">
<title>16</title>
<path fill="none" stroke="#d87d56" stroke-width="2" stroke-dasharray="5,2" d="M304,-182.5C304,-182.5 223,-182.5 223,-182.5 217,-182.5 211,-176.5 211,-170.5 211,-170.5 211,-158.5 211,-158.5 211,-152.5 217,-146.5 223,-146.5 223,-146.5 304,-146.5 304,-146.5 310,-146.5 316,-152.5 316,-158.5 316,-158.5 316,-170.5 316,-170.5 316,-176.5 310,-182.5 304,-182.5"/>
<text text-anchor="middle" x="263.5" y="-162" font-family="sans" font-size="10.00">annotate_ChEMBL</text>
</g>
<!-- 10&#45;&gt;16 -->
<g id="edge30" class="edge">
<title>10&#45;&gt;16</title>
<path fill="none" stroke="grey" stroke-width="2" d="M118.16,-223.48C145.71,-212.49 181.73,-198.12 211.03,-186.43"/>
<polygon fill="grey" stroke="grey" stroke-width="2" points="212.69,-189.54 220.68,-182.58 210.1,-183.04 212.69,-189.54"/>
</g>
<!-- 11&#45;&gt;10 -->
<g id="edge24" class="edge">
<title>11&#45;&gt;10</title>
<path fill="none" stroke="grey" stroke-width="2" d="M387.47,-301.45C323.51,-291.54 236.04,-277.23 159.5,-262 158.76,-261.85 158.01,-261.7 157.26,-261.55"/>
<polygon fill="grey" stroke="grey" stroke-width="2" points="157.88,-258.11 147.38,-259.5 156.46,-264.96 157.88,-258.11"/>
</g>
<!-- 12 -->
<g id="node13" class="node">
<title>12</title>
<path fill="none" stroke="#56d89a" stroke-width="2" stroke-dasharray="5,2" d="M631.5,-259.5C631.5,-259.5 495.5,-259.5 495.5,-259.5 489.5,-259.5 483.5,-253.5 483.5,-247.5 483.5,-247.5 483.5,-235.5 483.5,-235.5 483.5,-229.5 489.5,-223.5 495.5,-223.5 495.5,-223.5 631.5,-223.5 631.5,-223.5 637.5,-223.5 643.5,-229.5 643.5,-235.5 643.5,-235.5 643.5,-247.5 643.5,-247.5 643.5,-253.5 637.5,-259.5 631.5,-259.5"/>
<text text-anchor="middle" x="563.5" y="-244.5" font-family="sans" font-size="10.00">annotate_PubChemCIDS</text>
<text text-anchor="middle" x="563.5" y="-233.5" font-family="sans" font-size="10.00">annotationType: NSC Number</text>
</g>
<!-- 11&#45;&gt;12 -->
<g id="edge26" class="edge">
<title>11&#45;&gt;12</title>
<path fill="none" stroke="grey" stroke-width="2" d="M498.64,-297.82C509.76,-288.34 523.73,-276.43 535.85,-266.08"/>
<polygon fill="grey" stroke="grey" stroke-width="2" points="538.16,-268.71 543.5,-259.56 533.62,-263.38 538.16,-268.71"/>
</g>
<!-- 13 -->
<g id="node14" class="node">
<title>13</title>
<path fill="none" stroke="#56d89a" stroke-width="2" stroke-dasharray="5,2" d="M869.5,-259.5C869.5,-259.5 673.5,-259.5 673.5,-259.5 667.5,-259.5 661.5,-253.5 661.5,-247.5 661.5,-247.5 661.5,-235.5 661.5,-235.5 661.5,-229.5 667.5,-223.5 673.5,-223.5 673.5,-223.5 869.5,-223.5 869.5,-223.5 875.5,-223.5 881.5,-229.5 881.5,-235.5 881.5,-235.5 881.5,-247.5 881.5,-247.5 881.5,-253.5 875.5,-259.5 869.5,-259.5"/>
<text text-anchor="middle" x="771.5" y="-244.5" font-family="sans" font-size="10.00">annotate_PubChemCIDS</text>
<text text-anchor="middle" x="771.5" y="-233.5" font-family="sans" font-size="10.00">annotationType: Drug Induced Liver Injury</text>
</g>
<!-- 11&#45;&gt;13 -->
<g id="edge27" class="edge">
<title>11&#45;&gt;13</title>
<path fill="none" stroke="grey" stroke-width="2" d="M547.57,-297.91C591.15,-287.13 647.56,-273.17 692.86,-261.96"/>
<polygon fill="grey" stroke="grey" stroke-width="2" points="693.78,-265.34 702.64,-259.54 692.1,-258.54 693.78,-265.34"/>
</g>
<!-- 14 -->
<g id="node15" class="node">
<title>14</title>
<path fill="none" stroke="#56d89a" stroke-width="2" stroke-dasharray="5,2" d="M292,-259.5C292,-259.5 181,-259.5 181,-259.5 175,-259.5 169,-253.5 169,-247.5 169,-247.5 169,-235.5 169,-235.5 169,-229.5 175,-223.5 181,-223.5 181,-223.5 292,-223.5 292,-223.5 298,-223.5 304,-229.5 304,-235.5 304,-235.5 304,-247.5 304,-247.5 304,-253.5 298,-259.5 292,-259.5"/>
<text text-anchor="middle" x="236.5" y="-244.5" font-family="sans" font-size="10.00">annotate_PubChemCIDS</text>
<text text-anchor="middle" x="236.5" y="-233.5" font-family="sans" font-size="10.00">annotationType: CAS</text>
</g>
<!-- 11&#45;&gt;14 -->
<g id="edge28" class="edge">
<title>11&#45;&gt;14</title>
<path fill="none" stroke="grey" stroke-width="2" d="M421.46,-297.91C386.05,-287.3 340.4,-273.63 303.31,-262.51"/>
<polygon fill="grey" stroke="grey" stroke-width="2" points="304.16,-259.12 293.58,-259.6 302.15,-265.82 304.16,-259.12"/>
</g>
<!-- 15 -->
<g id="node16" class="node">
<title>15</title>
<path fill="none" stroke="#56d89a" stroke-width="2" stroke-dasharray="5,2" d="M453,-259.5C453,-259.5 334,-259.5 334,-259.5 328,-259.5 322,-253.5 322,-247.5 322,-247.5 322,-235.5 322,-235.5 322,-229.5 328,-223.5 334,-223.5 334,-223.5 453,-223.5 453,-223.5 459,-223.5 465,-229.5 465,-235.5 465,-235.5 465,-247.5 465,-247.5 465,-253.5 459,-259.5 453,-259.5"/>
<text text-anchor="middle" x="393.5" y="-244.5" font-family="sans" font-size="10.00">annotate_PubChemCIDS</text>
<text text-anchor="middle" x="393.5" y="-233.5" font-family="sans" font-size="10.00">annotationType: ATC Code</text>
</g>
<!-- 11&#45;&gt;15 -->
<g id="edge29" class="edge">
<title>11&#45;&gt;15</title>
<path fill="none" stroke="grey" stroke-width="2" d="M458.36,-297.82C447.24,-288.34 433.27,-276.43 421.15,-266.08"/>
<polygon fill="grey" stroke="grey" stroke-width="2" points="423.38,-263.38 413.5,-259.56 418.84,-268.71 423.38,-263.38"/>
</g>
<!-- 12&#45;&gt;9 -->
<g id="edge18" class="edge">
<title>12&#45;&gt;9</title>
<path fill="none" stroke="grey" stroke-width="2" d="M551.91,-223.35C534.28,-197.24 500.57,-147.35 479.96,-116.84"/>
<polygon fill="grey" stroke="grey" stroke-width="2" points="482.76,-114.74 474.26,-108.41 476.96,-118.66 482.76,-114.74"/>
</g>
<!-- 13&#45;&gt;9 -->
<g id="edge19" class="edge">
<title>13&#45;&gt;9</title>
<path fill="none" stroke="grey" stroke-width="2" d="M736.35,-223.5C679.93,-196.2 569.21,-142.63 507.23,-112.64"/>
<polygon fill="grey" stroke="grey" stroke-width="2" points="508.61,-109.42 498.09,-108.22 505.57,-115.72 508.61,-109.42"/>
</g>
<!-- 14&#45;&gt;9 -->
<g id="edge20" class="edge">
<title>14&#45;&gt;9</title>
<path fill="none" stroke="grey" stroke-width="2" d="M264.01,-223.5C281.44,-212.64 304.41,-198.17 324.5,-185 360.59,-161.34 401.38,-133.4 429.2,-114.17"/>
<polygon fill="grey" stroke="grey" stroke-width="2" points="431.52,-116.82 437.75,-108.25 427.53,-111.06 431.52,-116.82"/>
</g>
<!-- 15&#45;&gt;9 -->
<g id="edge21" class="edge">
<title>15&#45;&gt;9</title>
<path fill="none" stroke="grey" stroke-width="2" d="M401.42,-223.35C413.36,-197.47 436.1,-148.2 450.21,-117.63"/>
<polygon fill="grey" stroke="grey" stroke-width="2" points="453.45,-118.96 454.46,-108.41 447.1,-116.02 453.45,-118.96"/>
</g>
<!-- 16&#45;&gt;9 -->
<g id="edge22" class="edge">
<title>16&#45;&gt;9</title>
<path fill="none" stroke="grey" stroke-width="2" d="M310.41,-146.41C339.03,-135.98 375.79,-122.59 406,-111.58"/>
<polygon fill="grey" stroke="grey" stroke-width="2" points="407.36,-114.81 415.56,-108.1 404.97,-108.24 407.36,-114.81"/>
</g>
<!-- 17&#45;&gt;0 -->
<g id="edge3" class="edge">
<title>17&#45;&gt;0</title>
<path fill="none" stroke="grey" stroke-width="2" d="M1477.9,-71.97C1513.03,-61.72 1557.83,-48.65 1594.14,-38.06"/>
<polygon fill="grey" stroke="grey" stroke-width="2" points="1595.52,-41.31 1604.14,-35.15 1593.56,-34.59 1595.52,-41.31"/>
</g>
<!-- 18 -->
<g id="node19" class="node">
<title>18</title>
<path fill="none" stroke="#bed856" stroke-width="2" stroke-dasharray="5,2" d="M1268,-182.5C1268,-182.5 1171,-182.5 1171,-182.5 1165,-182.5 1159,-176.5 1159,-170.5 1159,-170.5 1159,-158.5 1159,-158.5 1159,-152.5 1165,-146.5 1171,-146.5 1171,-146.5 1268,-146.5 1268,-146.5 1274,-146.5 1280,-152.5 1280,-158.5 1280,-158.5 1280,-170.5 1280,-170.5 1280,-176.5 1274,-182.5 1268,-182.5"/>
<text text-anchor="middle" x="1219.5" y="-162" font-family="sans" font-size="10.00">getCellosaurusObject</text>
</g>
<!-- 18&#45;&gt;17 -->
<g id="edge32" class="edge">
<title>18&#45;&gt;17</title>
<path fill="none" stroke="grey" stroke-width="2" d="M1266.64,-146.41C1295.41,-135.98 1332.35,-122.59 1362.72,-111.58"/>
<polygon fill="grey" stroke="grey" stroke-width="2" points="1364.12,-114.8 1372.33,-108.1 1361.73,-108.22 1364.12,-114.8"/>
</g>
<!-- 19&#45;&gt;0 -->
<g id="edge4" class="edge">
<title>19&#45;&gt;0</title>
<path fill="none" stroke="grey" stroke-width="2" d="M2010.88,-146.44C1981.15,-120.65 1927.59,-74.46 1922.5,-72 1859.45,-41.48 1779.72,-28.53 1724.66,-23.03"/>
<polygon fill="grey" stroke="grey" stroke-width="2" points="1724.96,-19.55 1714.67,-22.09 1724.3,-26.52 1724.96,-19.55"/>
</g>
<!-- 19&#45;&gt;21 -->
<g id="edge37" class="edge">
<title>19&#45;&gt;21</title>
<path fill="none" stroke="grey" stroke-width="2" d="M1989.98,-146.32C1965.7,-136.03 1934.66,-122.87 1908.94,-111.96"/>
<polygon fill="grey" stroke="grey" stroke-width="2" points="1910.31,-108.74 1899.73,-108.06 1907.57,-115.18 1910.31,-108.74"/>
</g>
<!-- 19&#45;&gt;23 -->
<g id="edge40" class="edge">
<title>19&#45;&gt;23</title>
<path fill="none" stroke="grey" stroke-width="2" d="M1958.73,-146.49C1954.26,-145.6 1949.82,-144.76 1945.5,-144 1819.43,-121.86 1782.44,-135.46 1653.17,-107.89"/>
<polygon fill="grey" stroke="grey" stroke-width="2" points="1653.8,-104.45 1643.29,-105.75 1652.31,-111.29 1653.8,-104.45"/>
</g>
<!-- 19&#45;&gt;25 -->
<g id="edge43" class="edge">
<title>19&#45;&gt;25</title>
<path fill="none" stroke="grey" stroke-width="2" d="M1957.43,-146.41C1906.68,-134.54 1839.5,-118.83 1789.64,-107.17"/>
<polygon fill="grey" stroke="grey" stroke-width="2" points="1790.13,-103.69 1779.59,-104.82 1788.53,-110.51 1790.13,-103.69"/>
</g>
<!-- 19&#45;&gt;27 -->
<g id="edge46" class="edge">
<title>19&#45;&gt;27</title>
<path fill="none" stroke="grey" stroke-width="2" d="M2029.79,-146.32C2029.44,-137.92 2029.02,-127.62 2028.62,-118.19"/>
<polygon fill="grey" stroke="grey" stroke-width="2" points="2032.12,-117.9 2028.21,-108.06 2025.12,-118.19 2032.12,-117.9"/>
</g>
<!-- 20 -->
<g id="node21" class="node">
<title>20</title>
<path fill="none" stroke="#56d873" stroke-width="2" stroke-dasharray="5,2" d="M2100.5,-259.5C2100.5,-259.5 1960.5,-259.5 1960.5,-259.5 1954.5,-259.5 1948.5,-253.5 1948.5,-247.5 1948.5,-247.5 1948.5,-235.5 1948.5,-235.5 1948.5,-229.5 1954.5,-223.5 1960.5,-223.5 1960.5,-223.5 2100.5,-223.5 2100.5,-223.5 2106.5,-223.5 2112.5,-229.5 2112.5,-235.5 2112.5,-235.5 2112.5,-247.5 2112.5,-247.5 2112.5,-253.5 2106.5,-259.5 2100.5,-259.5"/>
<text text-anchor="middle" x="2030.5" y="-239" font-family="sans" font-size="10.00">download_EnsemblAnnotation</text>
</g>
<!-- 20&#45;&gt;19 -->
<g id="edge34" class="edge">
<title>20&#45;&gt;19</title>
<path fill="none" stroke="grey" stroke-width="2" d="M2030.5,-223.48C2030.5,-214.44 2030.5,-203.1 2030.5,-192.85"/>
<polygon fill="grey" stroke="grey" stroke-width="2" points="2034,-192.71 2030.5,-182.71 2027,-192.71 2034,-192.71"/>
</g>
<!-- 21&#45;&gt;0 -->
<g id="edge5" class="edge">
<title>21&#45;&gt;0</title>
<path fill="none" stroke="grey" stroke-width="2" d="M1810.83,-71.97C1782.89,-62.19 1747.6,-49.84 1718.14,-39.52"/>
<polygon fill="grey" stroke="grey" stroke-width="2" points="1718.98,-36.11 1708.39,-36.11 1716.67,-42.72 1718.98,-36.11"/>
</g>
<!-- 22 -->
<g id="node23" class="node">
<title>22</title>
<path fill="none" stroke="#56d8a9" stroke-width="2" stroke-dasharray="5,2" d="M1924.5,-182.5C1924.5,-182.5 1838.5,-182.5 1838.5,-182.5 1832.5,-182.5 1826.5,-176.5 1826.5,-170.5 1826.5,-170.5 1826.5,-158.5 1826.5,-158.5 1826.5,-152.5 1832.5,-146.5 1838.5,-146.5 1838.5,-146.5 1924.5,-146.5 1924.5,-146.5 1930.5,-146.5 1936.5,-152.5 1936.5,-158.5 1936.5,-158.5 1936.5,-170.5 1936.5,-170.5 1936.5,-176.5 1930.5,-182.5 1924.5,-182.5"/>
<text text-anchor="middle" x="1881.5" y="-162" font-family="sans" font-size="10.00">download_RNASEQ</text>
</g>
<!-- 22&#45;&gt;21 -->
<g id="edge35" class="edge">
<title>22&#45;&gt;21</title>
<path fill="none" stroke="grey" stroke-width="2" d="M1876.29,-146.32C1873.71,-137.83 1870.54,-127.39 1867.66,-117.88"/>
<polygon fill="grey" stroke="grey" stroke-width="2" points="1870.93,-116.61 1864.68,-108.06 1864.23,-118.64 1870.93,-116.61"/>
</g>
<!-- 23&#45;&gt;0 -->
<g id="edge6" class="edge">
<title>23&#45;&gt;0</title>
<path fill="none" stroke="grey" stroke-width="2" d="M1614.33,-71.7C1621.52,-63.3 1630.3,-53.07 1638.19,-43.86"/>
<polygon fill="grey" stroke="grey" stroke-width="2" points="1640.99,-45.97 1644.84,-36.1 1635.67,-41.42 1640.99,-45.97"/>
</g>
<!-- 24 -->
<g id="node25" class="node">
<title>24</title>
<path fill="none" stroke="#afd856" stroke-width="2" stroke-dasharray="5,2" d="M1426.5,-182.5C1426.5,-182.5 1310.5,-182.5 1310.5,-182.5 1304.5,-182.5 1298.5,-176.5 1298.5,-170.5 1298.5,-170.5 1298.5,-158.5 1298.5,-158.5 1298.5,-152.5 1304.5,-146.5 1310.5,-146.5 1310.5,-146.5 1426.5,-146.5 1426.5,-146.5 1432.5,-146.5 1438.5,-152.5 1438.5,-158.5 1438.5,-158.5 1438.5,-170.5 1438.5,-170.5 1438.5,-176.5 1432.5,-182.5 1426.5,-182.5"/>
<text text-anchor="middle" x="1368.5" y="-162" font-family="sans" font-size="10.00">download_CNV_WESData</text>
</g>
<!-- 24&#45;&gt;23 -->
<g id="edge38" class="edge">
<title>24&#45;&gt;23</title>
<path fill="none" stroke="grey" stroke-width="2" d="M1423.46,-146.49C1456.39,-136.27 1499.33,-122.89 1546.11,-108.11"/>
<polygon fill="grey" stroke="grey" stroke-width="2" points="1547.36,-111.39 1555.84,-105.04 1545.25,-104.71 1547.36,-111.39"/>
</g>
<!-- 25&#45;&gt;0 -->
<g id="edge7" class="edge">
<title>25&#45;&gt;0</title>
<path fill="none" stroke="grey" stroke-width="2" d="M1705.42,-71.7C1698.11,-63.3 1689.19,-53.07 1681.16,-43.86"/>
<polygon fill="grey" stroke="grey" stroke-width="2" points="1683.61,-41.34 1674.41,-36.1 1678.34,-45.94 1683.61,-41.34"/>
</g>
<!-- 26 -->
<g id="node27" class="node">
<title>26</title>
<path fill="none" stroke="#56d8c1" stroke-width="2" stroke-dasharray="5,2" d="M1796.5,-182.5C1796.5,-182.5 1644.5,-182.5 1644.5,-182.5 1638.5,-182.5 1632.5,-176.5 1632.5,-170.5 1632.5,-170.5 1632.5,-158.5 1632.5,-158.5 1632.5,-152.5 1638.5,-146.5 1644.5,-146.5 1644.5,-146.5 1796.5,-146.5 1796.5,-146.5 1802.5,-146.5 1808.5,-152.5 1808.5,-158.5 1808.5,-158.5 1808.5,-170.5 1808.5,-170.5 1808.5,-176.5 1802.5,-182.5 1796.5,-182.5"/>
<text text-anchor="middle" x="1720.5" y="-162" font-family="sans" font-size="10.00">download_MUTATION_processed</text>
</g>
<!-- 26&#45;&gt;25 -->
<g id="edge41" class="edge">
<title>26&#45;&gt;25</title>
<path fill="none" stroke="grey" stroke-width="2" d="M1720.5,-146.32C1720.5,-137.92 1720.5,-127.62 1720.5,-118.19"/>
<polygon fill="grey" stroke="grey" stroke-width="2" points="1724,-118.06 1720.5,-108.06 1717,-118.06 1724,-118.06"/>
</g>
<!-- 27&#45;&gt;0 -->
<g id="edge8" class="edge">
<title>27&#45;&gt;0</title>
<path fill="none" stroke="grey" stroke-width="2" d="M1975.24,-75.54C1969.93,-74.29 1964.62,-73.09 1959.5,-72 1879.18,-54.89 1785.93,-39.04 1724.99,-29.21"/>
<polygon fill="grey" stroke="grey" stroke-width="2" points="1725.17,-25.7 1714.74,-27.57 1724.06,-32.61 1725.17,-25.7"/>
</g>
<!-- 28 -->
<g id="node29" class="node">
<title>28</title>
<path fill="none" stroke="#97d856" stroke-width="2" stroke-dasharray="5,2" d="M2220,-182.5C2220,-182.5 2137,-182.5 2137,-182.5 2131,-182.5 2125,-176.5 2125,-170.5 2125,-170.5 2125,-158.5 2125,-158.5 2125,-152.5 2131,-146.5 2137,-146.5 2137,-146.5 2220,-146.5 2220,-146.5 2226,-146.5 2232,-152.5 2232,-158.5 2232,-158.5 2232,-170.5 2232,-170.5 2232,-176.5 2226,-182.5 2220,-182.5"/>
<text text-anchor="middle" x="2178.5" y="-162" font-family="sans" font-size="10.00">download_FUSION</text>
</g>
<!-- 28&#45;&gt;27 -->
<g id="edge44" class="edge">
<title>28&#45;&gt;27</title>
<path fill="none" stroke="grey" stroke-width="2" d="M2142.72,-146.32C2121.56,-136.16 2094.59,-123.21 2072.06,-112.39"/>
<polygon fill="grey" stroke="grey" stroke-width="2" points="2073.56,-109.23 2063.03,-108.06 2070.53,-115.54 2073.56,-109.23"/>
</g>
</g>
</svg>
