<?xml version="1.0" encoding="UTF-8" standalone="no"?>
<!DOCTYPE svg PUBLIC "-//W3C//DTD SVG 1.1//EN"
 "http://www.w3.org/Graphics/SVG/1.1/DTD/svg11.dtd">
<!-- Generated by graphviz version 2.43.0 (0)
 -->
<!-- Title: snakemake_dag Pages: 1 -->
<svg width="2102pt" height="730pt"
 viewBox="0.00 0.00 2101.50 730.00" xmlns="http://www.w3.org/2000/svg" xmlns:xlink="http://www.w3.org/1999/xlink">
<g id="graph0" class="graph" transform="scale(1 1) rotate(0) translate(4 726)">
<title>snakemake_dag</title>
<polygon fill="white" stroke="transparent" points="-4,4 -4,-726 2097.5,-726 2097.5,4 -4,4"/>
<!-- 0 -->
<g id="node1" class="node">
<title>0</title>
<text text-anchor="start" x="332" y="-71.6" font-family="sans" font-weight="bold" font-size="18.00">process_allTreatmentResponse</text>
<text text-anchor="start" x="276.5" y="-47.8" font-family="sans" font-size="10.00"> </text>
<text text-anchor="start" x="280.5" y="-47.8" font-family="sans" font-weight="bold" font-size="14.00">↪ input</text>
<text text-anchor="start" x="338.5" y="-47.8" font-family="sans" font-size="10.00"> </text>
<text text-anchor="start" x="276.5" y="-28" font-family="monospace" font-size="10.00">procdata/treatmentResponse/GDSC2_8.4_treatmentResponse_preprocessed.qs</text>
<text text-anchor="start" x="690.5" y="-10" font-family="sans" font-size="10.00"> &#160;</text>
<polygon fill="#5782d9" stroke="#5782d9" points="270.5,-62 270.5,-62 704.5,-62 704.5,-62 270.5,-62"/>
<polygon fill="#5782d9" stroke="#5782d9" points="270.5,-22 270.5,-22 704.5,-22 704.5,-22 270.5,-22"/>
<polygon fill="none" stroke="#5782d9" stroke-width="2" points="270,-1 270,-91 703,-91 703,-1 270,-1"/>
</g>
<!-- 1 -->
<g id="node2" class="node">
<title>1</title>
<text text-anchor="start" x="328" y="-257.6" font-family="sans" font-weight="bold" font-size="18.00">preprocess_treatmentResponse</text>
<text text-anchor="start" x="246.5" y="-233.8" font-family="sans" font-size="10.00"> </text>
<text text-anchor="start" x="250.5" y="-233.8" font-family="sans" font-weight="bold" font-size="14.00">↪ input</text>
<text text-anchor="start" x="308.5" y="-233.8" font-family="sans" font-size="10.00"> </text>
<text text-anchor="start" x="246.5" y="-214" font-family="monospace" font-size="10.00">procdata/metadata/{version}_{release}_preprocessed_treatmentMetadata.tsv</text>
<text text-anchor="start" x="246.5" y="-196" font-family="monospace" font-size="10.00">rawdata/treatmentResponse/release_{release}/{version}_fitted_dose_response.xlsx</text>
<text text-anchor="start" x="246.5" y="-178" font-family="monospace" font-size="10.00">rawdata/treatmentResponse/release_{release}/{version}_public_raw_data.csv</text>
<text text-anchor="start" x="649.5" y="-157.8" font-family="sans" font-size="10.00"> </text>
<text text-anchor="start" x="653.5" y="-157.8" font-family="sans" font-weight="bold" font-size="14.00">output →</text>
<text text-anchor="start" x="723.5" y="-157.8" font-family="sans" font-size="10.00"> </text>
<text text-anchor="start" x="246.5" y="-138" font-family="monospace" font-size="10.00">procdata/treatmentResponse/{version}_{release}_treatmentResponse_preprocessed.qs</text>
<polygon fill="#57d957" stroke="#57d957" points="240.5,-248 240.5,-248 734.5,-248 734.5,-248 240.5,-248"/>
<polygon fill="#57d957" stroke="#57d957" points="240.5,-172 240.5,-172 734.5,-172 734.5,-172 240.5,-172"/>
<polygon fill="none" stroke="#57d957" stroke-width="2" points="240,-129 240,-277 733,-277 733,-129 240,-129"/>
</g>
<!-- 1&#45;&gt;0 -->
<g id="edge1" class="edge">
<title>1&#45;&gt;0</title>
<path fill="none" stroke="grey" stroke-width="2" d="M486.5,-127.68C486.5,-119.16 486.5,-110.58 486.5,-102.37"/>
<polygon fill="grey" stroke="grey" stroke-width="2" points="490,-102.19 486.5,-92.19 483,-102.19 490,-102.19"/>
</g>
<!-- 2 -->
<g id="node3" class="node">
<title>2</title>
<text text-anchor="start" x="93" y="-443.6" font-family="sans" font-weight="bold" font-size="18.00">download_treatmentResponse</text>
<text text-anchor="start" x="7.5" y="-419.8" font-family="sans" font-size="10.00"> </text>
<text text-anchor="start" x="11.5" y="-419.8" font-family="sans" font-weight="bold" font-size="14.00">↪ input</text>
<text text-anchor="start" x="69.5" y="-419.8" font-family="sans" font-size="10.00"> </text>
<text text-anchor="start" x="7.5" y="-400" font-family="monospace" font-size="10.00">&lt;input function&gt;</text>
<text text-anchor="start" x="7.5" y="-382" font-family="monospace" font-size="10.00">&lt;input function&gt;</text>
<text text-anchor="start" x="404.5" y="-361.8" font-family="sans" font-size="10.00"> </text>
<text text-anchor="start" x="408.5" y="-361.8" font-family="sans" font-weight="bold" font-size="14.00">output →</text>
<text text-anchor="start" x="478.5" y="-361.8" font-family="sans" font-size="10.00"> </text>
<text text-anchor="start" x="7.5" y="-342" font-family="monospace" font-size="10.00">rawdata/treatmentResponse/release_{release}/{version}_fitted_dose_response.xlsx</text>
<text text-anchor="start" x="7.5" y="-324" font-family="monospace" font-size="10.00">rawdata/treatmentResponse/release_{release}/{version}_public_raw_data.csv</text>
<polygon fill="#57d9ad" stroke="#57d9ad" points="1.5,-434 1.5,-434 489.5,-434 489.5,-434 1.5,-434"/>
<polygon fill="#57d9ad" stroke="#57d9ad" points="1.5,-376 1.5,-376 489.5,-376 489.5,-376 1.5,-376"/>
<polygon fill="none" stroke="#57d9ad" stroke-width="2" points="1,-315 1,-463 488,-463 488,-315 1,-315"/>
</g>
<!-- 2&#45;&gt;1 -->
<g id="edge2" class="edge">
<title>2&#45;&gt;1</title>
<path fill="none" stroke="grey" stroke-width="2" d="M341.88,-313.96C354.72,-304.2 367.92,-294.16 380.89,-284.3"/>
<polygon fill="grey" stroke="grey" stroke-width="2" points="383.08,-287.03 388.92,-278.19 378.84,-281.46 383.08,-287.03"/>
</g>
<!-- 3 -->
<g id="node4" class="node">
<title>3</title>
<text text-anchor="start" x="572.5" y="-434.6" font-family="sans" font-weight="bold" font-size="18.00">preprocess_treatmentMetadata</text>
<text text-anchor="start" x="514.5" y="-410.8" font-family="sans" font-size="10.00"> </text>
<text text-anchor="start" x="518.5" y="-410.8" font-family="sans" font-weight="bold" font-size="14.00">↪ input</text>
<text text-anchor="start" x="576.5" y="-410.8" font-family="sans" font-size="10.00"> </text>
<text text-anchor="start" x="514.5" y="-391" font-family="monospace" font-size="10.00">metadata/GDSC_to_CCLE_treatmentMappingFile.xlsx</text>
<text text-anchor="start" x="514.5" y="-373" font-family="monospace" font-size="10.00">metadata/{version}_{release}_treatmentMetadata.csv</text>
<text text-anchor="start" x="869.5" y="-352.8" font-family="sans" font-size="10.00"> </text>
<text text-anchor="start" x="873.5" y="-352.8" font-family="sans" font-weight="bold" font-size="14.00">output →</text>
<text text-anchor="start" x="943.5" y="-352.8" font-family="sans" font-size="10.00"> </text>
<text text-anchor="start" x="514.5" y="-333" font-family="monospace" font-size="10.00">procdata/metadata/{version}_{release}_preprocessed_treatmentMetadata.tsv</text>
<polygon fill="#d9ad57" stroke="#d9ad57" points="508.5,-425 508.5,-425 954.5,-425 954.5,-425 508.5,-425"/>
<polygon fill="#d9ad57" stroke="#d9ad57" points="508.5,-367 508.5,-367 954.5,-367 954.5,-367 508.5,-367"/>
<polygon fill="none" stroke="#d9ad57" stroke-width="2" points="508,-324 508,-454 953,-454 953,-324 508,-324"/>
</g>
<!-- 3&#45;&gt;1 -->
<g id="edge3" class="edge">
<title>3&#45;&gt;1</title>
<path fill="none" stroke="grey" stroke-width="2" d="M644.13,-322.87C627.64,-310.43 610.19,-297.28 593.15,-284.43"/>
<polygon fill="grey" stroke="grey" stroke-width="2" points="594.92,-281.37 584.82,-278.15 590.7,-286.96 594.92,-281.37"/>
</g>
<!-- 6 -->
<g id="node7" class="node">
<title>6</title>
<text text-anchor="start" x="1078.5" y="-246.6" font-family="sans" font-weight="bold" font-size="18.00">preprocess_metadata</text>
<text text-anchor="start" x="1000.5" y="-222.8" font-family="sans" font-size="10.00"> </text>
<text text-anchor="start" x="1004.5" y="-222.8" font-family="sans" font-weight="bold" font-size="14.00">↪ input</text>
<text text-anchor="start" x="1062.5" y="-222.8" font-family="sans" font-size="10.00"> </text>
<text text-anchor="start" x="1000.5" y="-203" font-family="monospace" font-size="10.00">procdata/metadata/GDSC2_8.4_preprocessed_sampleMetadata.tsv</text>
<text text-anchor="start" x="1000.5" y="-185" font-family="monospace" font-size="10.00">procdata/metadata/GDSC2_8.4_preprocessed_treatmentMetadata.tsv</text>
<text text-anchor="start" x="1000.5" y="-167" font-family="monospace" font-size="10.00">procdata/metadata/preprocessed_geneAnnotation.tsv</text>
<text text-anchor="start" x="1366.5" y="-149" font-family="sans" font-size="10.00"> &#160;</text>
<polygon fill="#d98257" stroke="#d98257" points="994.5,-237 994.5,-237 1380.5,-237 1380.5,-237 994.5,-237"/>
<polygon fill="#d98257" stroke="#d98257" points="994.5,-161 994.5,-161 1380.5,-161 1380.5,-161 994.5,-161"/>
<polygon fill="none" stroke="#d98257" stroke-width="2" points="994,-140 994,-266 1379,-266 1379,-140 994,-140"/>
</g>
<!-- 3&#45;&gt;6 -->
<g id="edge7" class="edge">
<title>3&#45;&gt;6</title>
<path fill="none" stroke="grey" stroke-width="2" d="M891.59,-323C933.41,-306.12 978.52,-287.92 1020.59,-270.95"/>
<polygon fill="grey" stroke="grey" stroke-width="2" points="1022.11,-274.11 1030.08,-267.12 1019.49,-267.61 1022.11,-274.11"/>
</g>
<!-- 4 -->
<g id="node5" class="node">
<title>4</title>
<text text-anchor="start" x="139" y="-647.6" font-family="sans" font-weight="bold" font-size="18.00">downloadTreatmentMetadata</text>
<text text-anchor="start" x="136.5" y="-623.8" font-family="sans" font-size="10.00"> </text>
<text text-anchor="start" x="140.5" y="-623.8" font-family="sans" font-weight="bold" font-size="14.00">↪ input</text>
<text text-anchor="start" x="198.5" y="-623.8" font-family="sans" font-size="10.00"> </text>
<text text-anchor="start" x="136.5" y="-604" font-family="monospace" font-size="10.00">&lt;input function&gt;</text>
<text text-anchor="start" x="359.5" y="-583.8" font-family="sans" font-size="10.00"> </text>
<text text-anchor="start" x="363.5" y="-583.8" font-family="sans" font-weight="bold" font-size="14.00">output →</text>
<text text-anchor="start" x="433.5" y="-583.8" font-family="sans" font-size="10.00"> </text>
<text text-anchor="start" x="136.5" y="-564" font-family="monospace" font-size="10.00">metadata/{version}_{release}_treatmentMetadata.csv</text>
<polygon fill="#add957" stroke="#add957" points="130.5,-638 130.5,-638 444.5,-638 444.5,-638 130.5,-638"/>
<polygon fill="#add957" stroke="#add957" points="130.5,-598 130.5,-598 444.5,-598 444.5,-598 130.5,-598"/>
<polygon fill="none" stroke="#add957" stroke-width="2" points="130,-555 130,-667 443,-667 443,-555 130,-555"/>
</g>
<!-- 4&#45;&gt;3 -->
<g id="edge5" class="edge">
<title>4&#45;&gt;3</title>
<path fill="none" stroke="grey" stroke-width="2" d="M363.82,-553.93C391.1,-535.47 422.46,-515.68 452.5,-500 480.44,-485.42 510.77,-471.57 540.77,-458.92"/>
<polygon fill="grey" stroke="grey" stroke-width="2" points="542.19,-462.12 550.07,-455.03 539.5,-455.66 542.19,-462.12"/>
</g>
<!-- 5 -->
<g id="node6" class="node">
<title>5</title>
<text text-anchor="start" x="624.5" y="-701.6" font-family="sans" font-weight="bold" font-size="18.00">downloadMappingFiles</text>
<text text-anchor="start" x="469.5" y="-677.8" font-family="sans" font-size="10.00"> </text>
<text text-anchor="start" x="473.5" y="-677.8" font-family="sans" font-weight="bold" font-size="14.00">↪ input</text>
<text text-anchor="start" x="531.5" y="-677.8" font-family="sans" font-size="10.00"> </text>
<text text-anchor="start" x="469.5" y="-658" font-family="monospace" font-size="10.00">raw.githubusercontent.com/BHKLAB&#45;DataProcessing/Annotations/master/cell_annotation_all.csv</text>
<text text-anchor="start" x="469.5" y="-640" font-family="monospace" font-size="10.00">raw.githubusercontent.com/BHKLAB&#45;DataProcessing/Annotations/master/drugs_with_ids.csv</text>
<text text-anchor="start" x="469.5" y="-622" font-family="monospace" font-size="10.00">www.cancerrxgene.org/gdsc1000/GDSC1000_WebResources//Data/suppData/TableS4E.xlsx</text>
<text text-anchor="start" x="469.5" y="-604" font-family="monospace" font-size="10.00">www.cancerrxgene.org/gdsc1000/GDSC1000_WebResources//Data/suppData/TableS4F.xlsx</text>
<text text-anchor="start" x="932.5" y="-583.8" font-family="sans" font-size="10.00"> </text>
<text text-anchor="start" x="936.5" y="-583.8" font-family="sans" font-weight="bold" font-size="14.00">output →</text>
<text text-anchor="start" x="1006.5" y="-583.8" font-family="sans" font-size="10.00"> </text>
<text text-anchor="start" x="469.5" y="-564" font-family="monospace" font-size="10.00">metadata/GDSC_to_CCLE_sampleMappingFile.xlsx</text>
<text text-anchor="start" x="469.5" y="-546" font-family="monospace" font-size="10.00">metadata/GDSC_to_CCLE_treatmentMappingFile.xlsx</text>
<text text-anchor="start" x="469.5" y="-528" font-family="monospace" font-size="10.00">metadata/sampleMappingFile.xlsx</text>
<text text-anchor="start" x="469.5" y="-510" font-family="monospace" font-size="10.00">metadata/treatmentMappingFile.csv</text>
<polygon fill="#d95757" stroke="#d95757" points="463.5,-692 463.5,-692 1017.5,-692 1017.5,-692 463.5,-692"/>
<polygon fill="#d95757" stroke="#d95757" points="463.5,-598 463.5,-598 1017.5,-598 1017.5,-598 463.5,-598"/>
<polygon fill="none" stroke="#d95757" stroke-width="2" points="463,-501 463,-721 1016,-721 1016,-501 463,-501"/>
</g>
<!-- 5&#45;&gt;3 -->
<g id="edge4" class="edge">
<title>5&#45;&gt;3</title>
<path fill="none" stroke="grey" stroke-width="2" d="M735,-500C734.52,-488.24 734.04,-476.48 733.58,-465.25"/>
<polygon fill="grey" stroke="grey" stroke-width="2" points="737.07,-464.96 733.16,-455.11 730.08,-465.25 737.07,-464.96"/>
</g>
<!-- 7 -->
<g id="node8" class="node">
<title>7</title>
<text text-anchor="start" x="1043" y="-443.6" font-family="sans" font-weight="bold" font-size="18.00">preprocess_sampleMetadata</text>
<text text-anchor="start" x="979.5" y="-419.8" font-family="sans" font-size="10.00"> </text>
<text text-anchor="start" x="983.5" y="-419.8" font-family="sans" font-weight="bold" font-size="14.00">↪ input</text>
<text text-anchor="start" x="1041.5" y="-419.8" font-family="sans" font-size="10.00"> </text>
<text text-anchor="start" x="979.5" y="-400" font-family="monospace" font-size="10.00">metadata/GDSC_to_CCLE_sampleMappingFile.xlsx</text>
<text text-anchor="start" x="979.5" y="-382" font-family="monospace" font-size="10.00">metadata/cellModelPassports_sampleAnnotation.csv</text>
<text text-anchor="start" x="979.5" y="-364" font-family="monospace" font-size="10.00">metadata/{version}_{release}_sampleMetadata.xlsx</text>
<text text-anchor="start" x="1316.5" y="-343.8" font-family="sans" font-size="10.00"> </text>
<text text-anchor="start" x="1320.5" y="-343.8" font-family="sans" font-weight="bold" font-size="14.00">output →</text>
<text text-anchor="start" x="1390.5" y="-343.8" font-family="sans" font-size="10.00"> </text>
<text text-anchor="start" x="979.5" y="-324" font-family="monospace" font-size="10.00">procdata/metadata/{version}_{release}_preprocessed_sampleMetadata.tsv</text>
<polygon fill="#57add9" stroke="#57add9" points="973.5,-434 973.5,-434 1401.5,-434 1401.5,-434 973.5,-434"/>
<polygon fill="#57add9" stroke="#57add9" points="973.5,-358 973.5,-358 1401.5,-358 1401.5,-358 973.5,-358"/>
<polygon fill="none" stroke="#57add9" stroke-width="2" points="973,-315 973,-463 1400,-463 1400,-315 973,-315"/>
</g>
<!-- 5&#45;&gt;7 -->
<g id="edge9" class="edge">
<title>5&#45;&gt;7</title>
<path fill="none" stroke="grey" stroke-width="2" d="M963,-500C984.58,-489.38 1006.16,-478.76 1026.93,-468.53"/>
<polygon fill="grey" stroke="grey" stroke-width="2" points="1028.67,-471.58 1036.1,-464.02 1025.58,-465.3 1028.67,-471.58"/>
</g>
<!-- 7&#45;&gt;6 -->
<g id="edge6" class="edge">
<title>7&#45;&gt;6</title>
<path fill="none" stroke="grey" stroke-width="2" d="M1186.5,-313.96C1186.5,-301.86 1186.5,-289.34 1186.5,-277.27"/>
<polygon fill="grey" stroke="grey" stroke-width="2" points="1190,-277.25 1186.5,-267.25 1183,-277.25 1190,-277.25"/>
</g>
<!-- 8 -->
<g id="node9" class="node">
<title>8</title>
<text text-anchor="start" x="1053.5" y="-647.6" font-family="sans" font-weight="bold" font-size="18.00">downloadSampleMetadata</text>
<text text-anchor="start" x="1042.5" y="-623.8" font-family="sans" font-size="10.00"> </text>
<text text-anchor="start" x="1046.5" y="-623.8" font-family="sans" font-weight="bold" font-size="14.00">↪ input</text>
<text text-anchor="start" x="1104.5" y="-623.8" font-family="sans" font-size="10.00"> </text>
<text text-anchor="start" x="1042.5" y="-604" font-family="monospace" font-size="10.00">&lt;input function&gt;</text>
<text text-anchor="start" x="1253.5" y="-583.8" font-family="sans" font-size="10.00"> </text>
<text text-anchor="start" x="1257.5" y="-583.8" font-family="sans" font-weight="bold" font-size="14.00">output →</text>
<text text-anchor="start" x="1327.5" y="-583.8" font-family="sans" font-size="10.00"> </text>
<text text-anchor="start" x="1042.5" y="-564" font-family="monospace" font-size="10.00">metadata/{version}_{release}_sampleMetadata.xlsx</text>
<polygon fill="#57d9d9" stroke="#57d9d9" points="1036.5,-638 1036.5,-638 1338.5,-638 1338.5,-638 1036.5,-638"/>
<polygon fill="#57d9d9" stroke="#57d9d9" points="1036.5,-598 1036.5,-598 1338.5,-598 1338.5,-598 1036.5,-598"/>
<polygon fill="none" stroke="#57d9d9" stroke-width="2" points="1036,-555 1036,-667 1337,-667 1337,-555 1036,-555"/>
</g>
<!-- 8&#45;&gt;7 -->
<g id="edge11" class="edge">
<title>8&#45;&gt;7</title>
<path fill="none" stroke="grey" stroke-width="2" d="M1186.5,-553.92C1186.5,-529.76 1186.5,-500.99 1186.5,-474.35"/>
<polygon fill="grey" stroke="grey" stroke-width="2" points="1190,-474.26 1186.5,-464.26 1183,-474.26 1190,-474.26"/>
</g>
<!-- 9 -->
<g id="node10" class="node">
<title>9</title>
<text text-anchor="start" x="1363.5" y="-665.6" font-family="sans" font-weight="bold" font-size="18.00">downloadCellModelPassportsMetadata</text>
<text text-anchor="start" x="1363.5" y="-641.8" font-family="sans" font-size="10.00"> </text>
<text text-anchor="start" x="1367.5" y="-641.8" font-family="sans" font-weight="bold" font-size="14.00">↪ input</text>
<text text-anchor="start" x="1425.5" y="-641.8" font-family="sans" font-size="10.00"> </text>
<text text-anchor="start" x="1363.5" y="-622" font-family="monospace" font-size="10.00">cog.sanger.ac.uk/cmp/download/gene_identifiers_latest.csv.gz</text>
<text text-anchor="start" x="1363.5" y="-604" font-family="monospace" font-size="10.00">cog.sanger.ac.uk/cmp/download/model_list_latest.csv.gz</text>
<text text-anchor="start" x="1674.5" y="-583.8" font-family="sans" font-size="10.00"> </text>
<text text-anchor="start" x="1678.5" y="-583.8" font-family="sans" font-weight="bold" font-size="14.00">output →</text>
<text text-anchor="start" x="1748.5" y="-583.8" font-family="sans" font-size="10.00"> </text>
<text text-anchor="start" x="1363.5" y="-564" font-family="monospace" font-size="10.00">metadata/cellModelPassports_geneAnnotation.csv</text>
<text text-anchor="start" x="1363.5" y="-546" font-family="monospace" font-size="10.00">metadata/cellModelPassports_sampleAnnotation.csv</text>
<polygon fill="#82d957" stroke="#82d957" points="1357.5,-656 1357.5,-656 1759.5,-656 1759.5,-656 1357.5,-656"/>
<polygon fill="#82d957" stroke="#82d957" points="1357.5,-598 1357.5,-598 1759.5,-598 1759.5,-598 1357.5,-598"/>
<polygon fill="none" stroke="#82d957" stroke-width="2" points="1357,-537 1357,-685 1758,-685 1758,-537 1357,-537"/>
</g>
<!-- 9&#45;&gt;7 -->
<g id="edge10" class="edge">
<title>9&#45;&gt;7</title>
<path fill="none" stroke="grey" stroke-width="2" d="M1432.67,-535.98C1396.53,-514.55 1356.94,-491.07 1320.28,-469.33"/>
<polygon fill="grey" stroke="grey" stroke-width="2" points="1321.91,-466.23 1311.52,-464.14 1318.34,-472.25 1321.91,-466.23"/>
</g>
<!-- 10 -->
<g id="node11" class="node">
<title>10</title>
<text text-anchor="start" x="1433.5" y="-434.6" font-family="sans" font-weight="bold" font-size="18.00">preprocess_geneAnnotation</text>
<text text-anchor="start" x="1426.5" y="-410.8" font-family="sans" font-size="10.00"> </text>
<text text-anchor="start" x="1430.5" y="-410.8" font-family="sans" font-weight="bold" font-size="14.00">↪ input</text>
<text text-anchor="start" x="1488.5" y="-410.8" font-family="sans" font-size="10.00"> </text>
<text text-anchor="start" x="1426.5" y="-391" font-family="monospace" font-size="10.00">metadata/Ensembl/GRCh38_91annotation.gtf</text>
<text text-anchor="start" x="1426.5" y="-373" font-family="monospace" font-size="10.00">metadata/cellModelPassports_geneAnnotation.csv</text>
<text text-anchor="start" x="1643.5" y="-352.8" font-family="sans" font-size="10.00"> </text>
<text text-anchor="start" x="1647.5" y="-352.8" font-family="sans" font-weight="bold" font-size="14.00">output →</text>
<text text-anchor="start" x="1717.5" y="-352.8" font-family="sans" font-size="10.00"> </text>
<text text-anchor="start" x="1426.5" y="-333" font-family="monospace" font-size="10.00">procdata/metadata/preprocessed_geneAnnotation.tsv</text>
<polygon fill="#57d982" stroke="#57d982" points="1420.5,-425 1420.5,-425 1728.5,-425 1728.5,-425 1420.5,-425"/>
<polygon fill="#57d982" stroke="#57d982" points="1420.5,-367 1420.5,-367 1728.5,-367 1728.5,-367 1420.5,-367"/>
<polygon fill="none" stroke="#57d982" stroke-width="2" points="1420,-324 1420,-454 1727,-454 1727,-324 1420,-324"/>
</g>
<!-- 9&#45;&gt;10 -->
<g id="edge12" class="edge">
<title>9&#45;&gt;10</title>
<path fill="none" stroke="grey" stroke-width="2" d="M1562.89,-535.82C1564.55,-513.01 1566.38,-487.88 1568.05,-465"/>
<polygon fill="grey" stroke="grey" stroke-width="2" points="1571.54,-465.24 1568.77,-455.01 1564.56,-464.73 1571.54,-465.24"/>
</g>
<!-- 10&#45;&gt;6 -->
<g id="edge8" class="edge">
<title>10&#45;&gt;6</title>
<path fill="none" stroke="grey" stroke-width="2" d="M1436.79,-323C1401.74,-306.34 1363.97,-288.38 1328.66,-271.59"/>
<polygon fill="grey" stroke="grey" stroke-width="2" points="1329.79,-268.25 1319.25,-267.12 1326.78,-274.57 1329.79,-268.25"/>
</g>
<!-- 11 -->
<g id="node12" class="node">
<title>11</title>
<text text-anchor="start" x="1784.5" y="-636.6" font-family="sans" font-weight="bold" font-size="18.00">download_EnsemblAnnotation</text>
<text text-anchor="start" x="1784.5" y="-615" font-family="sans" font-size="10.00"> &#160;</text>
<text text-anchor="start" x="2008.5" y="-594.8" font-family="sans" font-size="10.00"> </text>
<text text-anchor="start" x="2012.5" y="-594.8" font-family="sans" font-weight="bold" font-size="14.00">output →</text>
<text text-anchor="start" x="2082.5" y="-594.8" font-family="sans" font-size="10.00"> </text>
<text text-anchor="start" x="1784.5" y="-575" font-family="monospace" font-size="10.00">metadata/Ensembl/GRCh38_91annotation.gtf</text>
<polygon fill="#d9d957" stroke="#d9d957" points="1778.5,-627 1778.5,-627 2093.5,-627 2093.5,-627 1778.5,-627"/>
<polygon fill="#d9d957" stroke="#d9d957" points="1778.5,-609 1778.5,-609 2093.5,-609 2093.5,-609 1778.5,-609"/>
<polygon fill="none" stroke="#d9d957" stroke-width="2" points="1778.5,-566 1778.5,-656 2092.5,-656 2092.5,-566 1778.5,-566"/>
</g>
<!-- 11&#45;&gt;10 -->
<g id="edge13" class="edge">
<title>11&#45;&gt;10</title>
<path fill="none" stroke="grey" stroke-width="2" d="M1869.14,-564.78C1838.77,-544.48 1802.13,-520.53 1768.5,-500 1746.73,-486.71 1723.31,-473.01 1700.51,-459.98"/>
<polygon fill="grey" stroke="grey" stroke-width="2" points="1702.23,-456.93 1691.81,-455.02 1698.77,-463.01 1702.23,-456.93"/>
</g>
</g>
</svg>
