<?xml version="1.0" encoding="UTF-8" standalone="no"?>
<!DOCTYPE svg PUBLIC "-//W3C//DTD SVG 1.1//EN"
 "http://www.w3.org/Graphics/SVG/1.1/DTD/svg11.dtd">
<!-- Generated by graphviz version 2.43.0 (0)
 -->
<!-- Title: snakemake_dag Pages: 1 -->
<svg width="928pt" height="260pt"
 viewBox="0.00 0.00 927.50 260.00" xmlns="http://www.w3.org/2000/svg" xmlns:xlink="http://www.w3.org/1999/xlink">
<g id="graph0" class="graph" transform="scale(1 1) rotate(0) translate(4 256)">
<title>snakemake_dag</title>
<polygon fill="white" stroke="transparent" points="-4,4 -4,-256 923.5,-256 923.5,4 -4,4"/>
<!-- 0 -->
<g id="node1" class="node">
<title>0</title>
<path fill="none" stroke="#56d8a9" stroke-width="2" d="M499.5,-108C499.5,-108 401.5,-108 401.5,-108 395.5,-108 389.5,-102 389.5,-96 389.5,-96 389.5,-84 389.5,-84 389.5,-78 395.5,-72 401.5,-72 401.5,-72 499.5,-72 499.5,-72 505.5,-72 511.5,-78 511.5,-84 511.5,-84 511.5,-96 511.5,-96 511.5,-102 505.5,-108 499.5,-108"/>
<text text-anchor="middle" x="450.5" y="-87.5" font-family="sans" font-size="10.00">preprocess_metadata</text>
</g>
<!-- 1 -->
<g id="node2" class="node">
<title>1</title>
<path fill="none" stroke="#5682d8" stroke-width="2" d="M341.5,-180C341.5,-180 195.5,-180 195.5,-180 189.5,-180 183.5,-174 183.5,-168 183.5,-168 183.5,-156 183.5,-156 183.5,-150 189.5,-144 195.5,-144 195.5,-144 341.5,-144 341.5,-144 347.5,-144 353.5,-150 353.5,-156 353.5,-156 353.5,-168 353.5,-168 353.5,-174 347.5,-180 341.5,-180"/>
<text text-anchor="middle" x="268.5" y="-159.5" font-family="sans" font-size="10.00">preprocess_treatmentMetadata</text>
</g>
<!-- 1&#45;&gt;0 -->
<g id="edge1" class="edge">
<title>1&#45;&gt;0</title>
<path fill="none" stroke="grey" stroke-width="2" d="M313.02,-143.88C338.23,-134.18 369.95,-121.98 396.57,-111.74"/>
<polygon fill="grey" stroke="grey" stroke-width="2" points="398.05,-114.92 406.12,-108.07 395.53,-108.39 398.05,-114.92"/>
</g>
<!-- 10 -->
<g id="node11" class="node">
<title>10</title>
<path fill="none" stroke="#d88556" stroke-width="2" d="M249,-108C249,-108 102,-108 102,-108 96,-108 90,-102 90,-96 90,-96 90,-84 90,-84 90,-78 96,-72 102,-72 102,-72 249,-72 249,-72 255,-72 261,-78 261,-84 261,-84 261,-96 261,-96 261,-102 255,-108 249,-108"/>
<text text-anchor="middle" x="175.5" y="-87.5" font-family="sans" font-size="10.00">preprocess_treatmentResponse</text>
</g>
<!-- 1&#45;&gt;10 -->
<g id="edge12" class="edge">
<title>1&#45;&gt;10</title>
<path fill="none" stroke="grey" stroke-width="2" d="M245.51,-143.7C233.69,-134.8 219.11,-123.82 206.32,-114.2"/>
<polygon fill="grey" stroke="grey" stroke-width="2" points="208.32,-111.32 198.22,-108.1 204.11,-116.91 208.32,-111.32"/>
</g>
<!-- 2 -->
<g id="node3" class="node">
<title>2</title>
<path fill="none" stroke="#56a9d8" stroke-width="2" d="M189.5,-252C189.5,-252 53.5,-252 53.5,-252 47.5,-252 41.5,-246 41.5,-240 41.5,-240 41.5,-228 41.5,-228 41.5,-222 47.5,-216 53.5,-216 53.5,-216 189.5,-216 189.5,-216 195.5,-216 201.5,-222 201.5,-228 201.5,-228 201.5,-240 201.5,-240 201.5,-246 195.5,-252 189.5,-252"/>
<text text-anchor="middle" x="121.5" y="-231.5" font-family="sans" font-size="10.00">downloadTreatmentMetadata</text>
</g>
<!-- 2&#45;&gt;1 -->
<g id="edge4" class="edge">
<title>2&#45;&gt;1</title>
<path fill="none" stroke="grey" stroke-width="2" d="M157.46,-215.88C177.38,-206.39 202.32,-194.51 223.52,-184.42"/>
<polygon fill="grey" stroke="grey" stroke-width="2" points="225.13,-187.53 232.66,-180.07 222.12,-181.21 225.13,-187.53"/>
</g>
<!-- 3 -->
<g id="node4" class="node">
<title>3</title>
<path fill="none" stroke="#56d8d8" stroke-width="2" d="M335.5,-252C335.5,-252 231.5,-252 231.5,-252 225.5,-252 219.5,-246 219.5,-240 219.5,-240 219.5,-228 219.5,-228 219.5,-222 225.5,-216 231.5,-216 231.5,-216 335.5,-216 335.5,-216 341.5,-216 347.5,-222 347.5,-228 347.5,-228 347.5,-240 347.5,-240 347.5,-246 341.5,-252 335.5,-252"/>
<text text-anchor="middle" x="283.5" y="-231.5" font-family="sans" font-size="10.00">downloadMappingFiles</text>
</g>
<!-- 3&#45;&gt;1 -->
<g id="edge5" class="edge">
<title>3&#45;&gt;1</title>
<path fill="none" stroke="grey" stroke-width="2" d="M279.79,-215.7C278.14,-207.98 276.15,-198.71 274.31,-190.11"/>
<polygon fill="grey" stroke="grey" stroke-width="2" points="277.68,-189.15 272.17,-180.1 270.84,-190.62 277.68,-189.15"/>
</g>
<!-- 4 -->
<g id="node5" class="node">
<title>4</title>
<path fill="none" stroke="#afd856" stroke-width="2" d="M517.5,-180C517.5,-180 383.5,-180 383.5,-180 377.5,-180 371.5,-174 371.5,-168 371.5,-168 371.5,-156 371.5,-156 371.5,-150 377.5,-144 383.5,-144 383.5,-144 517.5,-144 517.5,-144 523.5,-144 529.5,-150 529.5,-156 529.5,-156 529.5,-168 529.5,-168 529.5,-174 523.5,-180 517.5,-180"/>
<text text-anchor="middle" x="450.5" y="-159.5" font-family="sans" font-size="10.00">preprocess_sampleMetadata</text>
</g>
<!-- 3&#45;&gt;4 -->
<g id="edge8" class="edge">
<title>3&#45;&gt;4</title>
<path fill="none" stroke="grey" stroke-width="2" d="M324.35,-215.88C347.28,-206.26 376.08,-194.19 400.37,-184.01"/>
<polygon fill="grey" stroke="grey" stroke-width="2" points="401.91,-187.16 409.78,-180.07 399.2,-180.71 401.91,-187.16"/>
</g>
<!-- 4&#45;&gt;0 -->
<g id="edge3" class="edge">
<title>4&#45;&gt;0</title>
<path fill="none" stroke="grey" stroke-width="2" d="M450.5,-143.7C450.5,-135.98 450.5,-126.71 450.5,-118.11"/>
<polygon fill="grey" stroke="grey" stroke-width="2" points="454,-118.1 450.5,-108.1 447,-118.1 454,-118.1"/>
</g>
<!-- 5 -->
<g id="node6" class="node">
<title>5</title>
<path fill="none" stroke="#59d856" stroke-width="2" d="M501,-252C501,-252 378,-252 378,-252 372,-252 366,-246 366,-240 366,-240 366,-228 366,-228 366,-222 372,-216 378,-216 378,-216 501,-216 501,-216 507,-216 513,-222 513,-228 513,-228 513,-240 513,-240 513,-246 507,-252 501,-252"/>
<text text-anchor="middle" x="439.5" y="-231.5" font-family="sans" font-size="10.00">downloadSampleMetadata</text>
</g>
<!-- 5&#45;&gt;4 -->
<g id="edge7" class="edge">
<title>5&#45;&gt;4</title>
<path fill="none" stroke="grey" stroke-width="2" d="M442.22,-215.7C443.43,-207.98 444.89,-198.71 446.24,-190.11"/>
<polygon fill="grey" stroke="grey" stroke-width="2" points="449.72,-190.53 447.81,-180.1 442.8,-189.44 449.72,-190.53"/>
</g>
<!-- 6 -->
<g id="node7" class="node">
<title>6</title>
<path fill="none" stroke="#56d882" stroke-width="2" d="M725.5,-252C725.5,-252 543.5,-252 543.5,-252 537.5,-252 531.5,-246 531.5,-240 531.5,-240 531.5,-228 531.5,-228 531.5,-222 537.5,-216 543.5,-216 543.5,-216 725.5,-216 725.5,-216 731.5,-216 737.5,-222 737.5,-228 737.5,-228 737.5,-240 737.5,-240 737.5,-246 731.5,-252 725.5,-252"/>
<text text-anchor="middle" x="634.5" y="-231.5" font-family="sans" font-size="10.00">downloadCellModelPassportsMetadata</text>
</g>
<!-- 6&#45;&gt;4 -->
<g id="edge6" class="edge">
<title>6&#45;&gt;4</title>
<path fill="none" stroke="grey" stroke-width="2" d="M589.49,-215.88C564,-206.18 531.93,-193.98 505.02,-183.74"/>
<polygon fill="grey" stroke="grey" stroke-width="2" points="505.96,-180.35 495.37,-180.07 503.47,-186.9 505.96,-180.35"/>
</g>
<!-- 7 -->
<g id="node8" class="node">
<title>7</title>
<path fill="none" stroke="#d8ac56" stroke-width="2" d="M698.5,-180C698.5,-180 570.5,-180 570.5,-180 564.5,-180 558.5,-174 558.5,-168 558.5,-168 558.5,-156 558.5,-156 558.5,-150 564.5,-144 570.5,-144 570.5,-144 698.5,-144 698.5,-144 704.5,-144 710.5,-150 710.5,-156 710.5,-156 710.5,-168 710.5,-168 710.5,-174 704.5,-180 698.5,-180"/>
<text text-anchor="middle" x="634.5" y="-159.5" font-family="sans" font-size="10.00">preprocess_geneAnnotation</text>
</g>
<!-- 6&#45;&gt;7 -->
<g id="edge10" class="edge">
<title>6&#45;&gt;7</title>
<path fill="none" stroke="grey" stroke-width="2" d="M634.5,-215.7C634.5,-207.98 634.5,-198.71 634.5,-190.11"/>
<polygon fill="grey" stroke="grey" stroke-width="2" points="638,-190.1 634.5,-180.1 631,-190.1 638,-190.1"/>
</g>
<!-- 7&#45;&gt;0 -->
<g id="edge2" class="edge">
<title>7&#45;&gt;0</title>
<path fill="none" stroke="grey" stroke-width="2" d="M589.49,-143.88C564,-134.18 531.93,-121.98 505.02,-111.74"/>
<polygon fill="grey" stroke="grey" stroke-width="2" points="505.96,-108.35 495.37,-108.07 503.47,-114.9 505.96,-108.35"/>
</g>
<!-- 8 -->
<g id="node9" class="node">
<title>8</title>
<path fill="none" stroke="#d85656" stroke-width="2" d="M907.5,-252C907.5,-252 767.5,-252 767.5,-252 761.5,-252 755.5,-246 755.5,-240 755.5,-240 755.5,-228 755.5,-228 755.5,-222 761.5,-216 767.5,-216 767.5,-216 907.5,-216 907.5,-216 913.5,-216 919.5,-222 919.5,-228 919.5,-228 919.5,-240 919.5,-240 919.5,-246 913.5,-252 907.5,-252"/>
<text text-anchor="middle" x="837.5" y="-231.5" font-family="sans" font-size="10.00">download_EnsemblAnnotation</text>
</g>
<!-- 8&#45;&gt;7 -->
<g id="edge9" class="edge">
<title>8&#45;&gt;7</title>
<path fill="none" stroke="grey" stroke-width="2" d="M788.1,-215.97C759.61,-206.14 723.61,-193.73 693.63,-183.39"/>
<polygon fill="grey" stroke="grey" stroke-width="2" points="694.72,-180.06 684.12,-180.11 692.43,-186.68 694.72,-180.06"/>
</g>
<!-- 9 -->
<g id="node10" class="node">
<title>9</title>
<path fill="none" stroke="#d6d856" stroke-width="2" d="M247.5,-36C247.5,-36 103.5,-36 103.5,-36 97.5,-36 91.5,-30 91.5,-24 91.5,-24 91.5,-12 91.5,-12 91.5,-6 97.5,0 103.5,0 103.5,0 247.5,0 247.5,0 253.5,0 259.5,-6 259.5,-12 259.5,-12 259.5,-24 259.5,-24 259.5,-30 253.5,-36 247.5,-36"/>
<text text-anchor="middle" x="175.5" y="-15.5" font-family="sans" font-size="10.00">process_allTreatmentResponse</text>
</g>
<!-- 10&#45;&gt;9 -->
<g id="edge11" class="edge">
<title>10&#45;&gt;9</title>
<path fill="none" stroke="grey" stroke-width="2" d="M175.5,-71.7C175.5,-63.98 175.5,-54.71 175.5,-46.11"/>
<polygon fill="grey" stroke="grey" stroke-width="2" points="179,-46.1 175.5,-36.1 172,-46.1 179,-46.1"/>
</g>
<!-- 11 -->
<g id="node12" class="node">
<title>11</title>
<path fill="none" stroke="#80d856" stroke-width="2" d="M153,-180C153,-180 12,-180 12,-180 6,-180 0,-174 0,-168 0,-168 0,-156 0,-156 0,-150 6,-144 12,-144 12,-144 153,-144 153,-144 159,-144 165,-150 165,-156 165,-156 165,-168 165,-168 165,-174 159,-180 153,-180"/>
<text text-anchor="middle" x="82.5" y="-159.5" font-family="sans" font-size="10.00">download_treatmentResponse</text>
</g>
<!-- 11&#45;&gt;10 -->
<g id="edge13" class="edge">
<title>11&#45;&gt;10</title>
<path fill="none" stroke="grey" stroke-width="2" d="M105.49,-143.7C117.31,-134.8 131.89,-123.82 144.68,-114.2"/>
<polygon fill="grey" stroke="grey" stroke-width="2" points="146.89,-116.91 152.78,-108.1 142.68,-111.32 146.89,-116.91"/>
</g>
</g>
</svg>
