<?xml version="1.0" encoding="UTF-8" standalone="no"?>
<!DOCTYPE svg PUBLIC "-//W3C//DTD SVG 1.1//EN"
 "http://www.w3.org/Graphics/SVG/1.1/DTD/svg11.dtd">
<!-- Generated by graphviz version 2.43.0 (0)
 -->
<!-- Title: snakemake_dag Pages: 1 -->
<svg width="1841pt" height="548pt"
 viewBox="0.00 0.00 1841.00 548.00" xmlns="http://www.w3.org/2000/svg" xmlns:xlink="http://www.w3.org/1999/xlink">
<g id="graph0" class="graph" transform="scale(1 1) rotate(0) translate(4 544)">
<title>snakemake_dag</title>
<polygon fill="white" stroke="transparent" points="-4,4 -4,-544 1837,-544 1837,4 -4,4"/>
<!-- 0 -->
<g id="node1" class="node">
<title>0</title>
<path fill="none" stroke="#d8cb56" stroke-width="2" d="M977.5,-36C977.5,-36 900.5,-36 900.5,-36 894.5,-36 888.5,-30 888.5,-24 888.5,-24 888.5,-12 888.5,-12 888.5,-6 894.5,0 900.5,0 900.5,0 977.5,0 977.5,0 983.5,0 989.5,-6 989.5,-12 989.5,-12 989.5,-24 989.5,-24 989.5,-30 983.5,-36 977.5,-36"/>
<text text-anchor="middle" x="939" y="-15.5" font-family="sans" font-size="10.00">get_Pharmacoset</text>
</g>
<!-- 1 -->
<g id="node2" class="node">
<title>1</title>
<path fill="none" stroke="#56d863" stroke-width="2" d="M982,-108C982,-108 896,-108 896,-108 890,-108 884,-102 884,-96 884,-96 884,-84 884,-84 884,-78 890,-72 896,-72 896,-72 982,-72 982,-72 988,-72 994,-78 994,-84 994,-84 994,-96 994,-96 994,-102 988,-108 982,-108"/>
<text text-anchor="middle" x="939" y="-87.5" font-family="sans" font-size="10.00">build_Pharmacoset</text>
</g>
<!-- 1&#45;&gt;0 -->
<g id="edge1" class="edge">
<title>1&#45;&gt;0</title>
<path fill="none" stroke="grey" stroke-width="2" d="M939,-71.7C939,-63.98 939,-54.71 939,-46.11"/>
<polygon fill="grey" stroke="grey" stroke-width="2" points="942.5,-46.1 939,-36.1 935.5,-46.1 942.5,-46.1"/>
</g>
<!-- 2 -->
<g id="node3" class="node">
<title>2</title>
<path fill="none" stroke="#d88556" stroke-width="2" d="M494,-180C494,-180 320,-180 320,-180 314,-180 308,-174 308,-168 308,-168 308,-156 308,-156 308,-150 314,-144 320,-144 320,-144 494,-144 494,-144 500,-144 506,-150 506,-156 506,-156 506,-168 506,-168 506,-174 500,-180 494,-180"/>
<text text-anchor="middle" x="407" y="-159.5" font-family="sans" font-size="10.00">build_treatmentResponseExperiment</text>
</g>
<!-- 2&#45;&gt;1 -->
<g id="edge8" class="edge">
<title>2&#45;&gt;1</title>
<path fill="none" stroke="grey" stroke-width="2" d="M506.13,-147.96C613.63,-133.81 782.12,-111.64 873.97,-99.56"/>
<polygon fill="grey" stroke="grey" stroke-width="2" points="874.51,-103.02 883.97,-98.24 873.6,-96.08 874.51,-103.02"/>
</g>
<!-- 3 -->
<g id="node4" class="node">
<title>3</title>
<path fill="none" stroke="#56d87b" stroke-width="2" d="M332.5,-252C332.5,-252 191.5,-252 191.5,-252 185.5,-252 179.5,-246 179.5,-240 179.5,-240 179.5,-228 179.5,-228 179.5,-222 185.5,-216 191.5,-216 191.5,-216 332.5,-216 332.5,-216 338.5,-216 344.5,-222 344.5,-228 344.5,-228 344.5,-240 344.5,-240 344.5,-246 338.5,-252 332.5,-252"/>
<text text-anchor="middle" x="262" y="-231.5" font-family="sans" font-size="10.00">download_treatmentResponse</text>
</g>
<!-- 3&#45;&gt;2 -->
<g id="edge11" class="edge">
<title>3&#45;&gt;2</title>
<path fill="none" stroke="grey" stroke-width="2" d="M297.47,-215.88C317.12,-206.39 341.72,-194.51 362.63,-184.42"/>
<polygon fill="grey" stroke="grey" stroke-width="2" points="364.16,-187.57 371.64,-180.07 361.12,-181.26 364.16,-187.57"/>
</g>
<!-- 4 -->
<g id="node5" class="node">
<title>4</title>
<path fill="none" stroke="#56a9d8" stroke-width="2" d="M302,-468C302,-468 156,-468 156,-468 150,-468 144,-462 144,-456 144,-456 144,-444 144,-444 144,-438 150,-432 156,-432 156,-432 302,-432 302,-432 308,-432 314,-438 314,-444 314,-444 314,-456 314,-456 314,-462 308,-468 302,-468"/>
<text text-anchor="middle" x="229" y="-447.5" font-family="sans" font-size="10.00">preprocess_treatmentMetadata</text>
</g>
<!-- 4&#45;&gt;2 -->
<g id="edge13" class="edge">
<title>4&#45;&gt;2</title>
<path fill="none" stroke="grey" stroke-width="2" d="M248.15,-431.99C258.61,-422.11 271.36,-409.07 281,-396 332.16,-326.68 375.91,-234.05 395.71,-189.34"/>
<polygon fill="grey" stroke="grey" stroke-width="2" points="398.97,-190.61 399.78,-180.05 392.56,-187.8 398.97,-190.61"/>
</g>
<!-- 10 -->
<g id="node11" class="node">
<title>10</title>
<path fill="none" stroke="#d85656" stroke-width="2" d="M126,-180C126,-180 12,-180 12,-180 6,-180 0,-174 0,-168 0,-168 0,-156 0,-156 0,-150 6,-144 12,-144 12,-144 126,-144 126,-144 132,-144 138,-150 138,-156 138,-156 138,-168 138,-168 138,-174 132,-180 126,-180"/>
<text text-anchor="middle" x="69" y="-159.5" font-family="sans" font-size="10.00">annotate_TreatmentData</text>
</g>
<!-- 4&#45;&gt;10 -->
<g id="edge21" class="edge">
<title>4&#45;&gt;10</title>
<path fill="none" stroke="grey" stroke-width="2" d="M153.25,-431.94C128.53,-423.85 102.05,-412.28 81,-396 50.39,-372.31 43.39,-360.99 32,-324 25.51,-302.94 36.85,-222.81 39,-216 41.95,-206.67 46.68,-197.16 51.53,-188.82"/>
<polygon fill="grey" stroke="grey" stroke-width="2" points="54.51,-190.65 56.75,-180.29 48.55,-186.99 54.51,-190.65"/>
</g>
<!-- 12 -->
<g id="node13" class="node">
<title>12</title>
<path fill="none" stroke="#56b9d8" stroke-width="2" d="M260,-396C260,-396 102,-396 102,-396 96,-396 90,-390 90,-384 90,-384 90,-372 90,-372 90,-366 96,-360 102,-360 102,-360 260,-360 260,-360 266,-360 272,-366 272,-372 272,-372 272,-384 272,-384 272,-390 266,-396 260,-396"/>
<text text-anchor="middle" x="181" y="-375.5" font-family="sans" font-size="10.00">map_treatments_to_PubChemCID</text>
</g>
<!-- 4&#45;&gt;12 -->
<g id="edge23" class="edge">
<title>4&#45;&gt;12</title>
<path fill="none" stroke="grey" stroke-width="2" d="M217.13,-431.7C211.5,-423.47 204.65,-413.48 198.43,-404.42"/>
<polygon fill="grey" stroke="grey" stroke-width="2" points="201.27,-402.37 192.73,-396.1 195.5,-406.33 201.27,-402.37"/>
</g>
<!-- 5 -->
<g id="node6" class="node">
<title>5</title>
<path fill="none" stroke="#56d8c9" stroke-width="2" d="M297,-540C297,-540 161,-540 161,-540 155,-540 149,-534 149,-528 149,-528 149,-516 149,-516 149,-510 155,-504 161,-504 161,-504 297,-504 297,-504 303,-504 309,-510 309,-516 309,-516 309,-528 309,-528 309,-534 303,-540 297,-540"/>
<text text-anchor="middle" x="229" y="-519.5" font-family="sans" font-size="10.00">downloadTreatmentMetadata</text>
</g>
<!-- 5&#45;&gt;4 -->
<g id="edge15" class="edge">
<title>5&#45;&gt;4</title>
<path fill="none" stroke="grey" stroke-width="2" d="M229,-503.7C229,-495.98 229,-486.71 229,-478.11"/>
<polygon fill="grey" stroke="grey" stroke-width="2" points="232.5,-478.1 229,-468.1 225.5,-478.1 232.5,-478.1"/>
</g>
<!-- 6 -->
<g id="node7" class="node">
<title>6</title>
<path fill="none" stroke="#d6d856" stroke-width="2" d="M513,-540C513,-540 409,-540 409,-540 403,-540 397,-534 397,-528 397,-528 397,-516 397,-516 397,-510 403,-504 409,-504 409,-504 513,-504 513,-504 519,-504 525,-510 525,-516 525,-516 525,-528 525,-528 525,-534 519,-540 513,-540"/>
<text text-anchor="middle" x="461" y="-519.5" font-family="sans" font-size="10.00">downloadMappingFiles</text>
</g>
<!-- 6&#45;&gt;4 -->
<g id="edge14" class="edge">
<title>6&#45;&gt;4</title>
<path fill="none" stroke="grey" stroke-width="2" d="M404.54,-503.97C371.7,-494.06 330.13,-481.51 295.69,-471.12"/>
<polygon fill="grey" stroke="grey" stroke-width="2" points="296.29,-467.65 285.71,-468.11 294.27,-474.35 296.29,-467.65"/>
</g>
<!-- 7 -->
<g id="node8" class="node">
<title>7</title>
<path fill="none" stroke="#569ad8" stroke-width="2" d="M1039,-252C1039,-252 905,-252 905,-252 899,-252 893,-246 893,-240 893,-240 893,-228 893,-228 893,-222 899,-216 905,-216 905,-216 1039,-216 1039,-216 1045,-216 1051,-222 1051,-228 1051,-228 1051,-240 1051,-240 1051,-246 1045,-252 1039,-252"/>
<text text-anchor="middle" x="972" y="-231.5" font-family="sans" font-size="10.00">preprocess_sampleMetadata</text>
</g>
<!-- 6&#45;&gt;7 -->
<g id="edge16" class="edge">
<title>6&#45;&gt;7</title>
<path fill="none" stroke="grey" stroke-width="2" d="M478.11,-503.72C521.8,-460.59 642.69,-347.43 765,-288 786.1,-277.75 836.87,-264.69 882.85,-254.1"/>
<polygon fill="grey" stroke="grey" stroke-width="2" points="883.91,-257.45 892.88,-251.81 882.35,-250.62 883.91,-257.45"/>
</g>
<!-- 7&#45;&gt;2 -->
<g id="edge12" class="edge">
<title>7&#45;&gt;2</title>
<path fill="none" stroke="grey" stroke-width="2" d="M892.9,-217.41C889.9,-216.92 886.92,-216.44 884,-216 815.46,-205.59 634.49,-186.32 516.21,-174.11"/>
<polygon fill="grey" stroke="grey" stroke-width="2" points="516.33,-170.6 506.03,-173.06 515.62,-177.56 516.33,-170.6"/>
</g>
<!-- 14 -->
<g id="node15" class="node">
<title>14</title>
<path fill="none" stroke="#59d856" stroke-width="2" d="M728.5,-180C728.5,-180 603.5,-180 603.5,-180 597.5,-180 591.5,-174 591.5,-168 591.5,-168 591.5,-156 591.5,-156 591.5,-150 597.5,-144 603.5,-144 603.5,-144 728.5,-144 728.5,-144 734.5,-144 740.5,-150 740.5,-156 740.5,-156 740.5,-168 740.5,-168 740.5,-174 734.5,-180 728.5,-180"/>
<text text-anchor="middle" x="666" y="-159.5" font-family="sans" font-size="10.00">annotate_SampleMetadata</text>
</g>
<!-- 7&#45;&gt;14 -->
<g id="edge26" class="edge">
<title>7&#45;&gt;14</title>
<path fill="none" stroke="grey" stroke-width="2" d="M897.54,-215.97C853.12,-205.8 796.58,-192.87 750.5,-182.33"/>
<polygon fill="grey" stroke="grey" stroke-width="2" points="751.06,-178.87 740.53,-180.05 749.5,-185.69 751.06,-178.87"/>
</g>
<!-- 20 -->
<g id="node21" class="node">
<title>20</title>
<path fill="none" stroke="#56c9d8" stroke-width="2" d="M1095.5,-180C1095.5,-180 1012.5,-180 1012.5,-180 1006.5,-180 1000.5,-174 1000.5,-168 1000.5,-168 1000.5,-156 1000.5,-156 1000.5,-150 1006.5,-144 1012.5,-144 1012.5,-144 1095.5,-144 1095.5,-144 1101.5,-144 1107.5,-150 1107.5,-156 1107.5,-156 1107.5,-168 1107.5,-168 1107.5,-174 1101.5,-180 1095.5,-180"/>
<text text-anchor="middle" x="1054" y="-159.5" font-family="sans" font-size="10.00">make_RNASEQ_SE</text>
</g>
<!-- 7&#45;&gt;20 -->
<g id="edge30" class="edge">
<title>7&#45;&gt;20</title>
<path fill="none" stroke="grey" stroke-width="2" d="M992.27,-215.7C1002.5,-206.97 1015.06,-196.24 1026.18,-186.75"/>
<polygon fill="grey" stroke="grey" stroke-width="2" points="1028.63,-189.26 1033.96,-180.1 1024.09,-183.94 1028.63,-189.26"/>
</g>
<!-- 22 -->
<g id="node23" class="node">
<title>22</title>
<path fill="none" stroke="#a7d856" stroke-width="2" d="M970.5,-180C970.5,-180 907.5,-180 907.5,-180 901.5,-180 895.5,-174 895.5,-168 895.5,-168 895.5,-156 895.5,-156 895.5,-150 901.5,-144 907.5,-144 907.5,-144 970.5,-144 970.5,-144 976.5,-144 982.5,-150 982.5,-156 982.5,-156 982.5,-168 982.5,-168 982.5,-174 976.5,-180 970.5,-180"/>
<text text-anchor="middle" x="939" y="-159.5" font-family="sans" font-size="10.00">make_CNV_SE</text>
</g>
<!-- 7&#45;&gt;22 -->
<g id="edge34" class="edge">
<title>7&#45;&gt;22</title>
<path fill="none" stroke="grey" stroke-width="2" d="M963.84,-215.7C960.09,-207.73 955.55,-198.1 951.38,-189.26"/>
<polygon fill="grey" stroke="grey" stroke-width="2" points="954.49,-187.66 947.06,-180.1 948.16,-190.64 954.49,-187.66"/>
</g>
<!-- 24 -->
<g id="node25" class="node">
<title>24</title>
<path fill="none" stroke="#56d8b9" stroke-width="2" d="M865,-180C865,-180 771,-180 771,-180 765,-180 759,-174 759,-168 759,-168 759,-156 759,-156 759,-150 765,-144 771,-144 771,-144 865,-144 865,-144 871,-144 877,-150 877,-156 877,-156 877,-168 877,-168 877,-174 871,-180 865,-180"/>
<text text-anchor="middle" x="818" y="-159.5" font-family="sans" font-size="10.00">make_MUTATION_SE</text>
</g>
<!-- 7&#45;&gt;24 -->
<g id="edge36" class="edge">
<title>7&#45;&gt;24</title>
<path fill="none" stroke="grey" stroke-width="2" d="M934.33,-215.88C913.37,-206.35 887.1,-194.41 864.82,-184.28"/>
<polygon fill="grey" stroke="grey" stroke-width="2" points="866.1,-181.02 855.55,-180.07 863.21,-187.39 866.1,-181.02"/>
</g>
<!-- 26 -->
<g id="node27" class="node">
<title>26</title>
<path fill="none" stroke="#568ad8" stroke-width="2" d="M1218,-180C1218,-180 1138,-180 1138,-180 1132,-180 1126,-174 1126,-168 1126,-168 1126,-156 1126,-156 1126,-150 1132,-144 1138,-144 1138,-144 1218,-144 1218,-144 1224,-144 1230,-150 1230,-156 1230,-156 1230,-168 1230,-168 1230,-174 1224,-180 1218,-180"/>
<text text-anchor="middle" x="1178" y="-159.5" font-family="sans" font-size="10.00">make_FUSION_SE</text>
</g>
<!-- 7&#45;&gt;26 -->
<g id="edge40" class="edge">
<title>7&#45;&gt;26</title>
<path fill="none" stroke="grey" stroke-width="2" d="M1022.13,-215.97C1051.04,-206.14 1087.57,-193.73 1118,-183.39"/>
<polygon fill="grey" stroke="grey" stroke-width="2" points="1119.3,-186.64 1127.65,-180.11 1117.05,-180.01 1119.3,-186.64"/>
</g>
<!-- 28 -->
<g id="node29" class="node">
<title>28</title>
<path fill="none" stroke="#88d856" stroke-width="2" d="M1556.5,-180C1556.5,-180 1449.5,-180 1449.5,-180 1443.5,-180 1437.5,-174 1437.5,-168 1437.5,-168 1437.5,-156 1437.5,-156 1437.5,-150 1443.5,-144 1449.5,-144 1449.5,-144 1556.5,-144 1556.5,-144 1562.5,-144 1568.5,-150 1568.5,-156 1568.5,-156 1568.5,-168 1568.5,-168 1568.5,-174 1562.5,-180 1556.5,-180"/>
<text text-anchor="middle" x="1503" y="-159.5" font-family="sans" font-size="10.00">make_MICROARRAY_SE</text>
</g>
<!-- 7&#45;&gt;28 -->
<g id="edge42" class="edge">
<title>7&#45;&gt;28</title>
<path fill="none" stroke="grey" stroke-width="2" d="M1051.11,-217.44C1054.11,-216.94 1057.08,-216.46 1060,-216 1188.46,-195.93 1338.91,-179.4 1427.3,-170.39"/>
<polygon fill="grey" stroke="grey" stroke-width="2" points="1427.9,-173.84 1437.5,-169.35 1427.19,-166.88 1427.9,-173.84"/>
</g>
<!-- 8 -->
<g id="node9" class="node">
<title>8</title>
<path fill="none" stroke="#d87556" stroke-width="2" d="M909.5,-324C909.5,-324 786.5,-324 786.5,-324 780.5,-324 774.5,-318 774.5,-312 774.5,-312 774.5,-300 774.5,-300 774.5,-294 780.5,-288 786.5,-288 786.5,-288 909.5,-288 909.5,-288 915.5,-288 921.5,-294 921.5,-300 921.5,-300 921.5,-312 921.5,-312 921.5,-318 915.5,-324 909.5,-324"/>
<text text-anchor="middle" x="848" y="-303.5" font-family="sans" font-size="10.00">downloadSampleMetadata</text>
</g>
<!-- 8&#45;&gt;7 -->
<g id="edge17" class="edge">
<title>8&#45;&gt;7</title>
<path fill="none" stroke="grey" stroke-width="2" d="M878.33,-287.88C894.7,-278.64 915.08,-267.13 932.65,-257.21"/>
<polygon fill="grey" stroke="grey" stroke-width="2" points="934.56,-260.15 941.55,-252.19 931.12,-254.06 934.56,-260.15"/>
</g>
<!-- 9 -->
<g id="node10" class="node">
<title>9</title>
<path fill="none" stroke="#56d8a9" stroke-width="2" d="M1134,-324C1134,-324 952,-324 952,-324 946,-324 940,-318 940,-312 940,-312 940,-300 940,-300 940,-294 946,-288 952,-288 952,-288 1134,-288 1134,-288 1140,-288 1146,-294 1146,-300 1146,-300 1146,-312 1146,-312 1146,-318 1140,-324 1134,-324"/>
<text text-anchor="middle" x="1043" y="-303.5" font-family="sans" font-size="10.00">downloadCellModelPassportsMetadata</text>
</g>
<!-- 9&#45;&gt;7 -->
<g id="edge18" class="edge">
<title>9&#45;&gt;7</title>
<path fill="none" stroke="grey" stroke-width="2" d="M1025.45,-287.7C1016.77,-279.14 1006.14,-268.66 996.65,-259.3"/>
<polygon fill="grey" stroke="grey" stroke-width="2" points="998.93,-256.63 989.35,-252.1 994.01,-261.62 998.93,-256.63"/>
</g>
<!-- 16 -->
<g id="node17" class="node">
<title>16</title>
<path fill="none" stroke="#5663d8" stroke-width="2" d="M1209,-252C1209,-252 1081,-252 1081,-252 1075,-252 1069,-246 1069,-240 1069,-240 1069,-228 1069,-228 1069,-222 1075,-216 1081,-216 1081,-216 1209,-216 1209,-216 1215,-216 1221,-222 1221,-228 1221,-228 1221,-240 1221,-240 1221,-246 1215,-252 1209,-252"/>
<text text-anchor="middle" x="1145" y="-231.5" font-family="sans" font-size="10.00">preprocess_geneAnnotation</text>
</g>
<!-- 9&#45;&gt;16 -->
<g id="edge28" class="edge">
<title>9&#45;&gt;16</title>
<path fill="none" stroke="grey" stroke-width="2" d="M1067.95,-287.88C1081.04,-278.89 1097.26,-267.76 1111.44,-258.03"/>
<polygon fill="grey" stroke="grey" stroke-width="2" points="1113.69,-260.73 1119.95,-252.19 1109.73,-254.96 1113.69,-260.73"/>
</g>
<!-- 10&#45;&gt;1 -->
<g id="edge2" class="edge">
<title>10&#45;&gt;1</title>
<path fill="none" stroke="grey" stroke-width="2" d="M138.36,-155.42C302.62,-142.2 713.58,-109.14 873.7,-96.25"/>
<polygon fill="grey" stroke="grey" stroke-width="2" points="874.19,-99.73 883.87,-95.44 873.63,-92.75 874.19,-99.73"/>
</g>
<!-- 11 -->
<g id="node12" class="node">
<title>11</title>
<path fill="none" stroke="#b6d856" stroke-width="2" d="M164.5,-324C164.5,-324 53.5,-324 53.5,-324 47.5,-324 41.5,-318 41.5,-312 41.5,-312 41.5,-300 41.5,-300 41.5,-294 47.5,-288 53.5,-288 53.5,-288 164.5,-288 164.5,-288 170.5,-288 176.5,-294 176.5,-300 176.5,-300 176.5,-312 176.5,-312 176.5,-318 170.5,-324 164.5,-324"/>
<text text-anchor="middle" x="109" y="-303.5" font-family="sans" font-size="10.00">annotate_PubChemCIDS</text>
</g>
<!-- 11&#45;&gt;10 -->
<g id="edge20" class="edge">
<title>11&#45;&gt;10</title>
<path fill="none" stroke="grey" stroke-width="2" d="M79.5,-287.94C67.02,-278.99 53.81,-266.79 47,-252 37.74,-231.9 45.03,-207.39 53.62,-189.18"/>
<polygon fill="grey" stroke="grey" stroke-width="2" points="56.85,-190.53 58.29,-180.04 50.62,-187.35 56.85,-190.53"/>
</g>
<!-- 13 -->
<g id="node14" class="node">
<title>13</title>
<path fill="none" stroke="#78d856" stroke-width="2" d="M149.5,-252C149.5,-252 68.5,-252 68.5,-252 62.5,-252 56.5,-246 56.5,-240 56.5,-240 56.5,-228 56.5,-228 56.5,-222 62.5,-216 68.5,-216 68.5,-216 149.5,-216 149.5,-216 155.5,-216 161.5,-222 161.5,-228 161.5,-228 161.5,-240 161.5,-240 161.5,-246 155.5,-252 149.5,-252"/>
<text text-anchor="middle" x="109" y="-231.5" font-family="sans" font-size="10.00">annotate_ChEMBL</text>
</g>
<!-- 11&#45;&gt;13 -->
<g id="edge24" class="edge">
<title>11&#45;&gt;13</title>
<path fill="none" stroke="grey" stroke-width="2" d="M109,-287.7C109,-279.98 109,-270.71 109,-262.11"/>
<polygon fill="grey" stroke="grey" stroke-width="2" points="112.5,-262.1 109,-252.1 105.5,-262.1 112.5,-262.1"/>
</g>
<!-- 12&#45;&gt;11 -->
<g id="edge22" class="edge">
<title>12&#45;&gt;11</title>
<path fill="none" stroke="grey" stroke-width="2" d="M163.2,-359.7C154.4,-351.14 143.62,-340.66 134,-331.3"/>
<polygon fill="grey" stroke="grey" stroke-width="2" points="136.2,-328.57 126.59,-324.1 131.32,-333.58 136.2,-328.57"/>
</g>
<!-- 13&#45;&gt;10 -->
<g id="edge19" class="edge">
<title>13&#45;&gt;10</title>
<path fill="none" stroke="grey" stroke-width="2" d="M99.11,-215.7C94.51,-207.64 88.94,-197.89 83.85,-188.98"/>
<polygon fill="grey" stroke="grey" stroke-width="2" points="86.77,-187.05 78.77,-180.1 80.7,-190.52 86.77,-187.05"/>
</g>
<!-- 14&#45;&gt;1 -->
<g id="edge3" class="edge">
<title>14&#45;&gt;1</title>
<path fill="none" stroke="grey" stroke-width="2" d="M732.43,-143.97C775.48,-132.93 831.29,-118.62 874.04,-107.66"/>
<polygon fill="grey" stroke="grey" stroke-width="2" points="874.96,-111.03 883.78,-105.16 873.23,-104.25 874.96,-111.03"/>
</g>
<!-- 15 -->
<g id="node16" class="node">
<title>15</title>
<path fill="none" stroke="#56d88a" stroke-width="2" d="M510.5,-252C510.5,-252 413.5,-252 413.5,-252 407.5,-252 401.5,-246 401.5,-240 401.5,-240 401.5,-228 401.5,-228 401.5,-222 407.5,-216 413.5,-216 413.5,-216 510.5,-216 510.5,-216 516.5,-216 522.5,-222 522.5,-228 522.5,-228 522.5,-240 522.5,-240 522.5,-246 516.5,-252 510.5,-252"/>
<text text-anchor="middle" x="462" y="-231.5" font-family="sans" font-size="10.00">getCellosaurusObject</text>
</g>
<!-- 15&#45;&gt;14 -->
<g id="edge25" class="edge">
<title>15&#45;&gt;14</title>
<path fill="none" stroke="grey" stroke-width="2" d="M511.64,-215.97C540.27,-206.14 576.45,-193.73 606.58,-183.39"/>
<polygon fill="grey" stroke="grey" stroke-width="2" points="607.81,-186.67 616.13,-180.11 605.54,-180.05 607.81,-186.67"/>
</g>
<!-- 16&#45;&gt;1 -->
<g id="edge4" class="edge">
<title>16&#45;&gt;1</title>
<path fill="none" stroke="grey" stroke-width="2" d="M1196.65,-215.96C1213.14,-207.8 1229.55,-196.18 1239,-180 1247.07,-166.18 1249.28,-156.26 1239,-144 1209.68,-109.05 1083.66,-97.14 1004.57,-93.08"/>
<polygon fill="grey" stroke="grey" stroke-width="2" points="1004.37,-89.57 994.21,-92.58 1004.03,-96.56 1004.37,-89.57"/>
</g>
<!-- 16&#45;&gt;20 -->
<g id="edge32" class="edge">
<title>16&#45;&gt;20</title>
<path fill="none" stroke="grey" stroke-width="2" d="M1122.51,-215.7C1111.04,-206.88 1096.94,-196.03 1084.52,-186.47"/>
<polygon fill="grey" stroke="grey" stroke-width="2" points="1086.3,-183.43 1076.24,-180.1 1082.03,-188.98 1086.3,-183.43"/>
</g>
<!-- 16&#45;&gt;22 -->
<g id="edge35" class="edge">
<title>16&#45;&gt;22</title>
<path fill="none" stroke="grey" stroke-width="2" d="M1094.87,-215.97C1063.79,-205.4 1023.89,-191.85 992.24,-181.09"/>
<polygon fill="grey" stroke="grey" stroke-width="2" points="993.3,-177.75 982.7,-177.85 991.05,-184.38 993.3,-177.75"/>
</g>
<!-- 16&#45;&gt;24 -->
<g id="edge38" class="edge">
<title>16&#45;&gt;24</title>
<path fill="none" stroke="grey" stroke-width="2" d="M1068.96,-217.61C1006.19,-204.89 922.86,-187.92 887.4,-180.22"/>
<polygon fill="grey" stroke="grey" stroke-width="2" points="887.82,-176.73 877.3,-177.99 886.31,-183.57 887.82,-176.73"/>
</g>
<!-- 16&#45;&gt;26 -->
<g id="edge41" class="edge">
<title>16&#45;&gt;26</title>
<path fill="none" stroke="grey" stroke-width="2" d="M1153.16,-215.7C1156.91,-207.73 1161.45,-198.1 1165.62,-189.26"/>
<polygon fill="grey" stroke="grey" stroke-width="2" points="1168.84,-190.64 1169.94,-180.1 1162.51,-187.66 1168.84,-190.64"/>
</g>
<!-- 17 -->
<g id="node18" class="node">
<title>17</title>
<path fill="none" stroke="#d8b456" stroke-width="2" d="M1316,-324C1316,-324 1176,-324 1176,-324 1170,-324 1164,-318 1164,-312 1164,-312 1164,-300 1164,-300 1164,-294 1170,-288 1176,-288 1176,-288 1316,-288 1316,-288 1322,-288 1328,-294 1328,-300 1328,-300 1328,-312 1328,-312 1328,-318 1322,-324 1316,-324"/>
<text text-anchor="middle" x="1246" y="-303.5" font-family="sans" font-size="10.00">download_EnsemblAnnotation</text>
</g>
<!-- 17&#45;&gt;16 -->
<g id="edge27" class="edge">
<title>17&#45;&gt;16</title>
<path fill="none" stroke="grey" stroke-width="2" d="M1221.29,-287.88C1208.33,-278.89 1192.27,-267.76 1178.23,-258.03"/>
<polygon fill="grey" stroke="grey" stroke-width="2" points="1180.02,-255.01 1169.8,-252.19 1176.03,-260.76 1180.02,-255.01"/>
</g>
<!-- 18 -->
<g id="node19" class="node">
<title>18</title>
<path fill="none" stroke="#56d89a" stroke-width="2" d="M1662.5,-252C1662.5,-252 1543.5,-252 1543.5,-252 1537.5,-252 1531.5,-246 1531.5,-240 1531.5,-240 1531.5,-228 1531.5,-228 1531.5,-222 1537.5,-216 1543.5,-216 1543.5,-216 1662.5,-216 1662.5,-216 1668.5,-216 1674.5,-222 1674.5,-228 1674.5,-228 1674.5,-240 1674.5,-240 1674.5,-246 1668.5,-252 1662.5,-252"/>
<text text-anchor="middle" x="1603" y="-231.5" font-family="sans" font-size="10.00">load_MicroArrayMetadata</text>
</g>
<!-- 18&#45;&gt;28 -->
<g id="edge44" class="edge">
<title>18&#45;&gt;28</title>
<path fill="none" stroke="grey" stroke-width="2" d="M1578.54,-215.88C1565.7,-206.89 1549.8,-195.76 1535.91,-186.03"/>
<polygon fill="grey" stroke="grey" stroke-width="2" points="1537.76,-183.06 1527.56,-180.19 1533.74,-188.79 1537.76,-183.06"/>
</g>
<!-- 19 -->
<g id="node20" class="node">
<title>19</title>
<path fill="none" stroke="#d8a456" stroke-width="2" d="M1625.5,-324C1625.5,-324 1480.5,-324 1480.5,-324 1474.5,-324 1468.5,-318 1468.5,-312 1468.5,-312 1468.5,-300 1468.5,-300 1468.5,-294 1474.5,-288 1480.5,-288 1480.5,-288 1625.5,-288 1625.5,-288 1631.5,-288 1637.5,-294 1637.5,-300 1637.5,-300 1637.5,-312 1637.5,-312 1637.5,-318 1631.5,-324 1625.5,-324"/>
<text text-anchor="middle" x="1553" y="-303.5" font-family="sans" font-size="10.00">download_MicroArrayMetadata</text>
</g>
<!-- 19&#45;&gt;18 -->
<g id="edge29" class="edge">
<title>19&#45;&gt;18</title>
<path fill="none" stroke="grey" stroke-width="2" d="M1565.36,-287.7C1571.23,-279.47 1578.37,-269.48 1584.84,-260.42"/>
<polygon fill="grey" stroke="grey" stroke-width="2" points="1587.82,-262.28 1590.78,-252.1 1582.12,-258.21 1587.82,-262.28"/>
</g>
<!-- 19&#45;&gt;28 -->
<g id="edge45" class="edge">
<title>19&#45;&gt;28</title>
<path fill="none" stroke="grey" stroke-width="2" d="M1540.89,-287.57C1534.44,-277.56 1526.85,-264.52 1522,-252 1514.26,-232.02 1509.38,-208.23 1506.52,-190.28"/>
<polygon fill="grey" stroke="grey" stroke-width="2" points="1509.95,-189.57 1505.02,-180.2 1503.03,-190.6 1509.95,-189.57"/>
</g>
<!-- 20&#45;&gt;1 -->
<g id="edge10" class="edge">
<title>20&#45;&gt;1</title>
<path fill="none" stroke="grey" stroke-width="2" d="M1025.87,-143.88C1010.83,-134.72 992.13,-123.34 975.94,-113.48"/>
<polygon fill="grey" stroke="grey" stroke-width="2" points="977.6,-110.4 967.24,-108.19 973.96,-116.38 977.6,-110.4"/>
</g>
<!-- 21 -->
<g id="node22" class="node">
<title>21</title>
<path fill="none" stroke="#d89556" stroke-width="2" d="M1337,-252C1337,-252 1251,-252 1251,-252 1245,-252 1239,-246 1239,-240 1239,-240 1239,-228 1239,-228 1239,-222 1245,-216 1251,-216 1251,-216 1337,-216 1337,-216 1343,-216 1349,-222 1349,-228 1349,-228 1349,-240 1349,-240 1349,-246 1343,-252 1337,-252"/>
<text text-anchor="middle" x="1294" y="-231.5" font-family="sans" font-size="10.00">download_RNASEQ</text>
</g>
<!-- 21&#45;&gt;20 -->
<g id="edge31" class="edge">
<title>21&#45;&gt;20</title>
<path fill="none" stroke="grey" stroke-width="2" d="M1238.94,-216.94C1202.73,-206.38 1155.24,-192.53 1117.45,-181.51"/>
<polygon fill="grey" stroke="grey" stroke-width="2" points="1118.15,-178.06 1107.57,-178.62 1116.19,-184.78 1118.15,-178.06"/>
</g>
<!-- 22&#45;&gt;1 -->
<g id="edge5" class="edge">
<title>22&#45;&gt;1</title>
<path fill="none" stroke="grey" stroke-width="2" d="M939,-143.7C939,-135.98 939,-126.71 939,-118.11"/>
<polygon fill="grey" stroke="grey" stroke-width="2" points="942.5,-118.1 939,-108.1 935.5,-118.1 942.5,-118.1"/>
</g>
<!-- 23 -->
<g id="node24" class="node">
<title>23</title>
<path fill="none" stroke="#d86656" stroke-width="2" d="M863,-252C863,-252 747,-252 747,-252 741,-252 735,-246 735,-240 735,-240 735,-228 735,-228 735,-222 741,-216 747,-216 747,-216 863,-216 863,-216 869,-216 875,-222 875,-228 875,-228 875,-240 875,-240 875,-246 869,-252 863,-252"/>
<text text-anchor="middle" x="805" y="-231.5" font-family="sans" font-size="10.00">download_CNV_WESData</text>
</g>
<!-- 23&#45;&gt;22 -->
<g id="edge33" class="edge">
<title>23&#45;&gt;22</title>
<path fill="none" stroke="grey" stroke-width="2" d="M837.78,-215.88C855.63,-206.55 877.9,-194.92 897,-184.94"/>
<polygon fill="grey" stroke="grey" stroke-width="2" points="898.85,-187.92 906.09,-180.19 895.61,-181.72 898.85,-187.92"/>
</g>
<!-- 24&#45;&gt;1 -->
<g id="edge9" class="edge">
<title>24&#45;&gt;1</title>
<path fill="none" stroke="grey" stroke-width="2" d="M847.6,-143.88C863.57,-134.64 883.46,-123.13 900.61,-113.21"/>
<polygon fill="grey" stroke="grey" stroke-width="2" points="902.38,-116.23 909.29,-108.19 898.88,-110.17 902.38,-116.23"/>
</g>
<!-- 25 -->
<g id="node26" class="node">
<title>25</title>
<path fill="none" stroke="#97d856" stroke-width="2" d="M705,-252C705,-252 553,-252 553,-252 547,-252 541,-246 541,-240 541,-240 541,-228 541,-228 541,-222 547,-216 553,-216 553,-216 705,-216 705,-216 711,-216 717,-222 717,-228 717,-228 717,-240 717,-240 717,-246 711,-252 705,-252"/>
<text text-anchor="middle" x="629" y="-231.5" font-family="sans" font-size="10.00">download_MUTATION_processed</text>
</g>
<!-- 25&#45;&gt;24 -->
<g id="edge37" class="edge">
<title>25&#45;&gt;24</title>
<path fill="none" stroke="grey" stroke-width="2" d="M675.23,-215.88C701.53,-206.14 734.64,-193.87 762.36,-183.61"/>
<polygon fill="grey" stroke="grey" stroke-width="2" points="763.75,-186.82 771.92,-180.07 761.32,-180.26 763.75,-186.82"/>
</g>
<!-- 26&#45;&gt;1 -->
<g id="edge7" class="edge">
<title>26&#45;&gt;1</title>
<path fill="none" stroke="grey" stroke-width="2" d="M1125.85,-145.72C1090.16,-135.27 1042.59,-121.34 1004.38,-110.15"/>
<polygon fill="grey" stroke="grey" stroke-width="2" points="1004.95,-106.67 994.37,-107.22 1002.98,-113.39 1004.95,-106.67"/>
</g>
<!-- 27 -->
<g id="node28" class="node">
<title>27</title>
<path fill="none" stroke="#68d856" stroke-width="2" d="M1462.5,-252C1462.5,-252 1379.5,-252 1379.5,-252 1373.5,-252 1367.5,-246 1367.5,-240 1367.5,-240 1367.5,-228 1367.5,-228 1367.5,-222 1373.5,-216 1379.5,-216 1379.5,-216 1462.5,-216 1462.5,-216 1468.5,-216 1474.5,-222 1474.5,-228 1474.5,-228 1474.5,-240 1474.5,-240 1474.5,-246 1468.5,-252 1462.5,-252"/>
<text text-anchor="middle" x="1421" y="-231.5" font-family="sans" font-size="10.00">download_FUSION</text>
</g>
<!-- 27&#45;&gt;26 -->
<g id="edge39" class="edge">
<title>27&#45;&gt;26</title>
<path fill="none" stroke="grey" stroke-width="2" d="M1367.37,-217.55C1329.75,-206.71 1279.34,-192.19 1239.99,-180.86"/>
<polygon fill="grey" stroke="grey" stroke-width="2" points="1240.82,-177.45 1230.24,-178.05 1238.88,-184.18 1240.82,-177.45"/>
</g>
<!-- 28&#45;&gt;1 -->
<g id="edge6" class="edge">
<title>28&#45;&gt;1</title>
<path fill="none" stroke="grey" stroke-width="2" d="M1437.47,-152.87C1328.93,-139.4 1113.05,-112.6 1004.51,-99.13"/>
<polygon fill="grey" stroke="grey" stroke-width="2" points="1004.71,-95.63 994.35,-97.87 1003.84,-102.57 1004.71,-95.63"/>
</g>
<!-- 29 -->
<g id="node30" class="node">
<title>29</title>
<path fill="none" stroke="#567bd8" stroke-width="2" d="M1821,-252C1821,-252 1705,-252 1705,-252 1699,-252 1693,-246 1693,-240 1693,-240 1693,-228 1693,-228 1693,-222 1699,-216 1705,-216 1705,-216 1821,-216 1821,-216 1827,-216 1833,-222 1833,-228 1833,-228 1833,-240 1833,-240 1833,-246 1827,-252 1821,-252"/>
<text text-anchor="middle" x="1763" y="-231.5" font-family="sans" font-size="10.00">download_MicroArrayCEL</text>
</g>
<!-- 29&#45;&gt;28 -->
<g id="edge43" class="edge">
<title>29&#45;&gt;28</title>
<path fill="none" stroke="grey" stroke-width="2" d="M1699.73,-215.97C1662.45,-205.93 1615.14,-193.19 1576.25,-182.72"/>
<polygon fill="grey" stroke="grey" stroke-width="2" points="1577.12,-179.33 1566.55,-180.11 1575.3,-186.09 1577.12,-179.33"/>
</g>
</g>
</svg>
