<?xml version="1.0" encoding="UTF-8" standalone="no"?>
<!DOCTYPE svg PUBLIC "-//W3C//DTD SVG 1.1//EN"
 "http://www.w3.org/Graphics/SVG/1.1/DTD/svg11.dtd">
<!-- Generated by graphviz version 2.43.0 (0)
 -->
<!-- Title: snakemake_dag Pages: 1 -->
<svg width="1727pt" height="476pt"
 viewBox="0.00 0.00 1727.00 476.00" xmlns="http://www.w3.org/2000/svg" xmlns:xlink="http://www.w3.org/1999/xlink">
<g id="graph0" class="graph" transform="scale(1 1) rotate(0) translate(4 472)">
<title>snakemake_dag</title>
<polygon fill="white" stroke="transparent" points="-4,4 -4,-472 1723,-472 1723,4 -4,4"/>
<!-- 0 -->
<g id="node1" class="node">
<title>0</title>
<path fill="none" stroke="#56d87b" stroke-width="2" d="M938,-36C938,-36 861,-36 861,-36 855,-36 849,-30 849,-24 849,-24 849,-12 849,-12 849,-6 855,0 861,0 861,0 938,0 938,0 944,0 950,-6 950,-12 950,-12 950,-24 950,-24 950,-30 944,-36 938,-36"/>
<text text-anchor="middle" x="899.5" y="-15.5" font-family="sans" font-size="10.00">get_Pharmacoset</text>
</g>
<!-- 1 -->
<g id="node2" class="node">
<title>1</title>
<path fill="none" stroke="#569ad8" stroke-width="2" d="M942.5,-108C942.5,-108 856.5,-108 856.5,-108 850.5,-108 844.5,-102 844.5,-96 844.5,-96 844.5,-84 844.5,-84 844.5,-78 850.5,-72 856.5,-72 856.5,-72 942.5,-72 942.5,-72 948.5,-72 954.5,-78 954.5,-84 954.5,-84 954.5,-96 954.5,-96 954.5,-102 948.5,-108 942.5,-108"/>
<text text-anchor="middle" x="899.5" y="-87.5" font-family="sans" font-size="10.00">build_Pharmacoset</text>
</g>
<!-- 1&#45;&gt;0 -->
<g id="edge1" class="edge">
<title>1&#45;&gt;0</title>
<path fill="none" stroke="grey" stroke-width="2" d="M899.5,-71.7C899.5,-63.98 899.5,-54.71 899.5,-46.11"/>
<polygon fill="grey" stroke="grey" stroke-width="2" points="903,-46.1 899.5,-36.1 896,-46.1 903,-46.1"/>
</g>
<!-- 2 -->
<g id="node3" class="node">
<title>2</title>
<path fill="none" stroke="#568ad8" stroke-width="2" d="M308.5,-180C308.5,-180 152.5,-180 152.5,-180 146.5,-180 140.5,-174 140.5,-168 140.5,-168 140.5,-156 140.5,-156 140.5,-150 146.5,-144 152.5,-144 152.5,-144 308.5,-144 308.5,-144 314.5,-144 320.5,-150 320.5,-156 320.5,-156 320.5,-168 320.5,-168 320.5,-174 314.5,-180 308.5,-180"/>
<text text-anchor="middle" x="230.5" y="-159.5" font-family="sans" font-size="10.00">fit_reatmentResponseExperiment</text>
</g>
<!-- 2&#45;&gt;1 -->
<g id="edge6" class="edge">
<title>2&#45;&gt;1</title>
<path fill="none" stroke="grey" stroke-width="2" d="M320.81,-149.39C336.05,-147.52 351.72,-145.66 366.5,-144 534.91,-125.1 733.66,-106.25 834.2,-96.96"/>
<polygon fill="grey" stroke="grey" stroke-width="2" points="834.57,-100.44 844.21,-96.03 833.93,-93.47 834.57,-100.44"/>
</g>
<!-- 3 -->
<g id="node4" class="node">
<title>3</title>
<path fill="none" stroke="#d85656" stroke-width="2" d="M280.5,-252C280.5,-252 106.5,-252 106.5,-252 100.5,-252 94.5,-246 94.5,-240 94.5,-240 94.5,-228 94.5,-228 94.5,-222 100.5,-216 106.5,-216 106.5,-216 280.5,-216 280.5,-216 286.5,-216 292.5,-222 292.5,-228 292.5,-228 292.5,-240 292.5,-240 292.5,-246 286.5,-252 280.5,-252"/>
<text text-anchor="middle" x="193.5" y="-231.5" font-family="sans" font-size="10.00">build_treatmentResponseExperiment</text>
</g>
<!-- 3&#45;&gt;2 -->
<g id="edge11" class="edge">
<title>3&#45;&gt;2</title>
<path fill="none" stroke="grey" stroke-width="2" d="M202.65,-215.7C206.9,-207.64 212.06,-197.89 216.77,-188.98"/>
<polygon fill="grey" stroke="grey" stroke-width="2" points="219.88,-190.58 221.46,-180.1 213.69,-187.31 219.88,-190.58"/>
</g>
<!-- 4 -->
<g id="node5" class="node">
<title>4</title>
<path fill="none" stroke="#56b9d8" stroke-width="2" d="M153,-324C153,-324 12,-324 12,-324 6,-324 0,-318 0,-312 0,-312 0,-300 0,-300 0,-294 6,-288 12,-288 12,-288 153,-288 153,-288 159,-288 165,-294 165,-300 165,-300 165,-312 165,-312 165,-318 159,-324 153,-324"/>
<text text-anchor="middle" x="82.5" y="-303.5" font-family="sans" font-size="10.00">download_treatmentResponse</text>
</g>
<!-- 4&#45;&gt;3 -->
<g id="edge13" class="edge">
<title>4&#45;&gt;3</title>
<path fill="none" stroke="grey" stroke-width="2" d="M109.65,-287.88C124.03,-278.81 141.88,-267.55 157.41,-257.76"/>
<polygon fill="grey" stroke="grey" stroke-width="2" points="159.65,-260.48 166.24,-252.19 155.92,-254.56 159.65,-260.48"/>
</g>
<!-- 5 -->
<g id="node6" class="node">
<title>5</title>
<path fill="none" stroke="#56d863" stroke-width="2" d="M385.5,-396C385.5,-396 239.5,-396 239.5,-396 233.5,-396 227.5,-390 227.5,-384 227.5,-384 227.5,-372 227.5,-372 227.5,-366 233.5,-360 239.5,-360 239.5,-360 385.5,-360 385.5,-360 391.5,-360 397.5,-366 397.5,-372 397.5,-372 397.5,-384 397.5,-384 397.5,-390 391.5,-396 385.5,-396"/>
<text text-anchor="middle" x="312.5" y="-375.5" font-family="sans" font-size="10.00">preprocess_treatmentMetadata</text>
</g>
<!-- 5&#45;&gt;3 -->
<g id="edge12" class="edge">
<title>5&#45;&gt;3</title>
<path fill="none" stroke="grey" stroke-width="2" d="M260.59,-359.9C242.91,-351.66 224.58,-339.99 212.5,-324 199.14,-306.32 194.72,-281.3 193.45,-262.29"/>
<polygon fill="grey" stroke="grey" stroke-width="2" points="196.94,-262 193.03,-252.16 189.95,-262.29 196.94,-262"/>
</g>
<!-- 13 -->
<g id="node14" class="node">
<title>13</title>
<path fill="none" stroke="#78d856" stroke-width="2" d="M391.5,-324C391.5,-324 233.5,-324 233.5,-324 227.5,-324 221.5,-318 221.5,-312 221.5,-312 221.5,-300 221.5,-300 221.5,-294 227.5,-288 233.5,-288 233.5,-288 391.5,-288 391.5,-288 397.5,-288 403.5,-294 403.5,-300 403.5,-300 403.5,-312 403.5,-312 403.5,-318 397.5,-324 391.5,-324"/>
<text text-anchor="middle" x="312.5" y="-303.5" font-family="sans" font-size="10.00">map_treatments_to_PubChemCID</text>
</g>
<!-- 5&#45;&gt;13 -->
<g id="edge23" class="edge">
<title>5&#45;&gt;13</title>
<path fill="none" stroke="grey" stroke-width="2" d="M312.5,-359.7C312.5,-351.98 312.5,-342.71 312.5,-334.11"/>
<polygon fill="grey" stroke="grey" stroke-width="2" points="316,-334.1 312.5,-324.1 309,-334.1 316,-334.1"/>
</g>
<!-- 6 -->
<g id="node7" class="node">
<title>6</title>
<path fill="none" stroke="#d8cb56" stroke-width="2" d="M380.5,-468C380.5,-468 244.5,-468 244.5,-468 238.5,-468 232.5,-462 232.5,-456 232.5,-456 232.5,-444 232.5,-444 232.5,-438 238.5,-432 244.5,-432 244.5,-432 380.5,-432 380.5,-432 386.5,-432 392.5,-438 392.5,-444 392.5,-444 392.5,-456 392.5,-456 392.5,-462 386.5,-468 380.5,-468"/>
<text text-anchor="middle" x="312.5" y="-447.5" font-family="sans" font-size="10.00">downloadTreatmentMetadata</text>
</g>
<!-- 6&#45;&gt;5 -->
<g id="edge16" class="edge">
<title>6&#45;&gt;5</title>
<path fill="none" stroke="grey" stroke-width="2" d="M312.5,-431.7C312.5,-423.98 312.5,-414.71 312.5,-406.11"/>
<polygon fill="grey" stroke="grey" stroke-width="2" points="316,-406.1 312.5,-396.1 309,-406.1 316,-406.1"/>
</g>
<!-- 7 -->
<g id="node8" class="node">
<title>7</title>
<path fill="none" stroke="#56d8b9" stroke-width="2" d="M582.5,-468C582.5,-468 478.5,-468 478.5,-468 472.5,-468 466.5,-462 466.5,-456 466.5,-456 466.5,-444 466.5,-444 466.5,-438 472.5,-432 478.5,-432 478.5,-432 582.5,-432 582.5,-432 588.5,-432 594.5,-438 594.5,-444 594.5,-444 594.5,-456 594.5,-456 594.5,-462 588.5,-468 582.5,-468"/>
<text text-anchor="middle" x="530.5" y="-447.5" font-family="sans" font-size="10.00">downloadMappingFiles</text>
</g>
<!-- 7&#45;&gt;5 -->
<g id="edge15" class="edge">
<title>7&#45;&gt;5</title>
<path fill="none" stroke="grey" stroke-width="2" d="M477.45,-431.97C446.73,-422.1 407.86,-409.62 375.58,-399.25"/>
<polygon fill="grey" stroke="grey" stroke-width="2" points="376.38,-395.84 365.79,-396.11 374.24,-402.5 376.38,-395.84"/>
</g>
<!-- 8 -->
<g id="node9" class="node">
<title>8</title>
<path fill="none" stroke="#56a9d8" stroke-width="2" d="M835.5,-324C835.5,-324 701.5,-324 701.5,-324 695.5,-324 689.5,-318 689.5,-312 689.5,-312 689.5,-300 689.5,-300 689.5,-294 695.5,-288 701.5,-288 701.5,-288 835.5,-288 835.5,-288 841.5,-288 847.5,-294 847.5,-300 847.5,-300 847.5,-312 847.5,-312 847.5,-318 841.5,-324 835.5,-324"/>
<text text-anchor="middle" x="768.5" y="-303.5" font-family="sans" font-size="10.00">preprocess_sampleMetadata</text>
</g>
<!-- 7&#45;&gt;8 -->
<g id="edge17" class="edge">
<title>7&#45;&gt;8</title>
<path fill="none" stroke="grey" stroke-width="2" d="M555.75,-431.99C583.32,-413.62 628.97,-383.78 669.5,-360 687.83,-349.25 708.5,-338.04 726.19,-328.72"/>
<polygon fill="grey" stroke="grey" stroke-width="2" points="727.91,-331.77 735.14,-324.03 724.66,-325.57 727.91,-331.77"/>
</g>
<!-- 8&#45;&gt;3 -->
<g id="edge14" class="edge">
<title>8&#45;&gt;3</title>
<path fill="none" stroke="grey" stroke-width="2" d="M689.41,-289.35C686.4,-288.87 683.43,-288.42 680.5,-288 516.21,-264.38 471.08,-272.83 302.59,-252.09"/>
<polygon fill="grey" stroke="grey" stroke-width="2" points="302.99,-248.61 292.63,-250.85 302.12,-255.56 302.99,-248.61"/>
</g>
<!-- 14 -->
<g id="node15" class="node">
<title>14</title>
<path fill="none" stroke="#88d856" stroke-width="2" d="M685,-252C685,-252 560,-252 560,-252 554,-252 548,-246 548,-240 548,-240 548,-228 548,-228 548,-222 554,-216 560,-216 560,-216 685,-216 685,-216 691,-216 697,-222 697,-228 697,-228 697,-240 697,-240 697,-246 691,-252 685,-252"/>
<text text-anchor="middle" x="622.5" y="-231.5" font-family="sans" font-size="10.00">annotate_SampleMetadata</text>
</g>
<!-- 8&#45;&gt;14 -->
<g id="edge25" class="edge">
<title>8&#45;&gt;14</title>
<path fill="none" stroke="grey" stroke-width="2" d="M732.78,-287.88C713,-278.39 688.23,-266.51 667.17,-256.42"/>
<polygon fill="grey" stroke="grey" stroke-width="2" points="668.63,-253.24 658.1,-252.07 665.6,-259.55 668.63,-253.24"/>
</g>
<!-- 20 -->
<g id="node21" class="node">
<title>20</title>
<path fill="none" stroke="#d8b456" stroke-width="2" d="M810,-252C810,-252 727,-252 727,-252 721,-252 715,-246 715,-240 715,-240 715,-228 715,-228 715,-222 721,-216 727,-216 727,-216 810,-216 810,-216 816,-216 822,-222 822,-228 822,-228 822,-240 822,-240 822,-246 816,-252 810,-252"/>
<text text-anchor="middle" x="768.5" y="-231.5" font-family="sans" font-size="10.00">make_RNASEQ_SE</text>
</g>
<!-- 8&#45;&gt;20 -->
<g id="edge30" class="edge">
<title>8&#45;&gt;20</title>
<path fill="none" stroke="grey" stroke-width="2" d="M768.5,-287.7C768.5,-279.98 768.5,-270.71 768.5,-262.11"/>
<polygon fill="grey" stroke="grey" stroke-width="2" points="772,-262.1 768.5,-252.1 765,-262.1 772,-262.1"/>
</g>
<!-- 22 -->
<g id="node23" class="node">
<title>22</title>
<path fill="none" stroke="#b6d856" stroke-width="2" d="M1052,-252C1052,-252 989,-252 989,-252 983,-252 977,-246 977,-240 977,-240 977,-228 977,-228 977,-222 983,-216 989,-216 989,-216 1052,-216 1052,-216 1058,-216 1064,-222 1064,-228 1064,-228 1064,-240 1064,-240 1064,-246 1058,-252 1052,-252"/>
<text text-anchor="middle" x="1020.5" y="-231.5" font-family="sans" font-size="10.00">make_CNV_SE</text>
</g>
<!-- 8&#45;&gt;22 -->
<g id="edge33" class="edge">
<title>8&#45;&gt;22</title>
<path fill="none" stroke="grey" stroke-width="2" d="M835.98,-287.93C872.2,-278.55 917.81,-266.41 967,-252.08"/>
<polygon fill="grey" stroke="grey" stroke-width="2" points="968.27,-255.35 976.88,-249.18 966.3,-248.63 968.27,-255.35"/>
</g>
<!-- 24 -->
<g id="node25" class="node">
<title>24</title>
<path fill="none" stroke="#5663d8" stroke-width="2" d="M946.5,-252C946.5,-252 852.5,-252 852.5,-252 846.5,-252 840.5,-246 840.5,-240 840.5,-240 840.5,-228 840.5,-228 840.5,-222 846.5,-216 852.5,-216 852.5,-216 946.5,-216 946.5,-216 952.5,-216 958.5,-222 958.5,-228 958.5,-228 958.5,-240 958.5,-240 958.5,-246 952.5,-252 946.5,-252"/>
<text text-anchor="middle" x="899.5" y="-231.5" font-family="sans" font-size="10.00">make_MUTATION_SE</text>
</g>
<!-- 8&#45;&gt;24 -->
<g id="edge35" class="edge">
<title>8&#45;&gt;24</title>
<path fill="none" stroke="grey" stroke-width="2" d="M800.55,-287.88C817.99,-278.55 839.77,-266.92 858.44,-256.94"/>
<polygon fill="grey" stroke="grey" stroke-width="2" points="860.16,-259.99 867.33,-252.19 856.86,-253.82 860.16,-259.99"/>
</g>
<!-- 26 -->
<g id="node27" class="node">
<title>26</title>
<path fill="none" stroke="#d8a456" stroke-width="2" d="M1174.5,-252C1174.5,-252 1094.5,-252 1094.5,-252 1088.5,-252 1082.5,-246 1082.5,-240 1082.5,-240 1082.5,-228 1082.5,-228 1082.5,-222 1088.5,-216 1094.5,-216 1094.5,-216 1174.5,-216 1174.5,-216 1180.5,-216 1186.5,-222 1186.5,-228 1186.5,-228 1186.5,-240 1186.5,-240 1186.5,-246 1180.5,-252 1174.5,-252"/>
<text text-anchor="middle" x="1134.5" y="-231.5" font-family="sans" font-size="10.00">make_FUSION_SE</text>
</g>
<!-- 8&#45;&gt;26 -->
<g id="edge40" class="edge">
<title>8&#45;&gt;26</title>
<path fill="none" stroke="grey" stroke-width="2" d="M847.64,-289.61C850.63,-289.06 853.59,-288.52 856.5,-288 949.2,-271.32 975.75,-272.78 1072.28,-251.92"/>
<polygon fill="grey" stroke="grey" stroke-width="2" points="1073.14,-255.31 1082.16,-249.76 1071.65,-248.47 1073.14,-255.31"/>
</g>
<!-- 28 -->
<g id="node29" class="node">
<title>28</title>
<path fill="none" stroke="#56d8a9" stroke-width="2" d="M1500,-252C1500,-252 1393,-252 1393,-252 1387,-252 1381,-246 1381,-240 1381,-240 1381,-228 1381,-228 1381,-222 1387,-216 1393,-216 1393,-216 1500,-216 1500,-216 1506,-216 1512,-222 1512,-228 1512,-228 1512,-240 1512,-240 1512,-246 1506,-252 1500,-252"/>
<text text-anchor="middle" x="1446.5" y="-231.5" font-family="sans" font-size="10.00">make_MICROARRAY_SE</text>
</g>
<!-- 8&#45;&gt;28 -->
<g id="edge43" class="edge">
<title>8&#45;&gt;28</title>
<path fill="none" stroke="grey" stroke-width="2" d="M847.59,-289.33C850.59,-288.86 853.57,-288.41 856.5,-288 953.76,-274.27 1234.38,-251.52 1370.57,-240.86"/>
<polygon fill="grey" stroke="grey" stroke-width="2" points="1371.21,-244.32 1380.91,-240.05 1370.67,-237.34 1371.21,-244.32"/>
</g>
<!-- 9 -->
<g id="node10" class="node">
<title>9</title>
<path fill="none" stroke="#56d8c9" stroke-width="2" d="M814,-396C814,-396 691,-396 691,-396 685,-396 679,-390 679,-384 679,-384 679,-372 679,-372 679,-366 685,-360 691,-360 691,-360 814,-360 814,-360 820,-360 826,-366 826,-372 826,-372 826,-384 826,-384 826,-390 820,-396 814,-396"/>
<text text-anchor="middle" x="752.5" y="-375.5" font-family="sans" font-size="10.00">downloadSampleMetadata</text>
</g>
<!-- 9&#45;&gt;8 -->
<g id="edge18" class="edge">
<title>9&#45;&gt;8</title>
<path fill="none" stroke="grey" stroke-width="2" d="M756.46,-359.7C758.22,-351.98 760.34,-342.71 762.3,-334.11"/>
<polygon fill="grey" stroke="grey" stroke-width="2" points="765.77,-334.63 764.59,-324.1 758.95,-333.07 765.77,-334.63"/>
</g>
<!-- 10 -->
<g id="node11" class="node">
<title>10</title>
<path fill="none" stroke="#d89556" stroke-width="2" d="M1038.5,-396C1038.5,-396 856.5,-396 856.5,-396 850.5,-396 844.5,-390 844.5,-384 844.5,-384 844.5,-372 844.5,-372 844.5,-366 850.5,-360 856.5,-360 856.5,-360 1038.5,-360 1038.5,-360 1044.5,-360 1050.5,-366 1050.5,-372 1050.5,-372 1050.5,-384 1050.5,-384 1050.5,-390 1044.5,-396 1038.5,-396"/>
<text text-anchor="middle" x="947.5" y="-375.5" font-family="sans" font-size="10.00">downloadCellModelPassportsMetadata</text>
</g>
<!-- 10&#45;&gt;8 -->
<g id="edge19" class="edge">
<title>10&#45;&gt;8</title>
<path fill="none" stroke="grey" stroke-width="2" d="M903.71,-359.88C878.92,-350.18 847.72,-337.98 821.54,-327.74"/>
<polygon fill="grey" stroke="grey" stroke-width="2" points="822.73,-324.45 812.15,-324.07 820.18,-330.97 822.73,-324.45"/>
</g>
<!-- 16 -->
<g id="node17" class="node">
<title>16</title>
<path fill="none" stroke="#567bd8" stroke-width="2" d="M1199.5,-324C1199.5,-324 1071.5,-324 1071.5,-324 1065.5,-324 1059.5,-318 1059.5,-312 1059.5,-312 1059.5,-300 1059.5,-300 1059.5,-294 1065.5,-288 1071.5,-288 1071.5,-288 1199.5,-288 1199.5,-288 1205.5,-288 1211.5,-294 1211.5,-300 1211.5,-300 1211.5,-312 1211.5,-312 1211.5,-318 1205.5,-324 1199.5,-324"/>
<text text-anchor="middle" x="1135.5" y="-303.5" font-family="sans" font-size="10.00">preprocess_geneAnnotation</text>
</g>
<!-- 10&#45;&gt;16 -->
<g id="edge27" class="edge">
<title>10&#45;&gt;16</title>
<path fill="none" stroke="grey" stroke-width="2" d="M993.49,-359.88C1019.65,-350.14 1052.59,-337.87 1080.15,-327.61"/>
<polygon fill="grey" stroke="grey" stroke-width="2" points="1081.51,-330.84 1089.66,-324.07 1079.07,-324.28 1081.51,-330.84"/>
</g>
<!-- 11 -->
<g id="node12" class="node">
<title>11</title>
<path fill="none" stroke="#68d856" stroke-width="2" d="M501.5,-180C501.5,-180 387.5,-180 387.5,-180 381.5,-180 375.5,-174 375.5,-168 375.5,-168 375.5,-156 375.5,-156 375.5,-150 381.5,-144 387.5,-144 387.5,-144 501.5,-144 501.5,-144 507.5,-144 513.5,-150 513.5,-156 513.5,-156 513.5,-168 513.5,-168 513.5,-174 507.5,-180 501.5,-180"/>
<text text-anchor="middle" x="444.5" y="-159.5" font-family="sans" font-size="10.00">annotate_TreatmentData</text>
</g>
<!-- 11&#45;&gt;1 -->
<g id="edge10" class="edge">
<title>11&#45;&gt;1</title>
<path fill="none" stroke="grey" stroke-width="2" d="M513.6,-150.37C600.68,-136.97 749.22,-114.12 834.37,-101.02"/>
<polygon fill="grey" stroke="grey" stroke-width="2" points="835.08,-104.45 844.43,-99.47 834.02,-97.53 835.08,-104.45"/>
</g>
<!-- 12 -->
<g id="node13" class="node">
<title>12</title>
<path fill="none" stroke="#56d89a" stroke-width="2" d="M404,-252C404,-252 323,-252 323,-252 317,-252 311,-246 311,-240 311,-240 311,-228 311,-228 311,-222 317,-216 323,-216 323,-216 404,-216 404,-216 410,-216 416,-222 416,-228 416,-228 416,-240 416,-240 416,-246 410,-252 404,-252"/>
<text text-anchor="middle" x="363.5" y="-231.5" font-family="sans" font-size="10.00">annotate_ChEMBL</text>
</g>
<!-- 12&#45;&gt;11 -->
<g id="edge20" class="edge">
<title>12&#45;&gt;11</title>
<path fill="none" stroke="grey" stroke-width="2" d="M383.52,-215.7C393.63,-206.97 406.04,-196.24 417.02,-186.75"/>
<polygon fill="grey" stroke="grey" stroke-width="2" points="419.43,-189.29 424.71,-180.1 414.85,-183.99 419.43,-189.29"/>
</g>
<!-- 13&#45;&gt;11 -->
<g id="edge21" class="edge">
<title>13&#45;&gt;11</title>
<path fill="none" stroke="grey" stroke-width="2" d="M373.36,-287.91C392.22,-279.85 411.46,-268.29 424.5,-252 438.38,-234.66 443.05,-209.6 444.44,-190.49"/>
<polygon fill="grey" stroke="grey" stroke-width="2" points="447.95,-190.46 444.92,-180.3 440.96,-190.13 447.95,-190.46"/>
</g>
<!-- 13&#45;&gt;12 -->
<g id="edge22" class="edge">
<title>13&#45;&gt;12</title>
<path fill="none" stroke="grey" stroke-width="2" d="M325.11,-287.7C331.1,-279.47 338.38,-269.48 344.98,-260.42"/>
<polygon fill="grey" stroke="grey" stroke-width="2" points="347.98,-262.25 351.04,-252.1 342.32,-258.13 347.98,-262.25"/>
</g>
<!-- 14&#45;&gt;1 -->
<g id="edge4" class="edge">
<title>14&#45;&gt;1</title>
<path fill="none" stroke="grey" stroke-width="2" d="M655.91,-215.87C706.24,-190.07 801.48,-141.25 856.79,-112.9"/>
<polygon fill="grey" stroke="grey" stroke-width="2" points="858.67,-115.87 865.97,-108.19 855.47,-109.64 858.67,-115.87"/>
</g>
<!-- 15 -->
<g id="node16" class="node">
<title>15</title>
<path fill="none" stroke="#a7d856" stroke-width="2" d="M531,-324C531,-324 434,-324 434,-324 428,-324 422,-318 422,-312 422,-312 422,-300 422,-300 422,-294 428,-288 434,-288 434,-288 531,-288 531,-288 537,-288 543,-294 543,-300 543,-300 543,-312 543,-312 543,-318 537,-324 531,-324"/>
<text text-anchor="middle" x="482.5" y="-303.5" font-family="sans" font-size="10.00">getCellosaurusObject</text>
</g>
<!-- 15&#45;&gt;14 -->
<g id="edge24" class="edge">
<title>15&#45;&gt;14</title>
<path fill="none" stroke="grey" stroke-width="2" d="M516.75,-287.88C535.56,-278.47 559.08,-266.71 579.17,-256.67"/>
<polygon fill="grey" stroke="grey" stroke-width="2" points="580.74,-259.79 588.12,-252.19 577.61,-253.53 580.74,-259.79"/>
</g>
<!-- 16&#45;&gt;1 -->
<g id="edge3" class="edge">
<title>16&#45;&gt;1</title>
<path fill="none" stroke="grey" stroke-width="2" d="M1163.76,-287.97C1175.93,-278.96 1188.87,-266.7 1195.5,-252 1202.08,-237.41 1204.25,-229.4 1195.5,-216 1144.84,-138.43 1035.33,-108.9 964.65,-97.72"/>
<polygon fill="grey" stroke="grey" stroke-width="2" points="964.92,-94.22 954.52,-96.2 963.89,-101.15 964.92,-94.22"/>
</g>
<!-- 16&#45;&gt;20 -->
<g id="edge29" class="edge">
<title>16&#45;&gt;20</title>
<path fill="none" stroke="grey" stroke-width="2" d="M1059.07,-289.58C1056.18,-289.04 1053.31,-288.51 1050.5,-288 956.58,-270.89 929.63,-272.73 832.02,-251.99"/>
<polygon fill="grey" stroke="grey" stroke-width="2" points="832.54,-248.52 822.03,-249.84 831.07,-255.36 832.54,-248.52"/>
</g>
<!-- 16&#45;&gt;22 -->
<g id="edge32" class="edge">
<title>16&#45;&gt;22</title>
<path fill="none" stroke="grey" stroke-width="2" d="M1107.37,-287.88C1092.33,-278.72 1073.63,-267.34 1057.44,-257.48"/>
<polygon fill="grey" stroke="grey" stroke-width="2" points="1059.1,-254.4 1048.74,-252.19 1055.46,-260.38 1059.1,-254.4"/>
</g>
<!-- 16&#45;&gt;24 -->
<g id="edge36" class="edge">
<title>16&#45;&gt;24</title>
<path fill="none" stroke="grey" stroke-width="2" d="M1078.07,-287.97C1044.52,-278.01 1002.01,-265.41 966.89,-254.99"/>
<polygon fill="grey" stroke="grey" stroke-width="2" points="967.77,-251.6 957.19,-252.11 965.78,-258.31 967.77,-251.6"/>
</g>
<!-- 16&#45;&gt;26 -->
<g id="edge39" class="edge">
<title>16&#45;&gt;26</title>
<path fill="none" stroke="grey" stroke-width="2" d="M1135.25,-287.7C1135.14,-279.98 1135.01,-270.71 1134.89,-262.11"/>
<polygon fill="grey" stroke="grey" stroke-width="2" points="1138.39,-262.05 1134.74,-252.1 1131.39,-262.15 1138.39,-262.05"/>
</g>
<!-- 17 -->
<g id="node18" class="node">
<title>17</title>
<path fill="none" stroke="#d88556" stroke-width="2" d="M1220.5,-396C1220.5,-396 1080.5,-396 1080.5,-396 1074.5,-396 1068.5,-390 1068.5,-384 1068.5,-384 1068.5,-372 1068.5,-372 1068.5,-366 1074.5,-360 1080.5,-360 1080.5,-360 1220.5,-360 1220.5,-360 1226.5,-360 1232.5,-366 1232.5,-372 1232.5,-372 1232.5,-384 1232.5,-384 1232.5,-390 1226.5,-396 1220.5,-396"/>
<text text-anchor="middle" x="1150.5" y="-375.5" font-family="sans" font-size="10.00">download_EnsemblAnnotation</text>
</g>
<!-- 17&#45;&gt;16 -->
<g id="edge26" class="edge">
<title>17&#45;&gt;16</title>
<path fill="none" stroke="grey" stroke-width="2" d="M1146.79,-359.7C1145.14,-351.98 1143.15,-342.71 1141.31,-334.11"/>
<polygon fill="grey" stroke="grey" stroke-width="2" points="1144.68,-333.15 1139.17,-324.1 1137.84,-334.62 1144.68,-333.15"/>
</g>
<!-- 18 -->
<g id="node19" class="node">
<title>18</title>
<path fill="none" stroke="#d6d856" stroke-width="2" d="M1644,-324C1644,-324 1525,-324 1525,-324 1519,-324 1513,-318 1513,-312 1513,-312 1513,-300 1513,-300 1513,-294 1519,-288 1525,-288 1525,-288 1644,-288 1644,-288 1650,-288 1656,-294 1656,-300 1656,-300 1656,-312 1656,-312 1656,-318 1650,-324 1644,-324"/>
<text text-anchor="middle" x="1584.5" y="-303.5" font-family="sans" font-size="10.00">load_MicroArrayMetadata</text>
</g>
<!-- 18&#45;&gt;28 -->
<g id="edge42" class="edge">
<title>18&#45;&gt;28</title>
<path fill="none" stroke="grey" stroke-width="2" d="M1550.74,-287.88C1532.28,-278.51 1509.22,-266.81 1489.48,-256.8"/>
<polygon fill="grey" stroke="grey" stroke-width="2" points="1490.89,-253.59 1480.39,-252.19 1487.72,-259.83 1490.89,-253.59"/>
</g>
<!-- 19 -->
<g id="node20" class="node">
<title>19</title>
<path fill="none" stroke="#d86656" stroke-width="2" d="M1707,-396C1707,-396 1562,-396 1562,-396 1556,-396 1550,-390 1550,-384 1550,-384 1550,-372 1550,-372 1550,-366 1556,-360 1562,-360 1562,-360 1707,-360 1707,-360 1713,-360 1719,-366 1719,-372 1719,-372 1719,-384 1719,-384 1719,-390 1713,-396 1707,-396"/>
<text text-anchor="middle" x="1634.5" y="-375.5" font-family="sans" font-size="10.00">download_MicroArrayMetadata</text>
</g>
<!-- 19&#45;&gt;18 -->
<g id="edge28" class="edge">
<title>19&#45;&gt;18</title>
<path fill="none" stroke="grey" stroke-width="2" d="M1622.14,-359.7C1616.27,-351.47 1609.13,-341.48 1602.66,-332.42"/>
<polygon fill="grey" stroke="grey" stroke-width="2" points="1605.38,-330.21 1596.72,-324.1 1599.68,-334.28 1605.38,-330.21"/>
</g>
<!-- 19&#45;&gt;28 -->
<g id="edge41" class="edge">
<title>19&#45;&gt;28</title>
<path fill="none" stroke="grey" stroke-width="2" d="M1649.26,-359.99C1664.06,-340.81 1682.4,-309.47 1665.5,-288 1647.7,-265.38 1577.99,-251.25 1521.94,-243.33"/>
<polygon fill="grey" stroke="grey" stroke-width="2" points="1522.39,-239.86 1512.01,-241.97 1521.44,-246.79 1522.39,-239.86"/>
</g>
<!-- 20&#45;&gt;1 -->
<g id="edge8" class="edge">
<title>20&#45;&gt;1</title>
<path fill="none" stroke="grey" stroke-width="2" d="M784.3,-215.87C807.32,-190.92 850.19,-144.45 876.65,-115.77"/>
<polygon fill="grey" stroke="grey" stroke-width="2" points="879.43,-117.91 883.64,-108.19 874.29,-113.17 879.43,-117.91"/>
</g>
<!-- 21 -->
<g id="node22" class="node">
<title>21</title>
<path fill="none" stroke="#d87556" stroke-width="2" d="M659.5,-324C659.5,-324 573.5,-324 573.5,-324 567.5,-324 561.5,-318 561.5,-312 561.5,-312 561.5,-300 561.5,-300 561.5,-294 567.5,-288 573.5,-288 573.5,-288 659.5,-288 659.5,-288 665.5,-288 671.5,-294 671.5,-300 671.5,-300 671.5,-312 671.5,-312 671.5,-318 665.5,-324 659.5,-324"/>
<text text-anchor="middle" x="616.5" y="-303.5" font-family="sans" font-size="10.00">download_RNASEQ</text>
</g>
<!-- 21&#45;&gt;20 -->
<g id="edge31" class="edge">
<title>21&#45;&gt;20</title>
<path fill="none" stroke="grey" stroke-width="2" d="M653.68,-287.88C674.37,-278.35 700.3,-266.41 722.28,-256.28"/>
<polygon fill="grey" stroke="grey" stroke-width="2" points="723.82,-259.43 731.44,-252.07 720.89,-253.07 723.82,-259.43"/>
</g>
<!-- 22&#45;&gt;1 -->
<g id="edge2" class="edge">
<title>22&#45;&gt;1</title>
<path fill="none" stroke="grey" stroke-width="2" d="M1005.9,-215.87C984.74,-191.03 945.38,-144.85 920.92,-116.14"/>
<polygon fill="grey" stroke="grey" stroke-width="2" points="923.3,-113.53 914.15,-108.19 917.97,-118.07 923.3,-113.53"/>
</g>
<!-- 23 -->
<g id="node24" class="node">
<title>23</title>
<path fill="none" stroke="#59d856" stroke-width="2" d="M1357.5,-324C1357.5,-324 1241.5,-324 1241.5,-324 1235.5,-324 1229.5,-318 1229.5,-312 1229.5,-312 1229.5,-300 1229.5,-300 1229.5,-294 1235.5,-288 1241.5,-288 1241.5,-288 1357.5,-288 1357.5,-288 1363.5,-288 1369.5,-294 1369.5,-300 1369.5,-300 1369.5,-312 1369.5,-312 1369.5,-318 1363.5,-324 1357.5,-324"/>
<text text-anchor="middle" x="1299.5" y="-303.5" font-family="sans" font-size="10.00">download_CNV_WESData</text>
</g>
<!-- 23&#45;&gt;22 -->
<g id="edge34" class="edge">
<title>23&#45;&gt;22</title>
<path fill="none" stroke="grey" stroke-width="2" d="M1229.5,-289.23C1178.89,-277.72 1113.9,-262.68 1073.93,-251.98"/>
<polygon fill="grey" stroke="grey" stroke-width="2" points="1074.66,-248.55 1064.09,-249.29 1072.81,-255.3 1074.66,-248.55"/>
</g>
<!-- 24&#45;&gt;1 -->
<g id="edge9" class="edge">
<title>24&#45;&gt;1</title>
<path fill="none" stroke="grey" stroke-width="2" d="M899.5,-215.87C899.5,-191.67 899.5,-147.21 899.5,-118.39"/>
<polygon fill="grey" stroke="grey" stroke-width="2" points="903,-118.19 899.5,-108.19 896,-118.19 903,-118.19"/>
</g>
<!-- 25 -->
<g id="node26" class="node">
<title>25</title>
<path fill="none" stroke="#97d856" stroke-width="2" d="M1029.5,-324C1029.5,-324 877.5,-324 877.5,-324 871.5,-324 865.5,-318 865.5,-312 865.5,-312 865.5,-300 865.5,-300 865.5,-294 871.5,-288 877.5,-288 877.5,-288 1029.5,-288 1029.5,-288 1035.5,-288 1041.5,-294 1041.5,-300 1041.5,-300 1041.5,-312 1041.5,-312 1041.5,-318 1035.5,-324 1029.5,-324"/>
<text text-anchor="middle" x="953.5" y="-303.5" font-family="sans" font-size="10.00">download_MUTATION_processed</text>
</g>
<!-- 25&#45;&gt;24 -->
<g id="edge37" class="edge">
<title>25&#45;&gt;24</title>
<path fill="none" stroke="grey" stroke-width="2" d="M940.15,-287.7C933.74,-279.39 925.94,-269.28 918.89,-260.14"/>
<polygon fill="grey" stroke="grey" stroke-width="2" points="921.57,-257.88 912.69,-252.1 916.03,-262.16 921.57,-257.88"/>
</g>
<!-- 26&#45;&gt;1 -->
<g id="edge7" class="edge">
<title>26&#45;&gt;1</title>
<path fill="none" stroke="grey" stroke-width="2" d="M1106.15,-215.87C1063.72,-190.23 983.65,-141.85 936.61,-113.43"/>
<polygon fill="grey" stroke="grey" stroke-width="2" points="938.32,-110.37 927.95,-108.19 934.7,-116.36 938.32,-110.37"/>
</g>
<!-- 27 -->
<g id="node28" class="node">
<title>27</title>
<path fill="none" stroke="#56d88a" stroke-width="2" d="M1483,-324C1483,-324 1400,-324 1400,-324 1394,-324 1388,-318 1388,-312 1388,-312 1388,-300 1388,-300 1388,-294 1394,-288 1400,-288 1400,-288 1483,-288 1483,-288 1489,-288 1495,-294 1495,-300 1495,-300 1495,-312 1495,-312 1495,-318 1489,-324 1483,-324"/>
<text text-anchor="middle" x="1441.5" y="-303.5" font-family="sans" font-size="10.00">download_FUSION</text>
</g>
<!-- 27&#45;&gt;26 -->
<g id="edge38" class="edge">
<title>27&#45;&gt;26</title>
<path fill="none" stroke="grey" stroke-width="2" d="M1387.93,-290.35C1384.74,-289.54 1381.58,-288.75 1378.5,-288 1316.83,-272.99 1245.89,-257.81 1196.45,-247.57"/>
<polygon fill="grey" stroke="grey" stroke-width="2" points="1197.06,-244.12 1186.55,-245.53 1195.64,-250.98 1197.06,-244.12"/>
</g>
<!-- 28&#45;&gt;1 -->
<g id="edge5" class="edge">
<title>28&#45;&gt;1</title>
<path fill="none" stroke="grey" stroke-width="2" d="M1411.88,-215.98C1369.59,-195.87 1295.41,-162.78 1228.5,-144 1138.83,-118.83 1031.83,-104.36 964.76,-97.08"/>
<polygon fill="grey" stroke="grey" stroke-width="2" points="965.07,-93.59 954.76,-96.02 964.33,-100.55 965.07,-93.59"/>
</g>
</g>
</svg>
