<?xml version="1.0" encoding="UTF-8" standalone="no"?>
<!DOCTYPE svg PUBLIC "-//W3C//DTD SVG 1.1//EN"
 "http://www.w3.org/Graphics/SVG/1.1/DTD/svg11.dtd">
<!-- Generated by graphviz version 2.43.0 (0)
 -->
<!-- Title: snakemake_dag Pages: 1 -->
<svg width="1363pt" height="476pt"
 viewBox="0.00 0.00 1362.50 476.00" xmlns="http://www.w3.org/2000/svg" xmlns:xlink="http://www.w3.org/1999/xlink">
<g id="graph0" class="graph" transform="scale(1 1) rotate(0) translate(4 472)">
<title>snakemake_dag</title>
<polygon fill="white" stroke="transparent" points="-4,4 -4,-472 1358.5,-472 1358.5,4 -4,4"/>
<!-- 0 -->
<g id="node1" class="node">
<title>0</title>
<path fill="none" stroke="#d89c56" stroke-width="2" d="M752.5,-36C752.5,-36 675.5,-36 675.5,-36 669.5,-36 663.5,-30 663.5,-24 663.5,-24 663.5,-12 663.5,-12 663.5,-6 669.5,0 675.5,0 675.5,0 752.5,0 752.5,0 758.5,0 764.5,-6 764.5,-12 764.5,-12 764.5,-24 764.5,-24 764.5,-30 758.5,-36 752.5,-36"/>
<text text-anchor="middle" x="714" y="-15.5" font-family="sans" font-size="10.00">get_Pharmacoset</text>
</g>
<!-- 1 -->
<g id="node2" class="node">
<title>1</title>
<path fill="none" stroke="#56a9d8" stroke-width="2" d="M757,-108C757,-108 671,-108 671,-108 665,-108 659,-102 659,-96 659,-96 659,-84 659,-84 659,-78 665,-72 671,-72 671,-72 757,-72 757,-72 763,-72 769,-78 769,-84 769,-84 769,-96 769,-96 769,-102 763,-108 757,-108"/>
<text text-anchor="middle" x="714" y="-87.5" font-family="sans" font-size="10.00">build_Pharmacoset</text>
</g>
<!-- 1&#45;&gt;0 -->
<g id="edge1" class="edge">
<title>1&#45;&gt;0</title>
<path fill="none" stroke="grey" stroke-width="2" d="M714,-71.7C714,-63.98 714,-54.71 714,-46.11"/>
<polygon fill="grey" stroke="grey" stroke-width="2" points="717.5,-46.1 714,-36.1 710.5,-46.1 717.5,-46.1"/>
</g>
<!-- 2 -->
<g id="node3" class="node">
<title>2</title>
<path fill="none" stroke="#c6d856" stroke-width="2" d="M475,-180C475,-180 319,-180 319,-180 313,-180 307,-174 307,-168 307,-168 307,-156 307,-156 307,-150 313,-144 319,-144 319,-144 475,-144 475,-144 481,-144 487,-150 487,-156 487,-156 487,-168 487,-168 487,-174 481,-180 475,-180"/>
<text text-anchor="middle" x="397" y="-159.5" font-family="sans" font-size="10.00">fit_reatmentResponseExperiment</text>
</g>
<!-- 2&#45;&gt;1 -->
<g id="edge8" class="edge">
<title>2&#45;&gt;1</title>
<path fill="none" stroke="grey" stroke-width="2" d="M474.14,-143.97C527.75,-132.13 598.39,-116.53 649.1,-105.33"/>
<polygon fill="grey" stroke="grey" stroke-width="2" points="649.96,-108.73 658.97,-103.15 648.45,-101.89 649.96,-108.73"/>
</g>
<!-- 3 -->
<g id="node4" class="node">
<title>3</title>
<path fill="none" stroke="#56b9d8" stroke-width="2" d="M482,-252C482,-252 308,-252 308,-252 302,-252 296,-246 296,-240 296,-240 296,-228 296,-228 296,-222 302,-216 308,-216 308,-216 482,-216 482,-216 488,-216 494,-222 494,-228 494,-228 494,-240 494,-240 494,-246 488,-252 482,-252"/>
<text text-anchor="middle" x="395" y="-231.5" font-family="sans" font-size="10.00">build_treatmentResponseExperiment</text>
</g>
<!-- 3&#45;&gt;2 -->
<g id="edge10" class="edge">
<title>3&#45;&gt;2</title>
<path fill="none" stroke="grey" stroke-width="2" d="M395.49,-215.7C395.71,-207.98 395.98,-198.71 396.23,-190.11"/>
<polygon fill="grey" stroke="grey" stroke-width="2" points="399.72,-190.2 396.51,-180.1 392.73,-190 399.72,-190.2"/>
</g>
<!-- 4 -->
<g id="node5" class="node">
<title>4</title>
<path fill="none" stroke="#d88556" stroke-width="2" d="M353.5,-324C353.5,-324 212.5,-324 212.5,-324 206.5,-324 200.5,-318 200.5,-312 200.5,-312 200.5,-300 200.5,-300 200.5,-294 206.5,-288 212.5,-288 212.5,-288 353.5,-288 353.5,-288 359.5,-288 365.5,-294 365.5,-300 365.5,-300 365.5,-312 365.5,-312 365.5,-318 359.5,-324 353.5,-324"/>
<text text-anchor="middle" x="283" y="-303.5" font-family="sans" font-size="10.00">download_treatmentResponse</text>
</g>
<!-- 4&#45;&gt;3 -->
<g id="edge11" class="edge">
<title>4&#45;&gt;3</title>
<path fill="none" stroke="grey" stroke-width="2" d="M310.4,-287.88C324.91,-278.81 342.92,-267.55 358.59,-257.76"/>
<polygon fill="grey" stroke="grey" stroke-width="2" points="360.87,-260.46 367.5,-252.19 357.16,-254.52 360.87,-260.46"/>
</g>
<!-- 5 -->
<g id="node6" class="node">
<title>5</title>
<path fill="none" stroke="#d8bc56" stroke-width="2" d="M344,-396C344,-396 198,-396 198,-396 192,-396 186,-390 186,-384 186,-384 186,-372 186,-372 186,-366 192,-360 198,-360 198,-360 344,-360 344,-360 350,-360 356,-366 356,-372 356,-372 356,-384 356,-384 356,-390 350,-396 344,-396"/>
<text text-anchor="middle" x="271" y="-375.5" font-family="sans" font-size="10.00">preprocess_treatmentMetadata</text>
</g>
<!-- 5&#45;&gt;3 -->
<g id="edge13" class="edge">
<title>5&#45;&gt;3</title>
<path fill="none" stroke="grey" stroke-width="2" d="M324.53,-359.96C342.63,-351.74 361.43,-340.08 374,-324 387.72,-306.46 392.71,-281.42 394.41,-262.37"/>
<polygon fill="grey" stroke="grey" stroke-width="2" points="397.92,-262.42 395.07,-252.22 390.93,-261.97 397.92,-262.42"/>
</g>
<!-- 12 -->
<g id="node13" class="node">
<title>12</title>
<path fill="none" stroke="#d8cb56" stroke-width="2" d="M170,-324C170,-324 12,-324 12,-324 6,-324 0,-318 0,-312 0,-312 0,-300 0,-300 0,-294 6,-288 12,-288 12,-288 170,-288 170,-288 176,-288 182,-294 182,-300 182,-300 182,-312 182,-312 182,-318 176,-324 170,-324"/>
<text text-anchor="middle" x="91" y="-303.5" font-family="sans" font-size="10.00">map_treatments_to_PubChemCID</text>
</g>
<!-- 5&#45;&gt;12 -->
<g id="edge20" class="edge">
<title>5&#45;&gt;12</title>
<path fill="none" stroke="grey" stroke-width="2" d="M226.97,-359.88C202.03,-350.18 170.66,-337.98 144.34,-327.74"/>
<polygon fill="grey" stroke="grey" stroke-width="2" points="145.48,-324.43 134.89,-324.07 142.94,-330.95 145.48,-324.43"/>
</g>
<!-- 6 -->
<g id="node7" class="node">
<title>6</title>
<path fill="none" stroke="#70d856" stroke-width="2" d="M339,-468C339,-468 203,-468 203,-468 197,-468 191,-462 191,-456 191,-456 191,-444 191,-444 191,-438 197,-432 203,-432 203,-432 339,-432 339,-432 345,-432 351,-438 351,-444 351,-444 351,-456 351,-456 351,-462 345,-468 339,-468"/>
<text text-anchor="middle" x="271" y="-447.5" font-family="sans" font-size="10.00">downloadTreatmentMetadata</text>
</g>
<!-- 6&#45;&gt;5 -->
<g id="edge14" class="edge">
<title>6&#45;&gt;5</title>
<path fill="none" stroke="grey" stroke-width="2" d="M271,-431.7C271,-423.98 271,-414.71 271,-406.11"/>
<polygon fill="grey" stroke="grey" stroke-width="2" points="274.5,-406.1 271,-396.1 267.5,-406.1 274.5,-406.1"/>
</g>
<!-- 7 -->
<g id="node8" class="node">
<title>7</title>
<path fill="none" stroke="#61d856" stroke-width="2" d="M696,-324C696,-324 562,-324 562,-324 556,-324 550,-318 550,-312 550,-312 550,-300 550,-300 550,-294 556,-288 562,-288 562,-288 696,-288 696,-288 702,-288 708,-294 708,-300 708,-300 708,-312 708,-312 708,-318 702,-324 696,-324"/>
<text text-anchor="middle" x="629" y="-303.5" font-family="sans" font-size="10.00">preprocess_sampleMetadata</text>
</g>
<!-- 7&#45;&gt;3 -->
<g id="edge12" class="edge">
<title>7&#45;&gt;3</title>
<path fill="none" stroke="grey" stroke-width="2" d="M572.06,-287.97C538.79,-278.01 496.64,-265.41 461.81,-254.99"/>
<polygon fill="grey" stroke="grey" stroke-width="2" points="462.78,-251.62 452.2,-252.11 460.78,-258.33 462.78,-251.62"/>
</g>
<!-- 13 -->
<g id="node14" class="node">
<title>13</title>
<path fill="none" stroke="#d87556" stroke-width="2" d="M647.5,-180C647.5,-180 522.5,-180 522.5,-180 516.5,-180 510.5,-174 510.5,-168 510.5,-168 510.5,-156 510.5,-156 510.5,-150 516.5,-144 522.5,-144 522.5,-144 647.5,-144 647.5,-144 653.5,-144 659.5,-150 659.5,-156 659.5,-156 659.5,-168 659.5,-168 659.5,-174 653.5,-180 647.5,-180"/>
<text text-anchor="middle" x="585" y="-159.5" font-family="sans" font-size="10.00">annotate_SampleMetadata</text>
</g>
<!-- 7&#45;&gt;13 -->
<g id="edge21" class="edge">
<title>7&#45;&gt;13</title>
<path fill="none" stroke="grey" stroke-width="2" d="M601.2,-287.87C589.23,-278.84 576.5,-266.59 570,-252 561.17,-232.2 566.27,-207.8 572.82,-189.56"/>
<polygon fill="grey" stroke="grey" stroke-width="2" points="576.12,-190.72 576.53,-180.13 569.61,-188.15 576.12,-190.72"/>
</g>
<!-- 16 -->
<g id="node17" class="node">
<title>16</title>
<path fill="none" stroke="#56d873" stroke-width="2" d="M674.5,-252C674.5,-252 591.5,-252 591.5,-252 585.5,-252 579.5,-246 579.5,-240 579.5,-240 579.5,-228 579.5,-228 579.5,-222 585.5,-216 591.5,-216 591.5,-216 674.5,-216 674.5,-216 680.5,-216 686.5,-222 686.5,-228 686.5,-228 686.5,-240 686.5,-240 686.5,-246 680.5,-252 674.5,-252"/>
<text text-anchor="middle" x="633" y="-231.5" font-family="sans" font-size="10.00">make_RNASEQ_SE</text>
</g>
<!-- 7&#45;&gt;16 -->
<g id="edge25" class="edge">
<title>7&#45;&gt;16</title>
<path fill="none" stroke="grey" stroke-width="2" d="M629.99,-287.7C630.43,-279.98 630.96,-270.71 631.45,-262.11"/>
<polygon fill="grey" stroke="grey" stroke-width="2" points="634.95,-262.29 632.02,-252.1 627.96,-261.89 634.95,-262.29"/>
</g>
<!-- 18 -->
<g id="node19" class="node">
<title>18</title>
<path fill="none" stroke="#d86656" stroke-width="2" d="M779.5,-252C779.5,-252 716.5,-252 716.5,-252 710.5,-252 704.5,-246 704.5,-240 704.5,-240 704.5,-228 704.5,-228 704.5,-222 710.5,-216 716.5,-216 716.5,-216 779.5,-216 779.5,-216 785.5,-216 791.5,-222 791.5,-228 791.5,-228 791.5,-240 791.5,-240 791.5,-246 785.5,-252 779.5,-252"/>
<text text-anchor="middle" x="748" y="-231.5" font-family="sans" font-size="10.00">make_CNV_SE</text>
</g>
<!-- 7&#45;&gt;18 -->
<g id="edge27" class="edge">
<title>7&#45;&gt;18</title>
<path fill="none" stroke="grey" stroke-width="2" d="M658.11,-287.88C673.67,-278.72 693.02,-267.34 709.78,-257.48"/>
<polygon fill="grey" stroke="grey" stroke-width="2" points="711.93,-260.28 718.78,-252.19 708.38,-254.24 711.93,-260.28"/>
</g>
<!-- 20 -->
<g id="node21" class="node">
<title>20</title>
<path fill="none" stroke="#afd856" stroke-width="2" d="M916,-252C916,-252 822,-252 822,-252 816,-252 810,-246 810,-240 810,-240 810,-228 810,-228 810,-222 816,-216 822,-216 822,-216 916,-216 916,-216 922,-216 928,-222 928,-228 928,-228 928,-240 928,-240 928,-246 922,-252 916,-252"/>
<text text-anchor="middle" x="869" y="-231.5" font-family="sans" font-size="10.00">make_MUTATION_SE</text>
</g>
<!-- 7&#45;&gt;20 -->
<g id="edge31" class="edge">
<title>7&#45;&gt;20</title>
<path fill="none" stroke="grey" stroke-width="2" d="M687.4,-287.97C721.52,-278.01 764.75,-265.41 800.47,-254.99"/>
<polygon fill="grey" stroke="grey" stroke-width="2" points="801.71,-258.27 810.33,-252.11 799.75,-251.55 801.71,-258.27"/>
</g>
<!-- 22 -->
<g id="node23" class="node">
<title>22</title>
<path fill="none" stroke="#d85656" stroke-width="2" d="M1076,-252C1076,-252 996,-252 996,-252 990,-252 984,-246 984,-240 984,-240 984,-228 984,-228 984,-222 990,-216 996,-216 996,-216 1076,-216 1076,-216 1082,-216 1088,-222 1088,-228 1088,-228 1088,-240 1088,-240 1088,-246 1082,-252 1076,-252"/>
<text text-anchor="middle" x="1036" y="-231.5" font-family="sans" font-size="10.00">make_FUSION_SE</text>
</g>
<!-- 7&#45;&gt;22 -->
<g id="edge34" class="edge">
<title>7&#45;&gt;22</title>
<path fill="none" stroke="grey" stroke-width="2" d="M708.13,-289.6C711.13,-289.05 714.09,-288.52 717,-288 814.54,-270.6 839.29,-268.38 937,-252 948.89,-250.01 961.58,-247.85 973.77,-245.76"/>
<polygon fill="grey" stroke="grey" stroke-width="2" points="974.6,-249.17 983.86,-244.03 973.42,-242.27 974.6,-249.17"/>
</g>
<!-- 8 -->
<g id="node9" class="node">
<title>8</title>
<path fill="none" stroke="#567bd8" stroke-width="2" d="M656.5,-396C656.5,-396 533.5,-396 533.5,-396 527.5,-396 521.5,-390 521.5,-384 521.5,-384 521.5,-372 521.5,-372 521.5,-366 527.5,-360 533.5,-360 533.5,-360 656.5,-360 656.5,-360 662.5,-360 668.5,-366 668.5,-372 668.5,-372 668.5,-384 668.5,-384 668.5,-390 662.5,-396 656.5,-396"/>
<text text-anchor="middle" x="595" y="-375.5" font-family="sans" font-size="10.00">downloadSampleMetadata</text>
</g>
<!-- 8&#45;&gt;7 -->
<g id="edge16" class="edge">
<title>8&#45;&gt;7</title>
<path fill="none" stroke="grey" stroke-width="2" d="M603.4,-359.7C607.27,-351.73 611.95,-342.1 616.24,-333.26"/>
<polygon fill="grey" stroke="grey" stroke-width="2" points="619.47,-334.63 620.69,-324.1 613.17,-331.57 619.47,-334.63"/>
</g>
<!-- 9 -->
<g id="node10" class="node">
<title>9</title>
<path fill="none" stroke="#56d8b1" stroke-width="2" d="M881,-396C881,-396 699,-396 699,-396 693,-396 687,-390 687,-384 687,-384 687,-372 687,-372 687,-366 693,-360 699,-360 699,-360 881,-360 881,-360 887,-360 893,-366 893,-372 893,-372 893,-384 893,-384 893,-390 887,-396 881,-396"/>
<text text-anchor="middle" x="790" y="-375.5" font-family="sans" font-size="10.00">downloadCellModelPassportsMetadata</text>
</g>
<!-- 9&#45;&gt;7 -->
<g id="edge15" class="edge">
<title>9&#45;&gt;7</title>
<path fill="none" stroke="grey" stroke-width="2" d="M750.61,-359.88C728.61,-350.31 700.99,-338.3 677.64,-328.15"/>
<polygon fill="grey" stroke="grey" stroke-width="2" points="678.82,-324.85 668.26,-324.07 676.03,-331.27 678.82,-324.85"/>
</g>
<!-- 14 -->
<g id="node15" class="node">
<title>14</title>
<path fill="none" stroke="#8fd856" stroke-width="2" d="M1024,-324C1024,-324 896,-324 896,-324 890,-324 884,-318 884,-312 884,-312 884,-300 884,-300 884,-294 890,-288 896,-288 896,-288 1024,-288 1024,-288 1030,-288 1036,-294 1036,-300 1036,-300 1036,-312 1036,-312 1036,-318 1030,-324 1024,-324"/>
<text text-anchor="middle" x="960" y="-303.5" font-family="sans" font-size="10.00">preprocess_geneAnnotation</text>
</g>
<!-- 9&#45;&gt;14 -->
<g id="edge23" class="edge">
<title>9&#45;&gt;14</title>
<path fill="none" stroke="grey" stroke-width="2" d="M831.59,-359.88C855.03,-350.22 884.5,-338.09 909.3,-327.88"/>
<polygon fill="grey" stroke="grey" stroke-width="2" points="910.63,-331.11 918.55,-324.07 907.97,-324.64 910.63,-331.11"/>
</g>
<!-- 10 -->
<g id="node11" class="node">
<title>10</title>
<path fill="none" stroke="#56d8a2" stroke-width="2" d="M255.5,-180C255.5,-180 88.5,-180 88.5,-180 82.5,-180 76.5,-174 76.5,-168 76.5,-168 76.5,-156 76.5,-156 76.5,-150 82.5,-144 88.5,-144 88.5,-144 255.5,-144 255.5,-144 261.5,-144 267.5,-150 267.5,-156 267.5,-156 267.5,-168 267.5,-168 267.5,-174 261.5,-180 255.5,-180"/>
<text text-anchor="middle" x="172" y="-159.5" font-family="sans" font-size="10.00">combine_annotated_treatmentData</text>
</g>
<!-- 10&#45;&gt;1 -->
<g id="edge6" class="edge">
<title>10&#45;&gt;1</title>
<path fill="none" stroke="grey" stroke-width="2" d="M267.62,-148.02C277.87,-146.65 288.15,-145.29 298,-144 421.92,-127.75 566.69,-109.46 648.64,-99.18"/>
<polygon fill="grey" stroke="grey" stroke-width="2" points="649.32,-102.62 658.8,-97.9 648.45,-95.67 649.32,-102.62"/>
</g>
<!-- 11 -->
<g id="node12" class="node">
<title>11</title>
<path fill="none" stroke="#56d8c1" stroke-width="2" d="M212.5,-252C212.5,-252 131.5,-252 131.5,-252 125.5,-252 119.5,-246 119.5,-240 119.5,-240 119.5,-228 119.5,-228 119.5,-222 125.5,-216 131.5,-216 131.5,-216 212.5,-216 212.5,-216 218.5,-216 224.5,-222 224.5,-228 224.5,-228 224.5,-240 224.5,-240 224.5,-246 218.5,-252 212.5,-252"/>
<text text-anchor="middle" x="172" y="-231.5" font-family="sans" font-size="10.00">annotate_ChEMBL</text>
</g>
<!-- 11&#45;&gt;10 -->
<g id="edge18" class="edge">
<title>11&#45;&gt;10</title>
<path fill="none" stroke="grey" stroke-width="2" d="M172,-215.7C172,-207.98 172,-198.71 172,-190.11"/>
<polygon fill="grey" stroke="grey" stroke-width="2" points="175.5,-190.1 172,-180.1 168.5,-190.1 175.5,-190.1"/>
</g>
<!-- 12&#45;&gt;10 -->
<g id="edge17" class="edge">
<title>12&#45;&gt;10</title>
<path fill="none" stroke="grey" stroke-width="2" d="M91.44,-287.75C92.63,-268.9 96.67,-238.4 110,-216 116.74,-204.67 126.78,-194.57 136.83,-186.31"/>
<polygon fill="grey" stroke="grey" stroke-width="2" points="139.08,-188.99 144.83,-180.08 134.78,-183.46 139.08,-188.99"/>
</g>
<!-- 12&#45;&gt;11 -->
<g id="edge19" class="edge">
<title>12&#45;&gt;11</title>
<path fill="none" stroke="grey" stroke-width="2" d="M111.02,-287.7C121.13,-278.97 133.54,-268.24 144.52,-258.75"/>
<polygon fill="grey" stroke="grey" stroke-width="2" points="146.93,-261.29 152.21,-252.1 142.35,-255.99 146.93,-261.29"/>
</g>
<!-- 13&#45;&gt;1 -->
<g id="edge5" class="edge">
<title>13&#45;&gt;1</title>
<path fill="none" stroke="grey" stroke-width="2" d="M616.56,-143.88C633.66,-134.6 654.98,-123.03 673.32,-113.08"/>
<polygon fill="grey" stroke="grey" stroke-width="2" points="675.2,-116.04 682.32,-108.19 671.86,-109.88 675.2,-116.04"/>
</g>
<!-- 14&#45;&gt;1 -->
<g id="edge4" class="edge">
<title>14&#45;&gt;1</title>
<path fill="none" stroke="grey" stroke-width="2" d="M959.49,-287.86C958.1,-268.55 953.26,-237.11 937,-216 897.05,-164.14 829.11,-130.55 778.69,-111.38"/>
<polygon fill="grey" stroke="grey" stroke-width="2" points="779.77,-108.05 769.18,-107.86 777.34,-114.61 779.77,-108.05"/>
</g>
<!-- 14&#45;&gt;16 -->
<g id="edge26" class="edge">
<title>14&#45;&gt;16</title>
<path fill="none" stroke="grey" stroke-width="2" d="M883.82,-289.77C817.24,-276.45 727.34,-258.48 696.82,-252.14"/>
<polygon fill="grey" stroke="grey" stroke-width="2" points="697.22,-248.65 686.71,-249.97 695.75,-255.49 697.22,-248.65"/>
</g>
<!-- 14&#45;&gt;18 -->
<g id="edge29" class="edge">
<title>14&#45;&gt;18</title>
<path fill="none" stroke="grey" stroke-width="2" d="M908.41,-287.97C875.98,-277.26 834.22,-263.47 801.44,-252.65"/>
<polygon fill="grey" stroke="grey" stroke-width="2" points="802.17,-249.2 791.58,-249.39 799.97,-255.85 802.17,-249.2"/>
</g>
<!-- 14&#45;&gt;20 -->
<g id="edge32" class="edge">
<title>14&#45;&gt;20</title>
<path fill="none" stroke="grey" stroke-width="2" d="M937.51,-287.7C926.04,-278.88 911.94,-268.03 899.52,-258.47"/>
<polygon fill="grey" stroke="grey" stroke-width="2" points="901.3,-255.43 891.24,-252.1 897.03,-260.98 901.3,-255.43"/>
</g>
<!-- 14&#45;&gt;22 -->
<g id="edge35" class="edge">
<title>14&#45;&gt;22</title>
<path fill="none" stroke="grey" stroke-width="2" d="M978.79,-287.7C988.17,-279.05 999.68,-268.45 1009.91,-259.03"/>
<polygon fill="grey" stroke="grey" stroke-width="2" points="1012.45,-261.45 1017.43,-252.1 1007.7,-256.3 1012.45,-261.45"/>
</g>
<!-- 15 -->
<g id="node16" class="node">
<title>15</title>
<path fill="none" stroke="#568ad8" stroke-width="2" d="M1063,-396C1063,-396 923,-396 923,-396 917,-396 911,-390 911,-384 911,-384 911,-372 911,-372 911,-366 917,-360 923,-360 923,-360 1063,-360 1063,-360 1069,-360 1075,-366 1075,-372 1075,-372 1075,-384 1075,-384 1075,-390 1069,-396 1063,-396"/>
<text text-anchor="middle" x="993" y="-375.5" font-family="sans" font-size="10.00">download_EnsemblAnnotation</text>
</g>
<!-- 15&#45;&gt;14 -->
<g id="edge22" class="edge">
<title>15&#45;&gt;14</title>
<path fill="none" stroke="grey" stroke-width="2" d="M984.84,-359.7C981.09,-351.73 976.55,-342.1 972.38,-333.26"/>
<polygon fill="grey" stroke="grey" stroke-width="2" points="975.49,-331.66 968.06,-324.1 969.16,-334.64 975.49,-331.66"/>
</g>
<!-- 16&#45;&gt;1 -->
<g id="edge7" class="edge">
<title>16&#45;&gt;1</title>
<path fill="none" stroke="grey" stroke-width="2" d="M645.15,-215.63C652.11,-205.43 660.86,-192.18 668,-180 680.1,-159.36 692.48,-135.21 701.34,-117.28"/>
<polygon fill="grey" stroke="grey" stroke-width="2" points="704.62,-118.54 705.88,-108.02 698.33,-115.46 704.62,-118.54"/>
</g>
<!-- 17 -->
<g id="node18" class="node">
<title>17</title>
<path fill="none" stroke="#56c9d8" stroke-width="2" d="M520,-324C520,-324 434,-324 434,-324 428,-324 422,-318 422,-312 422,-312 422,-300 422,-300 422,-294 428,-288 434,-288 434,-288 520,-288 520,-288 526,-288 532,-294 532,-300 532,-300 532,-312 532,-312 532,-318 526,-324 520,-324"/>
<text text-anchor="middle" x="477" y="-303.5" font-family="sans" font-size="10.00">download_RNASEQ</text>
</g>
<!-- 17&#45;&gt;16 -->
<g id="edge24" class="edge">
<title>17&#45;&gt;16</title>
<path fill="none" stroke="grey" stroke-width="2" d="M515.16,-287.88C536.39,-278.35 563.01,-266.41 585.57,-256.28"/>
<polygon fill="grey" stroke="grey" stroke-width="2" points="587.27,-259.36 594.96,-252.07 584.41,-252.97 587.27,-259.36"/>
</g>
<!-- 18&#45;&gt;1 -->
<g id="edge3" class="edge">
<title>18&#45;&gt;1</title>
<path fill="none" stroke="grey" stroke-width="2" d="M743.9,-215.87C738.08,-191.56 727.37,-146.82 720.47,-118.01"/>
<polygon fill="grey" stroke="grey" stroke-width="2" points="723.85,-117.1 718.12,-108.19 717.04,-118.73 723.85,-117.1"/>
</g>
<!-- 19 -->
<g id="node20" class="node">
<title>19</title>
<path fill="none" stroke="#d8ac56" stroke-width="2" d="M854,-324C854,-324 738,-324 738,-324 732,-324 726,-318 726,-312 726,-312 726,-300 726,-300 726,-294 732,-288 738,-288 738,-288 854,-288 854,-288 860,-288 866,-294 866,-300 866,-300 866,-312 866,-312 866,-318 860,-324 854,-324"/>
<text text-anchor="middle" x="796" y="-303.5" font-family="sans" font-size="10.00">download_CNV_WESData</text>
</g>
<!-- 19&#45;&gt;18 -->
<g id="edge28" class="edge">
<title>19&#45;&gt;18</title>
<path fill="none" stroke="grey" stroke-width="2" d="M784.13,-287.7C778.5,-279.47 771.65,-269.48 765.43,-260.42"/>
<polygon fill="grey" stroke="grey" stroke-width="2" points="768.27,-258.37 759.73,-252.1 762.5,-262.33 768.27,-258.37"/>
</g>
<!-- 20&#45;&gt;1 -->
<g id="edge9" class="edge">
<title>20&#45;&gt;1</title>
<path fill="none" stroke="grey" stroke-width="2" d="M850.3,-215.87C822.84,-190.71 771.47,-143.65 740.24,-115.04"/>
<polygon fill="grey" stroke="grey" stroke-width="2" points="742.5,-112.36 732.76,-108.19 737.77,-117.53 742.5,-112.36"/>
</g>
<!-- 21 -->
<g id="node22" class="node">
<title>21</title>
<path fill="none" stroke="#56d8d0" stroke-width="2" d="M1218,-324C1218,-324 1066,-324 1066,-324 1060,-324 1054,-318 1054,-312 1054,-312 1054,-300 1054,-300 1054,-294 1060,-288 1066,-288 1066,-288 1218,-288 1218,-288 1224,-288 1230,-294 1230,-300 1230,-300 1230,-312 1230,-312 1230,-318 1224,-324 1218,-324"/>
<text text-anchor="middle" x="1142" y="-303.5" font-family="sans" font-size="10.00">download_MUTATION_processed</text>
</g>
<!-- 21&#45;&gt;20 -->
<g id="edge30" class="edge">
<title>21&#45;&gt;20</title>
<path fill="none" stroke="grey" stroke-width="2" d="M1075.57,-287.97C1033.92,-277.29 980.34,-263.55 938.19,-252.74"/>
<polygon fill="grey" stroke="grey" stroke-width="2" points="938.84,-249.29 928.28,-250.2 937.1,-256.07 938.84,-249.29"/>
</g>
<!-- 22&#45;&gt;1 -->
<g id="edge2" class="edge">
<title>22&#45;&gt;1</title>
<path fill="none" stroke="grey" stroke-width="2" d="M1028.17,-215.94C1017.86,-195.47 997.72,-161.71 970,-144 912.51,-107.28 834.27,-95.41 779.47,-91.86"/>
<polygon fill="grey" stroke="grey" stroke-width="2" points="779.36,-88.35 769.18,-91.28 778.97,-95.34 779.36,-88.35"/>
</g>
<!-- 23 -->
<g id="node24" class="node">
<title>23</title>
<path fill="none" stroke="#569ad8" stroke-width="2" d="M1342.5,-324C1342.5,-324 1259.5,-324 1259.5,-324 1253.5,-324 1247.5,-318 1247.5,-312 1247.5,-312 1247.5,-300 1247.5,-300 1247.5,-294 1253.5,-288 1259.5,-288 1259.5,-288 1342.5,-288 1342.5,-288 1348.5,-288 1354.5,-294 1354.5,-300 1354.5,-300 1354.5,-312 1354.5,-312 1354.5,-318 1348.5,-324 1342.5,-324"/>
<text text-anchor="middle" x="1301" y="-303.5" font-family="sans" font-size="10.00">download_FUSION</text>
</g>
<!-- 23&#45;&gt;22 -->
<g id="edge33" class="edge">
<title>23&#45;&gt;22</title>
<path fill="none" stroke="grey" stroke-width="2" d="M1247.24,-290.22C1244.46,-289.46 1241.7,-288.72 1239,-288 1191.8,-275.37 1138.34,-261.42 1098.12,-251.01"/>
<polygon fill="grey" stroke="grey" stroke-width="2" points="1098.76,-247.56 1088.2,-248.44 1097,-254.33 1098.76,-247.56"/>
</g>
</g>
</svg>
